<svg width="48" height="48" viewBox="0 0 48 48" xmlns="http://www.w3.org/2000/svg">
    <path d="M44 6h-5.631c.118-1.245.067-2.452-.617-3.247C37.456 2.409 36.912 2 36 2c-2.456 0-6.399 2.066-9.506 4.898A3.96 3.96 0 0 0 24 6c-.892 0-1.708.303-2.373.798C18.58 4.026 14.583 2 12 2c-.912 0-1.456.41-1.752.753-.684.795-.735 2.002-.617 3.247H4c-2.206 0-4 1.794-4 4v5a1 1 0 0 0 1 1h1v26c0 2.206 1.794 4 4 4h36c2.206 0 4-1.794 4-4V16h1a1 1 0 0 0 1-1v-5c0-2.206-1.794-4-4-4zM29.34 17.393l-1.024-.341a.994.994 0 0 0-1.264.632l-.108.32-1.595-4.255c.47-.169.893-.422 1.263-.744.346.173.807.398 1.349.652l1.38 3.736zm-8.284.61-.108-.32a.994.994 0 0 0-1.264-.631l-.976.325 1.42-3.634a66.073 66.073 0 0 0 1.388-.633c.34.272.718.489 1.135.64l-1.595 4.254zm15.18-13.945c.37.43.1 2.224-.045 3.188C36.088 7.928 36 8.55 36 9l.01.648c.022 1.136.071 3.5-.612 4.198-.58.59-4.888-1.167-7.644-2.511.15-.42.246-.865.246-1.335a3.97 3.97 0 0 0-.297-1.499C30.426 5.98 34.02 4 36 4c.124 0 .203.02.236.058zM24 8c1.103 0 2 .897 2 2s-.897 2-2 2-2-.897-2-2 .897-2 2-2zM11.764 4.058C11.797 4.02 11.876 4 12 4c1.834 0 5.441 1.66 8.364 4.354A3.962 3.962 0 0 0 20 10c0 .521.107 1.016.29 1.473-2.84 1.3-7.11 2.958-7.688 2.373-.683-.698-.634-3.062-.612-4.198L12 9c0-.45-.088-1.072-.191-1.754-.145-.964-.415-2.758-.045-3.188zM2 10c0-1.103.897-2 2-2h5.897c.056.379.103.732.103 1l-.009.607c-.026 1.278-.059 3.037.438 4.393H2v-4zm2 32V16h13.098l-1.03 2.636c-.14.361-.06.772.207 1.053a.996.996 0 0 0 1.041.26l2.051-.684L20 21.16V44H6c-1.103 0-2-.897-2-2zm18 2V21.182l2-5.333 2 5.333V44h-4zm22-2c0 1.103-.897 2-2 2H28V21.161l.633-1.896 2.05.683a1.001 1.001 0 0 0 1.255-1.295L30.958 16H44v26zm2-28h-8.429c.497-1.356.464-3.115.438-4.393L38 9c0-.268.047-.621.103-1H44c1.103 0 2 .897 2 2v4z" fill="#AE3F97" fill-rule="evenodd"/>
</svg>
