<svg width="24" height="24" viewBox="0 0 24 24" xmlns="http://www.w3.org/2000/svg"><g fill="primary"><path d="M9.053 14.724a.5.5 0 00.894-.447C9.921 14.224 9.294 13 8 13s-1.921 1.224-1.947 1.277a.499.499 0 00.221.668.502.502 0 00.672-.218C6.95 14.719 7.329 14 8 14c.67 0 1.05.72 1.053.724zM16 13c-1.294 0-1.921 1.224-1.947 1.277a.499.499 0 00.221.668.502.502 0 00.672-.218C14.95 14.719 15.329 14 16 14c.67 0 1.05.72 1.053.724a.5.5 0 00.894-.447C17.921 14.224 17.294 13 16 13zm-.875 5.17c-.008.008-.789.83-3.125.83-2.304 0-3.095-.799-3.124-.829a.501.501 0 00-.758.651C8.22 18.943 9.192 20 12 20s3.78-1.057 3.882-1.178a.495.495 0 00-.055-.693.504.504 0 00-.702.041z"/><path d="M22.282 12.02c-.63-3-2.612-5.445-5.282-6.818V.5a.5.5 0 00-.725-.446L13.346 1.53A1.986 1.986 0 0012 1.001c-.52 0-.99.203-1.346.53L7.725.054A.498.498 0 007 .5v4.702c-2.67 1.373-4.653 3.82-5.282 6.818A2.004 2.004 0 000 14c0 1.008.749 1.843 1.718 1.98C2.698 20.654 6.955 24 12 24s9.301-3.347 10.282-8.02A2.004 2.004 0 0024 14a2.004 2.004 0 00-1.718-1.98zM16 4.688l-2.11-1.064c.066-.197.11-.405.11-.624 0-.219-.044-.426-.11-.624L16 1.312v3.376zM12 2c.551 0 1 .449 1 1 0 .551-.449 1-1 1-.551 0-1-.449-1-1 0-.551.449-1 1-1zm-4-.688l2.11 1.064c-.066.198-.11.405-.11.624 0 .22.044.427.11.624L8 4.688V1.312zm14.01 13.689l-.1-.013a.493.493 0 00-.537.416C20.643 19.806 16.7 23 12 23c-4.7 0-8.643-3.194-9.373-7.596-.04-.242-.33-.406-.58-.406-.016 0-.031 0-.047.002a1.001 1.001 0 01-.01-2l.1.012a.507.507 0 00.537-.416c.626-3.77 3.611-6.649 7.41-7.398a3.412 3.412 0 00-.412.844 2.653 2.653 0 001.887 3.384c.194.05.39.074.584.074 1.035 0 2.013-.679 2.332-1.7a1.878 1.878 0 00-1.335-2.394.5.5 0 00-.249.97.884.884 0 01.562.425c.118.211.142.46.067.701a1.438 1.438 0 01-1.712.955 1.665 1.665 0 01-1.054-.8 1.662 1.662 0 01-.127-1.317c.165-.53.514-.996.985-1.314l.007-.008C11.715 5.012 11.856 5 12 5c4.7 0 8.643 3.195 9.373 7.596a.5.5 0 00.536.416L22 13a1.001 1.001 0 01.01 2z"/></g></svg>