<svg width="33" height="33" viewBox="0 0 33 33" fill="none" xmlns="http://www.w3.org/2000/svg">
<path fill-rule="evenodd" clip-rule="evenodd" d="M16.5 32.6885C7.67708 32.6885 0.5 25.5107 0.5 16.6885C0.5 7.86621 7.67708 0.688477 16.5 0.688477C25.3229 0.688477 32.5 7.86621 32.5 16.6885C32.5 25.5107 25.3229 32.6885 16.5 32.6885ZM16.5 31.3551C24.5872 31.3551 31.1667 24.7757 31.1667 16.6885C31.1667 8.60124 24.5872 2.02181 16.5 2.02181C8.41276 2.02181 1.83333 8.60124 1.83333 16.6885C1.83333 24.7757 8.41276 31.3551 16.5 31.3551ZM16.5 6.02181C16.8275 6.02181 17.0995 6.25741 17.1559 6.56856L17.1667 6.68848V25.0791L22.6953 19.5505C22.9557 19.29 23.3776 19.29 23.638 19.5505C23.8695 19.7819 23.8952 20.141 23.7152 20.4008L23.638 20.4932L16.9714 27.1598C16.8411 27.29 16.6706 27.3551 16.5 27.3551C16.3721 27.3551 16.2441 27.3185 16.1332 27.2453L16.0286 27.1598L9.36198 20.4932C9.10156 20.2327 9.10156 19.8109 9.36198 19.5505C9.59346 19.319 9.95252 19.2933 10.2123 19.4733L10.3047 19.5505L15.8333 25.0791V6.68848C15.8333 6.31999 16.1315 6.02181 16.5 6.02181Z" fill="#2E2E2E"/>
</svg>
