<svg width="440" height="85" viewBox="0 0 440 85" fill="none" xmlns="http://www.w3.org/2000/svg">
<rect width="440" height="84" transform="translate(0 0.799805)" fill="white"/>
<path fill-rule="evenodd" clip-rule="evenodd" d="M57.9981 11.52C43.2957 11.52 34.126 20.9711 34.126 20.9711V41.9036C34.126 57.0254 57.9981 67.1066 57.9981 67.1066C57.9981 67.1066 81.8702 57.0254 81.8702 41.9036V20.9711C81.8702 20.9711 72.7005 11.52 57.9981 11.52Z" fill="#191B48"/>
<path fill-rule="evenodd" clip-rule="evenodd" d="M41.266 46.1325C41.6485 46.9304 42.1345 47.7395 42.7243 48.557C44.3086 50.7536 46.5919 52.9712 49.5105 55.1485C52.6713 57.5062 55.8925 59.2954 57.9981 60.3642C60.1036 59.2954 63.3249 57.5062 66.4857 55.1485C69.4043 52.9712 71.6875 50.7536 73.2719 48.557C73.8601 47.7416 74.3452 46.9347 74.7272 46.1389L57.9979 38.5098L41.266 46.1325Z" fill="#F58620"/>
<path fill-rule="evenodd" clip-rule="evenodd" d="M57.1748 17.6251C54.7785 17.696 52.3922 18.0749 50.0697 18.7561C47.9602 19.3748 45.8907 20.2439 43.9187 21.3389C42.3764 22.1953 41.1285 23.0618 40.218 23.76V41.9034C40.218 42.7818 40.3647 43.6827 40.6555 44.6014L57.1748 37.0754V17.6251Z" fill="#FEFEFE"/>
<path fill-rule="evenodd" clip-rule="evenodd" d="M51.8076 27.0928V24.7593H46.8895V27.0928H48.0718V33.8136H46.8895V35.9916H51.8076V33.8136H50.6252V27.0928H51.8076Z" fill="#191B48"/>
<path fill-rule="evenodd" clip-rule="evenodd" d="M71.7656 24.6037H63.1625C62.1046 24.6037 62.1356 25.6615 62.1356 25.6615V27.8707H64.5315V26.8439H66.0873V35.9917H68.8408V26.8439H70.3966V27.8707H72.7925V25.6615C72.7925 25.6615 72.8235 24.6037 71.7656 24.6037Z" fill="#FEFEFE"/>
<path fill-rule="evenodd" clip-rule="evenodd" d="M56.7373 49.0676C56.7606 48.9977 57.8574 45.3572 57.8574 45.3572L59.0242 49.0676H56.7373ZM62.5815 51.5646L59.2678 42.4635H56.5273L53.2136 51.5646H52.7002V53.6648H54.8004C54.8004 53.6648 55.4305 53.6104 55.7105 52.6614C56.0952 51.3578 56.2005 51.2146 56.2005 51.2146H59.5944C59.5944 51.2146 59.6871 51.3617 60.0845 52.6614C60.3699 53.5948 60.9946 53.6648 60.9946 53.6648H63.0949V51.5646H62.5815Z" fill="#191B48"/>
<path d="M88.5716 50.3948C89.2418 50.4422 90.0909 49.8729 90.1024 48.5793C90.1126 47.4423 89.7896 46.7793 89.6239 46.4394C89.6011 46.3926 89.5813 46.3519 89.5658 46.317C89.4418 46.0382 89.3227 45.8309 88.9273 46.1871L88.896 46.2152C88.5365 46.5374 87.438 47.522 87.4681 48.6989C87.4992 49.9124 87.9971 50.3542 88.5716 50.3948Z" fill="#00A7D1"/>
<path d="M86.8873 50.4211C87.7586 51.3773 87.5233 52.3721 86.9997 52.7932C86.5509 53.1542 85.8855 53.1689 85.0374 52.3004C84.2149 51.4582 84.3505 49.9896 84.3949 49.5086L84.3987 49.4666C84.4465 48.9365 84.6747 49.0075 84.9552 49.1276C84.9903 49.1426 85.0324 49.1589 85.0809 49.1776C85.4335 49.3142 86.1214 49.5807 86.8873 50.4211Z" fill="#00A7D1"/>
<path d="M85.4728 53.9291C86.225 54.9815 85.8737 55.9416 85.304 56.2978C84.8156 56.6032 84.1532 56.5391 83.4137 55.5764C82.6964 54.6427 83.0048 53.2 83.1057 52.7279L83.1145 52.6869C83.2246 52.1662 83.4428 52.2638 83.7071 52.4161C83.7403 52.4352 83.7803 52.4564 83.8262 52.4808C84.1603 52.6582 84.8117 53.004 85.4728 53.9291Z" fill="#00A7D1"/>
<path d="M83.6062 57.0708C84.1743 58.2329 83.6693 59.1219 83.0487 59.3791C82.5166 59.5997 81.8737 59.4271 81.3034 58.3556C80.7502 57.3164 81.2924 55.9447 81.4699 55.4956L81.4853 55.4564C81.6799 54.961 81.879 55.0932 82.1146 55.2871C82.1442 55.3114 82.1801 55.339 82.2214 55.3706C82.5216 55.6007 83.1069 56.0493 83.6062 57.0708Z" fill="#00A7D1"/>
<path d="M81.3071 59.9653C81.7309 61.1875 81.1224 62.009 80.4753 62.1896C79.9205 62.3444 79.3031 62.0956 78.8661 60.963C78.4424 59.865 79.1456 58.569 79.3761 58.1443L79.3963 58.107C79.6492 57.6386 79.831 57.7939 80.0414 58.0147C80.0678 58.0424 80.1001 58.0741 80.1373 58.1105C80.4076 58.3751 80.9346 58.891 81.3071 59.9653Z" fill="#00A7D1"/>
<path d="M78.6664 62.584C78.8947 63.8573 78.1657 64.574 77.4984 64.6517C76.9262 64.7182 76.3552 64.3763 76.0998 63.1896C75.8522 62.0388 76.749 60.8678 77.0426 60.4844L77.0683 60.4508C77.391 60.0276 77.5463 60.2093 77.7198 60.4602C77.7416 60.4917 77.7686 60.528 77.7997 60.5697C78.0254 60.8732 78.4657 61.4648 78.6664 62.584Z" fill="#00A7D1"/>
<path d="M75.6677 64.7714C75.7401 66.063 74.9297 66.6862 74.2579 66.6825C73.6818 66.6792 73.1564 66.2707 73.0467 65.0617C72.9402 63.8892 73.9726 62.8352 74.3103 62.4904L74.3397 62.4604C74.7113 62.0794 74.8434 62.2785 74.9853 62.5487C75.0031 62.5826 75.0255 62.6219 75.0513 62.6671C75.2386 62.9956 75.604 63.6362 75.6677 64.7714Z" fill="#00A7D1"/>
<path d="M72.4192 66.6089C72.3414 67.9001 71.4642 68.4252 70.7973 68.3435C70.2256 68.2736 69.751 67.8068 69.7822 66.5933C69.8123 65.4166 70.9594 64.4898 71.3351 64.1861L71.3681 64.1595C71.7813 63.8241 71.8895 64.0372 71.9991 64.322C72.0128 64.3577 72.0305 64.3993 72.0509 64.4472C72.1989 64.7952 72.4876 65.4739 72.4192 66.6089Z" fill="#00A7D1"/>
<path d="M72.4869 71.4185C71.2116 71.2015 70.7845 70.2727 70.9378 69.6185C71.0692 69.0577 71.5846 68.6365 72.7876 68.7987C73.9542 68.9559 74.7516 70.1966 75.0127 70.6029L75.0356 70.6384C75.3243 71.0855 75.1008 71.1701 74.8058 71.2482C74.769 71.258 74.7259 71.271 74.6763 71.286C74.3143 71.3955 73.6078 71.6092 72.4869 71.4185Z" fill="#00A7D1"/>
<path d="M63.2558 70.0621C63.5981 70.0621 65.216 70.0154 65.8228 68.7086C66.0403 68.2401 66.1379 67.8795 66.2194 67.5782C66.3652 67.0391 66.4598 66.6897 67.0985 66.2505L67.2663 66.135C68.1576 65.5203 68.6668 65.1692 68.872 65.5505C69.0898 65.9549 69.1987 68.4441 68.4675 68.8953C68.1952 69.0633 67.8862 69.1796 67.6144 69.2818C67.1565 69.454 66.8044 69.5865 66.9118 69.8598C67.0583 70.2329 67.2848 70.218 67.9134 70.1767C68.0189 70.1698 68.1357 70.1621 68.2653 70.1554C69.1676 70.1088 69.541 70.2488 70.3966 71.3067C71.2523 72.3646 71.7035 72.9247 70.8789 72.9558C70.7564 72.9604 70.6181 72.9705 70.4681 72.9815C69.609 73.0444 68.3686 73.1351 67.5341 72.3801C66.554 71.4934 65.3872 70.731 64.2981 70.9333C63.2091 71.1355 62.5463 71.1564 62.5401 70.591C62.5347 70.0776 63.2558 70.0621 63.2558 70.0621Z" fill="#00A7D1"/>
<path d="M74.5453 67.933C74.4689 68.6005 75.0008 69.4735 76.2926 69.5412C77.4282 69.6007 78.1045 69.3068 78.4513 69.1561C78.4991 69.1353 78.5406 69.1173 78.5762 69.1033C78.8601 68.9915 79.0723 68.8816 78.7337 68.4709L78.7067 68.4381C78.4 68.0646 77.4642 66.9252 76.2875 66.9042C75.0738 66.8826 74.6108 67.3608 74.5453 67.933Z" fill="#00A7D1"/>
<path d="M77.9351 65.8581C77.9401 66.5299 78.5738 67.3321 79.8643 67.2429C80.9987 67.1644 81.6345 66.7907 81.9605 66.5991C82.0054 66.5727 82.0444 66.5498 82.078 66.5316C82.3463 66.3862 82.5437 66.2514 82.1579 65.8848L82.1273 65.8557C81.7778 65.5222 80.7107 64.5041 79.5399 64.6259C78.3325 64.7514 77.9309 65.2821 77.9351 65.8581Z" fill="#00A7D1"/>
<path d="M81.0946 63.3134C81.2041 63.9763 81.955 64.6701 83.2158 64.3809C84.3241 64.1268 84.8939 63.6588 85.1862 63.4187C85.2264 63.3857 85.2614 63.3569 85.2918 63.3337C85.5342 63.1483 85.7081 62.9845 85.27 62.6824L85.2352 62.6584C84.8381 62.3834 83.6255 61.5438 82.4879 61.8464C81.3149 62.1583 81.0006 62.7451 81.0946 63.3134Z" fill="#00A7D1"/>
<path d="M83.7991 60.4203C83.9877 61.0651 84.8167 61.6633 86.0336 61.2242C87.103 60.8383 87.6122 60.305 87.8734 60.0315C87.9094 59.9938 87.9407 59.961 87.9681 59.9342C88.1864 59.721 88.3393 59.5373 87.8679 59.2903L87.8303 59.2705C87.4027 59.0454 86.098 58.3584 85.0054 58.7959C83.8784 59.2471 83.6373 59.8675 83.7991 60.4203Z" fill="#00A7D1"/>
<path d="M86.2158 57.2007C86.5083 57.8055 87.4248 58.2585 88.5525 57.6246C89.5435 57.0675 89.9577 56.4574 90.1701 56.1445C90.1994 56.1014 90.2248 56.0639 90.2474 56.033C90.4275 55.7867 90.548 55.5803 90.0423 55.4145L90.0022 55.4013C89.5436 55.2499 88.143 54.7875 87.1374 55.3994C86.1004 56.0305 85.9651 56.6821 86.2158 57.2007Z" fill="#00A7D1"/>
<path d="M90.3823 53.7271C89.3375 54.49 88.3739 54.1484 88.0119 53.5824C87.7016 53.0972 87.7589 52.4341 88.7141 51.6848C89.6403 50.9583 91.0858 51.2519 91.559 51.348C91.5738 51.351 91.5876 51.3538 91.6004 51.3564C92.1221 51.4613 92.0269 51.6804 91.8772 51.9463C91.8584 51.9797 91.8376 52.02 91.8136 52.0663C91.6396 52.4022 91.3004 53.0569 90.3823 53.7271Z" fill="#00A7D1"/>
<path d="M25.893 48.5793C25.9045 49.8729 26.7536 50.4422 27.4238 50.3948C27.9983 50.3542 28.4962 49.9124 28.5273 48.6989C28.5574 47.522 27.459 46.5374 27.0995 46.2152L27.0682 46.1871C26.6727 45.8309 26.5536 46.0382 26.4297 46.317C26.4141 46.3519 26.3943 46.3926 26.3715 46.4393C26.2059 46.7793 25.8828 47.4423 25.893 48.5793Z" fill="#00A7D1"/>
<path d="M28.9957 52.7932C28.4721 52.3721 28.2368 51.3773 29.1081 50.4211C29.8741 49.5807 30.5617 49.3143 30.9144 49.1777C30.9629 49.1589 31.0051 49.1426 31.0402 49.1276C31.3208 49.0075 31.549 48.9365 31.5967 49.4666L31.6006 49.5086C31.645 49.9896 31.7805 51.4582 30.9581 52.3004C30.11 53.1689 29.4445 53.1542 28.9957 52.7932Z" fill="#00A7D1"/>
<path d="M30.5227 53.9291C29.7705 54.9815 30.1218 55.9416 30.6914 56.2978C31.1798 56.6032 31.8423 56.5391 32.5818 55.5764C33.299 54.6427 32.9906 53.2 32.8897 52.7279L32.8809 52.6869C32.7709 52.1662 32.5526 52.2638 32.2883 52.4161C32.2553 52.4351 32.2152 52.4564 32.1695 52.4807C31.8354 52.658 31.1837 53.004 30.5227 53.9291Z" fill="#00A7D1"/>
<path d="M32.9467 59.3791C32.326 59.1219 31.8211 58.2329 32.3892 57.0708C32.8884 56.0493 33.4737 55.6007 33.7739 55.3707C33.8152 55.339 33.8512 55.3114 33.8807 55.2871C34.1163 55.0932 34.3155 54.961 34.51 55.4564L34.5255 55.4956C34.703 55.9447 35.2452 57.3164 34.692 58.3556C34.1216 59.4271 33.4787 59.5997 32.9467 59.3791Z" fill="#00A7D1"/>
<path d="M34.6883 59.9653C34.2645 61.1875 34.873 62.009 35.5201 62.1896C36.0749 62.3444 36.6923 62.0956 37.1293 60.963C37.553 59.865 36.8498 58.569 36.6193 58.1443L36.5991 58.107C36.3462 57.6386 36.1644 57.7939 35.954 58.0147C35.9276 58.0424 35.8952 58.0741 35.858 58.1105C35.5878 58.3751 35.0608 58.891 34.6883 59.9653Z" fill="#00A7D1"/>
<path d="M38.4971 64.6517C37.8298 64.574 37.1008 63.8573 37.3291 62.584C37.5298 61.4648 37.97 60.8732 38.1958 60.5697C38.2268 60.528 38.2539 60.4917 38.2756 60.4602C38.4492 60.2093 38.6044 60.0276 38.9271 60.4508L38.9528 60.4844C39.2465 60.8678 40.1433 62.0388 39.8956 63.1896C39.6402 64.3763 39.0692 64.7182 38.4971 64.6517Z" fill="#00A7D1"/>
<path d="M41.7376 66.6825C41.0657 66.6862 40.2553 66.063 40.3278 64.7714C40.3914 63.6362 40.7568 62.9957 40.9441 62.6672C40.9699 62.6219 40.9924 62.5826 41.0102 62.5487C41.152 62.2785 41.2841 62.0794 41.6557 62.4604L41.6851 62.4904C42.0229 62.8352 43.0553 63.8892 42.9487 65.0617C42.839 66.2707 42.3136 66.6792 41.7376 66.6825Z" fill="#00A7D1"/>
<path d="M39.7028 69.5412C40.9946 69.4735 41.5265 68.6005 41.4501 67.933C41.3846 67.3608 40.9216 66.8826 39.7079 66.9042C38.5312 66.9252 37.5954 68.0646 37.2887 68.4381L37.2617 68.4709C36.9231 68.8816 37.1353 68.9915 37.4192 69.1033C37.4548 69.1173 37.4963 69.1353 37.5441 69.1561C37.8909 69.3068 38.5672 69.6007 39.7028 69.5412Z" fill="#00A7D1"/>
<path d="M38.0603 65.8581C38.0553 66.5299 37.4216 67.3321 36.1311 67.2429C34.9967 67.1644 34.3609 66.7907 34.0349 66.5991C33.99 66.5727 33.951 66.5498 33.9174 66.5316C33.6491 66.3862 33.4517 66.2514 33.8375 65.8848L33.8681 65.8557C34.2177 65.5222 35.2847 64.5041 36.4555 64.6259C37.6629 64.7514 38.0645 65.2821 38.0603 65.8581Z" fill="#00A7D1"/>
<path d="M32.7795 64.3809C34.0404 64.6701 34.7913 63.9763 34.9008 63.3134C34.9946 62.7451 34.6805 62.1583 33.5074 61.8464C32.3698 61.5438 31.1573 62.3834 30.7601 62.6584L30.7254 62.6824C30.2872 62.9845 30.4612 63.1483 30.7036 63.3337C30.734 63.3569 30.7689 63.3857 30.8092 63.4187C31.1014 63.6587 31.6713 64.1268 32.7795 64.3809Z" fill="#00A7D1"/>
<path d="M32.1964 60.4203C32.0077 61.0651 31.1787 61.6633 29.9619 61.2242C28.8925 60.8383 28.383 60.3048 28.1218 60.0313C28.0859 59.9937 28.0547 59.9609 28.0273 59.9342C27.8091 59.721 27.6561 59.5373 28.1276 59.2903L28.1652 59.2705C28.5927 59.0454 29.8975 58.3584 30.9901 58.7959C32.117 59.2471 32.3582 59.8675 32.1964 60.4203Z" fill="#00A7D1"/>
<path d="M27.4429 57.6246C28.5706 58.2585 29.487 57.8055 29.7795 57.2007C30.0303 56.6821 29.8949 56.0305 28.858 55.3994C27.8523 54.7875 26.4517 55.2499 25.9931 55.4013L25.9531 55.4145C25.4474 55.5803 25.5679 55.7867 25.7479 56.033C25.7705 56.0639 25.7959 56.1014 25.8252 56.1445C26.0377 56.4574 26.4518 57.0675 27.4429 57.6246Z" fill="#00A7D1"/>
<path d="M45.1981 68.3435C44.5312 68.4252 43.654 67.9001 43.5762 66.6089C43.5079 65.4739 43.7965 64.7952 43.9445 64.4472C43.9649 64.3993 43.9826 64.3577 43.9963 64.322C44.1059 64.0372 44.2141 63.8241 44.6274 64.1595L44.6603 64.1861C45.036 64.4898 46.1831 65.4166 46.2133 66.5933C46.2444 67.8068 45.7699 68.2736 45.1981 68.3435Z" fill="#00A7D1"/>
<path d="M43.5085 71.4185C44.7838 71.2015 45.2109 70.2727 45.0576 69.6185C44.9262 69.0577 44.4109 68.6365 43.2079 68.7987C42.0413 68.9559 41.2439 70.1966 40.9827 70.6029L40.9598 70.6384C40.6711 71.0855 40.8946 71.1701 41.1896 71.2482C41.2263 71.2579 41.2693 71.2709 41.3187 71.2859C41.6807 71.3954 42.3876 71.6092 43.5085 71.4185Z" fill="#00A7D1"/>
<path d="M52.7396 70.0621C52.3974 70.0621 50.7794 70.0154 50.1726 68.7086C49.9551 68.2401 49.8576 67.8795 49.7761 67.5783C49.6302 67.0392 49.5356 66.6897 48.8969 66.2505L48.7292 66.135C47.8378 65.5203 47.3286 65.1692 47.1234 65.5505C46.9056 65.9549 46.7967 68.4441 47.5279 68.8953C47.8002 69.0633 48.1093 69.1796 48.381 69.2818C48.8389 69.454 49.191 69.5865 49.0837 69.8598C48.9371 70.2329 48.7107 70.218 48.082 70.1767C47.9765 70.1698 47.8598 70.1621 47.7302 70.1554C46.8278 70.1088 46.4545 70.2488 45.5988 71.3067C44.7431 72.3646 44.292 72.9247 45.1165 72.9558C45.239 72.9604 45.3774 72.9705 45.5273 72.9815C46.3864 73.0444 47.6269 73.1351 48.4613 72.3801C49.4414 71.4934 50.6082 70.7311 51.6973 70.9333C52.7863 71.1355 53.4492 71.1564 53.4553 70.591C53.4608 70.0776 52.7396 70.0621 52.7396 70.0621Z" fill="#00A7D1"/>
<path d="M25.6131 53.7271C26.6579 54.49 27.6215 54.1484 27.9835 53.5824C28.2938 53.0972 28.2364 52.4341 27.2813 51.6848C26.355 50.9583 24.9097 51.2519 24.4364 51.348C24.4216 51.351 24.4078 51.3538 24.395 51.3564C23.8732 51.4613 23.9685 51.6804 24.1182 51.9463C24.137 51.9797 24.1578 52.02 24.1818 52.0663C24.3558 52.4022 24.695 53.0569 25.6131 53.7271Z" fill="#00A7D1"/>
</svg>
