<svg width="440" height="85" viewBox="0 0 440 85" fill="none" xmlns="http://www.w3.org/2000/svg">
<rect width="440" height="84" transform="translate(0 0.799805)" fill="white"/>
<g clip-path="url(#clip0_4433_85493)">
<path fill-rule="evenodd" clip-rule="evenodd" d="M30.7956 29.3895V29.7558H32.3846V35.1705H27.5117V29.7558H29.0492V29.3895H23.9492V29.7558H25.4686V41.3525H23.9673V41.7188H29.1021V41.3525H27.5117V35.6412H32.3846V41.3525H30.8304V41.7188H35.6631V41.3525H34.3929V29.7558H35.6114V29.3895H30.7956ZM40.7588 29.7558V29.3895H35.9262V29.7558H37.1963V41.3525H35.9429V41.7188H40.6348V41.3525H39.2213V29.7558H40.7588ZM47.7068 29.1792L47.8113 32.4102H47.3406L47.3025 32.2118C47.1741 31.5559 47.0137 30.9546 46.3629 30.3671C45.8212 29.8783 45.1401 29.6332 44.4939 29.6332C43.3937 29.6332 42.1013 30.349 42.1013 31.8684C42.1013 33.2305 43.1486 33.5104 44.6165 33.9115L45.2808 34.0689L45.579 34.1535C46.7679 34.4999 48.4241 35.1475 48.4241 37.7024C48.4241 39.9028 47.1484 41.9291 44.739 41.9291C43.6555 41.9291 42.7642 41.5447 41.9788 40.8108L41.3159 41.7188H40.9148L40.8103 37.9113H41.3173L41.3506 38.1094C41.4585 38.7432 41.5832 39.3326 42.0214 39.959L42.0925 40.0579C42.3797 40.4499 43.2148 41.4208 44.7572 41.4208C46.5217 41.4208 47.4297 40.198 47.4297 38.7315C47.4297 36.967 45.998 36.6007 45.0371 36.3389L44.3393 36.1467C43.5358 35.9545 42.8548 35.7624 42.3311 35.3961C41.5094 34.8376 41.1084 33.9463 41.1084 32.899C41.1084 31.0663 42.3478 29.1792 44.5315 29.1792C45.6318 29.1792 46.4353 29.6861 46.8197 29.948L47.4478 29.1792H47.7068ZM63.2017 29.1792C65.3158 29.1792 66.6249 30.5593 67.2014 31.3281C68.3182 32.7887 68.5384 34.3006 68.5452 35.4963L68.5454 35.5549C68.5454 36.7595 68.3365 38.297 67.2014 39.7816L67.1608 39.8344C66.5809 40.58 65.2823 41.9291 63.2017 41.9291C62.7623 41.9291 62.3376 41.8685 61.9273 41.7471L61.8397 41.7202C60.1977 41.2314 57.8399 39.258 57.8399 35.5549L57.8413 35.5535C57.8413 34.7861 57.9458 34.0173 58.1728 33.2834C58.766 31.3629 60.5654 29.1792 63.2017 29.1792ZM86.6404 29.3547L90.6401 41.3525H91.9325L91.9492 41.7188H86.9022V41.3525H88.526L87.3214 37.7901H83.6015L82.4136 41.3524L84.0207 41.3525V41.7188L77.759 41.7188L77.6797 41.7364C77.5447 41.7651 77.3936 41.7901 77.1966 41.8066C76.6577 41.8525 76.0268 41.6492 75.5199 41.1952C74.7272 40.5013 74.6529 39.5273 74.6318 38.611L74.6286 38.453L74.5937 37.6856L74.5842 37.5112C74.5414 36.8297 74.4062 35.957 73.4587 35.5716C72.9518 35.3627 72.3933 35.3446 71.2054 35.3794V41.3525H72.7596V41.7188H67.6777V41.3525H69.2501V29.7558H67.6262V29.3895L72.6173 29.3896L72.9268 29.3911C74.1319 29.4023 75.2509 29.4888 76.1494 30.1401C76.9348 30.7167 77.2148 31.5022 77.2148 32.2361C77.2148 34.0006 75.5909 35.0827 73.442 35.2234C74.7163 35.3989 75.4321 35.9406 75.7121 36.1843C76.8471 37.1801 76.8304 38.4377 76.8123 39.258V39.7468C76.7956 40.2008 76.8123 40.4626 76.8652 40.6896C76.9493 41.0072 77.1752 41.3299 77.5933 41.3527L78.8762 41.3525V29.7558H77.3568V29.3895H82.4401V29.7558H80.9025V41.3525L81.9247 41.3524L86.0819 29.3547H86.6404ZM57.7758 29.3895L58.0558 33.2667H57.7758L57.7523 33.1771C57.5229 32.3289 56.9203 30.7542 56.4486 30.3671C55.8649 29.8133 55.3456 29.7597 54.6479 29.7557L54.2036 29.7558V41.3525H55.8971V41.7188H50.4295V41.3525H52.194V29.7558L51.8971 29.7559C51.0155 29.7574 50.5989 29.7824 50.1054 30.182L50.0716 30.2098C49.2847 30.8393 48.8126 32.4283 48.6733 33.2667H48.3516L48.5118 29.3895H57.7758ZM63.2031 29.6499L63.1574 29.6503C62.5419 29.661 61.112 29.8926 60.5517 31.3575L60.5305 31.4144C60.2551 32.1365 60.1833 33.4842 60.181 35.5064L60.1816 36.0035C60.192 39.1376 60.359 40.6443 62.1377 41.2648H62.1363C62.4859 41.3874 62.8354 41.457 63.2017 41.457C63.5279 41.457 63.87 41.3963 64.1836 41.2886L64.2504 41.2648C66.0656 40.6315 66.2022 39.0767 66.2069 35.8086L66.2066 35.3096C66.2 33.4289 66.1265 32.1566 65.8709 31.4505L65.8575 31.4144C65.2991 29.8588 63.7978 29.6499 63.2031 29.6499ZM85.4712 32.3077L83.7422 37.4057H87.2002L85.4712 32.3077ZM71.9423 29.7724H71.1887V34.9602L71.9904 34.96C72.7221 34.9576 73.6619 34.9261 74.2442 34.5062C74.8904 34.0522 75.0826 33.2138 75.0826 32.4102C75.0826 31.8866 74.9614 31.0997 74.6286 30.629C74.0842 29.8722 73.1455 29.7838 72.2113 29.7737L72.1036 29.7729L71.9423 29.7724ZM41.8701 43.7981V44.1713H40.1502L43.2712 53.3602L46.2334 44.1713H44.4243V43.7981H47.7096V44.1713H46.7111L42.7225 56.5132H42.2963L38.0222 44.1713H36.8872V43.7981H41.8701ZM52.3458 43.7981V44.1713H51.0284V55.945H52.3458V56.3182H47.4464V55.945H48.9714V44.1713H47.9143V43.7981H52.3458ZM67.6276 43.7647L71.6886 55.9464H73.0005L73.0186 56.3182H67.8936V55.9464H69.5425L68.3184 52.3282H64.5428L63.3368 55.9464H64.9676V56.3182H61.6335V55.9464H62.8396L67.0594 43.7647H67.6276ZM52.6216 43.7967H56.7246L57.0689 43.7978C58.0515 43.8038 58.9305 43.8408 59.7161 44.0702L59.8064 44.0975C61.9163 44.7186 63.7253 46.8285 63.7253 50.0205C63.7253 51.7586 63.1404 53.4618 61.9344 54.7027C60.3732 56.2987 58.7061 56.2987 57.2703 56.3168H52.5157V55.945L52.5143 55.9436H53.9711V44.1685H52.6216V43.7967ZM56.5085 44.188H56.0113V55.9269L57.1482 55.9267L57.3869 55.9253C58.3919 55.9141 59.5103 55.8239 60.3035 55.094C61.2813 54.22 61.3799 52.7482 61.3854 50.166L61.3856 49.7411L61.385 49.4244C61.382 48.7341 61.3663 48.0196 61.2823 47.3131L61.2617 47.1502C61.1907 46.6001 61.0667 45.8188 60.4985 45.181C59.6476 44.2242 58.5836 44.2242 56.5085 44.188ZM66.4383 46.7603L64.6835 51.9382H68.1944L66.4383 46.7603ZM33.8261 44.1518H34.8594V43.78H31.4502V44.1518H33.3122L30.4224 49.6668L30.3907 49.5947C30.3434 49.486 30.3186 49.427 30.2455 49.2936L27.2666 44.1518H28.8445V43.78H23.9492V44.1518H24.9422L28.6314 50.3938V55.9255H26.8752V56.2973H32.4083V55.9255H30.5993V50.3757L33.8261 44.1518Z" fill="black"/>
</g>
<defs>
<clipPath id="clip0_4433_85493">
<rect width="68" height="68" fill="white" transform="translate(24 8.7998)"/>
</clipPath>
</defs>
</svg>
