<svg width="116" height="40" viewBox="0 0 116 40" fill="none" xmlns="http://www.w3.org/2000/svg">
<path fill-rule="evenodd" clip-rule="evenodd" d="M57.184 2C53.6052 2.18963 51.4327 3.92579 51.583 6.91034C51.7344 9.88751 54.0687 11.3866 57.6485 11.2023C61.2231 11.0105 63.0887 9.27227 62.9384 6.29088C62.8058 3.64872 61.1939 2.16856 58.3365 2H57.184ZM1.35195 3.63081C0.667103 5.20894 0 9.79164 0 14.467C0 20.926 2.47527 25.7099 9.97 25.7099C12.2699 25.7099 14.3244 25.3676 15.8768 24.5953C15.8768 28.3395 13.1427 29.631 9.66203 29.3972C7.20346 29.2318 5.60721 28.5849 3.71657 27.5083C3.40964 27.3355 2.96908 27.2185 2.64544 27.2185C1.85828 27.2185 1.20788 27.5999 0.891558 28.4648C0.523034 29.4899 0.0313194 31.8128 0.0313194 32.4786C0.0313194 33.3025 0.272479 34.0125 0.987604 34.4413C3.50151 35.9257 7.8977 36.7 11.3689 36.7C18.7582 36.7 24.3706 34.3633 25.2131 24.8935L25.2726 22.4694H25.4272C26.2425 29.2549 31.073 33.7881 38.8632 33.7881C45.3191 33.7881 50.4795 31.3535 52.2522 23.8906H52.4036C52.4036 31.1112 53.4267 33.3457 58.3292 33.3457C62.5364 33.3457 63.1169 31.8191 63.1169 28.0118C63.1169 25.4118 63.0219 22.8002 62.6534 19.2973C62.2149 15.5732 61.8338 14.0298 57.7237 14.0298C53.6825 14.0298 53.0227 15.5469 52.6635 18.9033L52.5539 20.119H52.4057C51.7741 10.2478 46.337 6.51422 39.0072 6.51422C32.4604 6.51422 27.1351 9.18694 25.5618 16.7668L25.4094 16.7721C25.4094 12.4148 25.3196 7.64989 24.9668 4.40302C24.8864 3.64977 24.1462 3.21784 23.3695 3.21257L17.4553 3.15042C16.4834 3.15042 15.7777 3.71298 15.7777 4.72223L15.8403 17.3462C15.454 17.9541 14.148 18.3924 13.1082 18.3924C10.5713 18.3924 9.94599 17.6117 9.74763 15.0233C9.52527 12.1157 9.79253 7.73733 10.1767 4.26185C10.2602 3.49385 9.65994 3.01241 8.88531 2.92497L3.28853 2.48566C3.23112 2.4825 3.17578 2.4825 3.1215 2.4825C2.22054 2.4825 1.70899 2.81751 1.35195 3.63081ZM38.6022 14.6103C40.5836 14.6103 43.3805 14.9927 43.3805 20.3856C43.3805 23.8463 40.5523 25.2843 38.6732 25.2843C36.2981 25.2843 34.088 23.3712 34.088 20.3793C34.088 16.6141 35.8346 14.6103 38.6022 14.6103ZM63.6817 15.7186C63.6817 24.7017 69.2336 27.1353 74.8627 27.1353C76.9235 27.1353 79.3904 26.4958 80.6526 25.7184C80.5503 29.4804 78.098 30.8015 74.6205 30.5676C72.1536 30.4169 70.2264 29.6616 68.3274 28.5849C68.0215 28.4111 67.5809 28.2931 67.2657 28.2931C66.4764 28.2931 65.825 28.6766 65.5097 29.5425C65.136 30.5518 64.6432 32.8895 64.6432 33.5574C64.6432 34.3791 64.8833 35.0766 65.6068 35.5053C68.1134 37.0013 73.2884 38 76.7596 38C84.293 38 89.1255 33.8798 89.6611 26.9941C89.7446 25.9596 89.9284 22.8518 89.9628 21.851H90.1173C91.5862 28.0097 96.092 30.5328 102.731 30.5328C110.521 30.5328 115.855 26.6886 115.855 17.4084C115.855 7.04308 109.664 3.42222 102.073 3.42222C96.2163 3.42222 91.3816 6.7323 89.9075 12.7794H89.754C89.754 10.725 89.6444 7.22428 89.5379 4.93819C89.3813 3.87522 88.8124 3.34847 87.5867 3.28632L83.1801 3.15779C81.873 3.21889 80.8541 3.96055 80.6641 5.52394C79.7694 4.0048 77.0081 3.0714 74.9107 3.0714C68.4485 3.0714 63.6817 8.19033 63.6817 15.7186ZM73.0618 15.235C73.0618 12.1093 74.9264 10.3521 77.5979 10.3521C78.835 10.3521 79.9417 10.9157 80.5774 11.6679C80.9178 13.8223 80.9533 16.8184 80.8092 19.1751C80.3655 19.6681 79.1023 20.1085 77.9832 20.1085C74.894 20.1085 73.0618 18.4303 73.0618 15.235ZM97.4805 16.9512C97.4805 13.5126 100.306 11.9555 102.174 11.9555C105.507 11.9555 107.722 13.5179 107.722 16.5245C107.722 20.9081 106.061 22.1628 102.657 22.1628C99.843 22.1628 97.4805 20.3856 97.4805 16.9512Z" fill="url(#paint0_linear_4553_5794)"/>
<defs>
<linearGradient id="paint0_linear_4553_5794" x1="2.4987e-07" y1="17" x2="115.5" y2="17" gradientUnits="userSpaceOnUse">
<stop stop-color="#E42E84"/>
<stop offset="1" stop-color="#613085"/>
</linearGradient>
</defs>
</svg>
