<svg width="440" height="85" viewBox="0 0 440 85" fill="none" xmlns="http://www.w3.org/2000/svg">
<rect width="440" height="84" transform="translate(0 0.799805)" fill="white"/>
<path d="M33.376 36.2045V38.8773H26.7045V41.8707H32.6065V44.5435H26.7045V47.5828H33.6374V50.2555H24V36.2045H33.376ZM52.4043 41.4966C53.129 41.4966 53.6968 41.6111 54.1226 41.8326C54.5485 42.054 54.922 42.3671 55.2432 42.7795L55.4076 41.9242H57.8431V50.2555H55.2283V49.2246C54.4439 50.0646 53.5324 50.4846 52.5014 50.4846C51.2911 50.4846 50.3125 50.1181 49.5579 49.3773C48.8033 48.6366 48.4298 47.5446 48.4298 46.0937C48.4298 45.1773 48.6166 44.3755 48.9826 43.6806C49.3487 42.9857 49.8418 42.4511 50.4469 42.0693C51.0595 41.6875 51.7095 41.4966 52.4043 41.4966ZM39.8233 41.5042C40.5928 41.5118 41.2353 41.7486 41.7508 42.2144C42.2663 42.6878 42.5353 43.2835 42.5427 44.0089V50.2555H39.9279V45.0017C39.8906 44.1846 39.4946 43.7798 38.7326 43.7798C38.1349 43.7798 37.6568 44.07 37.2982 44.6351C36.9396 45.2078 36.7603 45.9486 36.7603 46.8497V50.2555H34.1455V41.9089H36.5212L36.708 43.2453C37.0068 42.6955 37.4177 42.2678 37.9481 41.9624C38.4786 41.6569 39.1061 41.5042 39.8233 41.5042ZM47.7499 35.2423C48.1235 35.2423 48.5194 35.3034 48.9453 35.4103C49.3711 35.5249 49.7372 35.7005 50.051 35.9296L48.9528 37.8616C48.7286 37.5791 48.4223 37.4416 48.0413 37.4416C47.6528 37.4416 47.3465 37.5791 47.1149 37.8387C46.8833 38.106 46.7713 38.5107 46.7713 39.0453V41.8707H49.8717L49.8303 41.9028C49.6145 42.0743 48.6104 42.9263 48.1982 44.238H46.7713V50.2555H44.1564V44.238H43.0059C43.0059 42.4282 42.102 41.8707 42.102 41.8707H44.149V38.9689C44.149 37.8464 44.4628 36.9453 45.0903 36.2656C45.7179 35.586 46.6069 35.2423 47.7499 35.2423ZM53.1514 43.6577C52.5761 43.6577 52.0905 43.8715 51.6871 44.3068C51.2837 44.742 51.082 45.2842 51.082 45.9486C51.082 46.3839 51.1791 46.7809 51.3808 47.1399C51.5753 47.4933 51.8254 47.7687 52.1377 47.9659L52.1727 47.9875C52.4897 48.1863 52.8345 48.2857 53.207 48.2926L53.2485 48.293C54.16 48.3082 54.8174 47.8882 55.2283 47.0482V45.0017C55.0789 44.5969 54.8174 44.2686 54.4513 44.0242C54.0853 43.7798 53.6519 43.6577 53.1514 43.6577ZM71.3355 42.1762C71.8137 42.6344 72.0677 43.2377 72.0901 43.9937V50.2555H69.4977V45.1009C69.4753 44.6809 69.408 44.3678 69.2885 44.154C69.169 43.9402 68.9598 43.8257 68.6311 43.8028C68.0185 43.8028 67.5478 44.1082 67.2041 44.7115C66.8605 45.3148 66.6886 46.0249 66.6886 46.842V50.2555H64.0738V45.1009C64.0514 44.6809 63.9767 44.3678 63.8497 44.154C63.7227 43.9402 63.4911 43.8257 63.1624 43.8028C62.5797 43.8028 62.1165 44.1082 61.7803 44.7115C61.4441 45.3148 61.2722 46.0097 61.2722 46.8039V50.2555H58.6574V41.9089H61.0332L61.22 43.2224C61.8774 42.0617 62.8635 41.4813 64.171 41.4813C64.8284 41.4813 65.3738 41.6187 65.8071 41.8936C66.2404 42.1686 66.5318 42.5733 66.6961 43.1078C67.0472 42.6115 67.4581 42.2144 67.9363 41.9242C68.4144 41.634 68.9075 41.4813 69.423 41.4813C70.2224 41.4889 70.8574 41.718 71.3355 42.1762ZM73.2406 36.5023C73.532 36.2427 73.8682 36.1129 74.2417 36.1129C74.6003 36.1129 74.929 36.2427 75.2129 36.5023C75.4968 36.762 75.6462 37.0827 75.6462 37.4645C75.6462 37.8464 75.5043 38.1671 75.2129 38.4191C74.929 38.6711 74.6003 38.8009 74.2417 38.8009C73.8682 38.8009 73.532 38.6711 73.2406 38.4191C72.9492 38.1671 72.7998 37.8464 72.7998 37.4645C72.7998 37.0827 72.9418 36.762 73.2406 36.5023ZM75.5267 39.5035V50.2555H72.9119V39.5035H75.5267ZM78.9633 36.6856V50.2631H76.3485V36.6856H78.9633ZM80.0893 38.8456L80.1138 38.8238C80.4052 38.5642 80.7414 38.4344 81.1149 38.4344C81.4735 38.4344 81.8022 38.5642 82.0861 38.8238C82.37 39.0835 82.5194 39.4042 82.5194 39.786C82.5194 40.1678 82.3775 40.4886 82.0861 40.7406C81.8022 40.9926 81.4735 41.1224 81.1149 41.1224C80.7414 41.1224 80.4052 40.9926 80.1138 40.7406C79.8225 40.4886 79.673 40.1678 79.673 39.786C79.673 39.4148 79.8072 39.1013 80.0893 38.8456ZM82.3999 41.8631V50.2708H79.7851V41.8631H82.3999ZM92 41.9242V50.2555H89.3852V49.2246C88.6007 50.0646 87.6893 50.4846 86.6583 50.4846C85.448 50.4846 84.4693 50.1181 83.7148 49.3773C82.9602 48.6366 82.5867 47.5446 82.5867 46.0937C82.5867 45.1773 82.7735 44.3755 83.1395 43.6806C83.5056 42.9857 83.9987 42.4511 84.6038 42.0693C85.2164 41.6875 85.8664 41.4966 86.5612 41.4966C87.2859 41.4966 87.8537 41.6111 88.2795 41.8326C88.7053 42.054 89.0789 42.3671 89.4001 42.7795L89.5645 41.9242H92ZM89.3852 47.0482V45.0017C89.2358 44.5969 88.9743 44.2686 88.6082 44.0242C88.2421 43.7798 87.8088 43.6577 87.3083 43.6577C86.733 43.6577 86.2474 43.8715 85.844 44.3068C85.4406 44.742 85.2388 45.2842 85.2388 45.9486C85.2388 46.3839 85.336 46.7809 85.5377 47.1399C85.7322 47.4933 85.9823 47.7687 86.2946 47.9659L86.3296 47.9875C86.6466 48.1863 86.9913 48.2857 87.3639 48.2926L87.4054 48.293C88.3169 48.3082 88.9743 47.8882 89.3852 47.0482ZM76.6772 33.6692C76.9686 33.4096 77.3048 33.2798 77.6783 33.2798C78.0369 33.2798 78.3656 33.4096 78.6495 33.6692C78.9334 33.9289 79.0828 34.2496 79.0828 34.6314C79.0828 35.0132 78.9409 35.334 78.6495 35.586C78.3656 35.838 78.0369 35.9678 77.6783 35.9678C77.3048 35.9678 76.9686 35.838 76.6772 35.586C76.3858 35.334 76.2364 35.0132 76.2364 34.6314C76.2364 34.2496 76.3858 33.9289 76.6772 33.6692Z" fill="#05C1DB"/>
</svg>
