<svg width="26" height="25" viewBox="0 0 26 25" xmlns="http://www.w3.org/2000/svg"><path d="M8.317.5C4.002.5.5 3.94.5 8.188c0 4.247 3.502 7.687 7.817 7.687s7.817-3.44 7.817-7.688C16.134 3.94 12.632.5 8.317.5zm0 1c3.767 0 6.817 2.996 6.817 6.688 0 3.69-3.05 6.687-6.817 6.687-3.767 0-6.817-2.996-6.817-6.688C1.5 4.498 4.55 1.5 8.317 1.5zm15.22 5.325c-1.083 0-1.964.865-1.964 1.937 0 1.073.881 1.938 1.964 1.938 1.082 0 1.963-.865 1.963-1.938 0-1.072-.881-1.937-1.963-1.937zm0 1a.95.95 0 01.963.937.95.95 0 01-.963.938.95.95 0 01-.964-.938.95.95 0 01.964-.937zM19.146 9.7c-1.89 0-3.426 1.51-3.426 3.375 0 1.866 1.536 3.375 3.426 3.375 1.891 0 3.427-1.51 3.427-3.375 0-1.866-1.536-3.375-3.427-3.375zm0 1c1.343 0 2.427 1.065 2.427 2.375s-1.084 2.375-2.427 2.375c-1.342 0-2.426-1.065-2.426-2.375s1.084-2.375 2.426-2.375zm0 5.9c-2.214 0-4.012 1.766-4.012 3.95s1.798 3.95 4.012 3.95c2.214 0 4.013-1.766 4.013-3.95 0-2.183-1.799-3.95-4.013-3.95zm0 1c1.666 0 3.013 1.323 3.013 2.95 0 1.627-1.347 2.95-3.013 2.95-1.665 0-3.012-1.323-3.012-2.95 0-1.627 1.347-2.95 3.012-2.95z" fill="primary"/></svg>