<svg width="128" height="38" viewBox="0 0 128 38" fill="none" xmlns="http://www.w3.org/2000/svg">
<path d="M123.259 38H4.74074C2.13333 38 0 35.8625 0 33.25V4.75003C0 2.13753 2.13333 3.05176e-05 4.74074 3.05176e-05H123.259C125.867 3.05176e-05 128 2.13753 128 4.75003V33.25C128 35.8625 125.867 38 123.259 38Z" fill="#333333"/>
<path d="M101.391 28.5001H103.16V16.6239H101.391V28.5001ZM117.327 20.902L115.299 26.0509H115.238L113.133 20.902H111.227L114.384 28.0985L112.584 32.1015H114.43L119.294 20.902H117.327ZM107.293 27.1512C106.713 27.1512 105.905 26.8609 105.905 26.1426C105.905 25.2259 106.912 24.8745 107.781 24.8745C108.559 24.8745 108.924 25.0426 109.397 25.272C109.26 26.3719 108.315 27.1512 107.293 27.1512ZM107.507 20.6422C106.226 20.6422 104.899 21.2077 104.35 22.4605L105.921 23.1174C106.256 22.4605 106.881 22.2464 107.537 22.2464C108.452 22.2464 109.382 22.7968 109.397 23.7746V23.8967C109.077 23.7133 108.391 23.4384 107.552 23.4384C105.86 23.4384 104.136 24.3701 104.136 26.1121C104.136 27.7011 105.524 28.7249 107.079 28.7249C108.269 28.7249 108.924 28.1902 109.337 27.5639H109.397V28.4804H111.105V23.9271C111.105 21.8189 109.535 20.6422 107.507 20.6422ZM96.5727 22.3477H94.0564V18.2768H96.5727C97.8954 18.2768 98.6463 19.3741 98.6463 20.3122C98.6463 21.2326 97.8954 22.3477 96.5727 22.3477ZM96.5272 16.6239H92.2881V28.5001H94.0564V24.0006H96.5272C98.488 24.0006 100.416 22.5782 100.416 20.3122C100.416 18.0464 98.488 16.6239 96.5272 16.6239ZM73.4104 27.1534C72.1882 27.1534 71.1648 26.128 71.1648 24.7197C71.1648 23.2966 72.1882 22.2557 73.4104 22.2557C74.6171 22.2557 75.5641 23.2966 75.5641 24.7197C75.5641 26.128 74.6171 27.1534 73.4104 27.1534ZM75.4419 21.567H75.3808C74.9838 21.0926 74.2197 20.6641 73.2575 20.6641C71.2411 20.6641 69.393 22.4394 69.393 24.7197C69.393 26.9849 71.2411 28.745 73.2575 28.745C74.2197 28.745 74.9838 28.3163 75.3808 27.8269H75.4419V28.4084C75.4419 29.9544 74.6171 30.7808 73.2882 30.7808C72.2037 30.7808 71.5316 30 71.2563 29.3421L69.7138 29.9848C70.1568 31.0561 71.333 32.3725 73.2882 32.3725C75.3656 32.3725 77.1222 31.1478 77.1222 28.1635V20.909H75.4419V21.567ZM78.3441 28.5001H80.116V16.6236H78.3441V28.5001ZM82.7282 24.5821C82.6823 23.0209 83.9349 22.2252 84.836 22.2252C85.5391 22.2252 86.1346 22.577 86.3327 23.0825L82.7282 24.5821ZM88.2271 23.2354C87.8915 22.3321 86.8675 20.6641 84.7748 20.6641C82.6974 20.6641 80.9715 22.3017 80.9715 24.7045C80.9715 26.9697 82.6823 28.745 84.9734 28.745C86.822 28.745 87.8915 27.6124 88.3343 26.9544L86.9595 26.036C86.5015 26.7095 85.8748 27.1534 84.9734 27.1534C84.0723 27.1534 83.4308 26.74 83.0182 25.9291L88.4101 23.6944L88.2271 23.2354ZM45.2682 21.9038V23.6179H49.3619C49.2396 24.5821 48.9189 25.286 48.43 25.7759C47.8345 26.3729 46.9027 27.0309 45.2682 27.0309C42.7478 27.0309 40.7774 24.9954 40.7774 22.4701C40.7774 19.9449 42.7478 17.9091 45.2682 17.9091C46.6278 17.9091 47.6204 18.4449 48.3537 19.1336L49.5604 17.9247C48.5371 16.9449 47.1774 16.195 45.2682 16.195C41.8159 16.195 38.9137 19.0112 38.9137 22.4701C38.9137 25.9291 41.8159 28.745 45.2682 28.745C47.1319 28.745 48.5371 28.1331 49.6367 26.9849C50.7671 25.8523 51.1186 24.2607 51.1186 22.9753C51.1186 22.577 51.0882 22.21 51.0267 21.9038H45.2682ZM55.7727 27.1534C54.5504 27.1534 53.4964 26.1432 53.4964 24.7045C53.4964 23.2506 54.5504 22.2557 55.7727 22.2557C56.9945 22.2557 58.0485 23.2506 58.0485 24.7045C58.0485 26.1432 56.9945 27.1534 55.7727 27.1534ZM55.7727 20.6641C53.5422 20.6641 51.7245 22.3629 51.7245 24.7045C51.7245 27.0309 53.5422 28.745 55.7727 28.745C58.0026 28.745 59.8204 27.0309 59.8204 24.7045C59.8204 22.3629 58.0026 20.6641 55.7727 20.6641ZM64.603 27.1534C63.3812 27.1534 62.327 26.1432 62.327 24.7045C62.327 23.2506 63.3812 22.2557 64.603 22.2557C65.8249 22.2557 66.8789 23.2506 66.8789 24.7045C66.8789 26.1432 65.8249 27.1534 64.603 27.1534ZM64.603 20.6641C62.3726 20.6641 60.5552 22.3629 60.5552 24.7045C60.5552 27.0309 62.3726 28.745 64.603 28.745C66.833 28.745 68.6508 27.0309 68.6508 24.7045C68.6508 22.3629 66.833 20.6641 64.603 20.6641Z" fill="white"/>
<path d="M9.96486 30.7701L9.89441 30.7025C9.6185 30.41 9.45561 29.9558 9.45561 29.3677V29.5061V8.49591C9.45561 8.49401 9.45561 8.49259 9.45561 8.49107C9.45561 8.49287 9.45561 8.49439 9.45561 8.49629V8.63508C9.45561 7.99821 9.64553 7.51846 9.96372 7.2308L21.7111 19.0008L9.96486 30.7701ZM9.45561 8.48993C9.45561 8.43758 9.45703 8.38675 9.45969 8.33669C9.45703 8.38638 9.45561 8.43758 9.45561 8.48993ZM9.45969 8.33441C9.45969 8.33375 9.45969 8.33298 9.45997 8.33223C9.45969 8.33298 9.45969 8.33375 9.45969 8.33441ZM9.45997 8.32776C9.45997 8.32738 9.45997 8.327 9.45997 8.32662C9.45997 8.327 9.45997 8.32738 9.45997 8.32776Z" fill="url(#paint0_linear_896_8750)"/>
<path d="M25.6262 23.0646L25.7155 23.0138L30.3547 20.3727C30.797 20.1207 31.0918 19.8153 31.2389 19.4921C31.0922 19.8153 30.7973 20.1211 30.3547 20.3731L25.7155 23.0142L25.6262 23.0646ZM25.6274 22.9254L21.711 19.0008L25.627 15.0768L30.3547 17.768C30.9551 18.1098 31.2922 18.5503 31.3485 19.0004C31.3485 19.0008 31.3485 19.0016 31.3485 19.0022C31.2922 19.4513 30.9551 19.8922 30.3547 20.2339L25.6274 22.9254Z" fill="url(#paint1_linear_896_8750)"/>
<path d="M10.8023 31.2183C10.4741 31.2183 10.1878 31.1114 9.96452 30.9096L9.9649 30.9092C10.1882 31.1111 10.4749 31.2183 10.8031 31.2183C10.8315 31.2183 10.8604 31.2176 10.8897 31.2161C10.86 31.2176 10.8307 31.2183 10.8023 31.2183ZM10.8027 31.0791C10.4745 31.0795 10.1882 30.9723 9.9649 30.7704V30.7701L21.7111 19.0008L25.6274 22.9255L11.8649 30.7604C11.4841 30.9767 11.1233 31.0791 10.8027 31.0791ZM9.96158 30.907C9.94081 30.8881 9.92043 30.8681 9.90042 30.8473L9.96158 30.907Z" fill="url(#paint2_linear_896_8750)"/>
<path d="M21.7111 19.0007L9.9637 7.23072C10.187 7.02922 10.4729 6.92235 10.8007 6.92235C11.1222 6.92235 11.4833 7.02514 11.8648 7.24183L25.627 15.0768L21.7111 19.0007ZM25.7156 14.9881L11.8648 7.10313C11.4833 6.88634 11.1222 6.78355 10.8007 6.78355C10.7992 6.78355 10.7982 6.78355 10.7966 6.78355C10.7985 6.78355 10.8 6.78355 10.8022 6.78355C11.123 6.78355 11.4837 6.88596 11.8648 7.10275L25.7156 14.9881Z" fill="url(#paint3_linear_896_8750)"/>
<path d="M10.8896 31.216C11.1877 31.1989 11.5178 31.0961 11.8648 30.8991L25.6262 23.0645L11.8648 30.8991C11.5181 31.0965 11.1877 31.1989 10.8896 31.216ZM9.96443 30.9094L9.96149 30.9068C9.96254 30.9076 9.96367 30.9086 9.96443 30.9094ZM9.90034 30.8471L9.89436 30.8412V30.8408C9.89664 30.843 9.89844 30.8452 9.90034 30.8471Z" fill="#333333"/>
<path d="M25.6263 23.0646L25.7158 23.0138L25.6263 23.0646Z" fill="url(#paint4_linear_896_8750)"/>
<path d="M10.803 31.2183C10.4748 31.2183 10.1881 31.1111 9.96481 30.9092L9.96443 30.9096C9.96367 30.9088 9.96254 30.9078 9.96149 30.907L9.90034 30.8473C9.89844 30.8454 9.89664 30.8432 9.89436 30.841L9.96481 30.7704C10.1881 30.9723 10.4744 31.0795 10.8026 31.0791C11.1233 31.0791 11.484 30.9767 11.8648 30.7604L25.6274 22.9255L25.7155 23.0138L25.6262 23.0647L11.8648 30.8992C11.5178 31.0962 11.1877 31.199 10.8896 31.2161C10.8603 31.2176 10.8314 31.2183 10.803 31.2183Z" fill="url(#paint5_linear_896_8750)"/>
<path d="M9.89527 30.8413C9.61882 30.5488 9.45561 30.0946 9.45561 29.5064V29.5061C9.45561 30.0946 9.61882 30.5484 9.89527 30.8409V30.8413Z" fill="#333333"/>
<path d="M9.89527 30.8409C9.61882 30.5484 9.45561 30.0946 9.45561 29.5061V29.3677C9.45561 29.9558 9.61882 30.41 9.89527 30.7025L9.96586 30.7701L9.89527 30.8409Z" fill="url(#paint6_linear_896_8750)"/>
<path d="M9.89436 30.8409L9.96495 30.7701V30.7704L9.89436 30.8409Z" fill="url(#paint7_linear_896_8750)"/>
<path d="M31.239 19.4921C31.312 19.3317 31.3488 19.167 31.3488 19.0022C31.3488 19.0019 31.3488 19.0015 31.3488 19.0015C31.3488 19.1666 31.312 19.3314 31.239 19.4921Z" fill="#333333"/>
<path d="M25.7157 23.0138L25.6275 22.9254L30.3549 20.2339C30.9552 19.8922 31.2923 19.4513 31.3486 19.0022C31.3486 19.167 31.3119 19.3318 31.239 19.4921C31.092 19.8153 30.7972 20.1208 30.3549 20.3727L25.7157 23.0138Z" fill="url(#paint8_linear_896_8750)"/>
<path d="M31.3485 19.0007V19.0004C31.3482 18.5034 31.0167 18.0066 30.3548 17.6295L25.7156 14.9884H25.7152L25.7156 14.9881L30.3548 17.6291C31.0174 18.0062 31.3493 18.5038 31.3485 19.0007Z" fill="#333333"/>
<path d="M31.3485 19.0004C31.2922 18.5503 30.9552 18.1097 30.3548 17.7679L25.627 15.0768L25.7152 14.9884H25.7156L30.3548 17.6295C31.0167 18.0066 31.3482 18.5034 31.3485 19.0004Z" fill="url(#paint9_linear_896_8750)"/>
<path d="M9.45561 8.49103C9.45561 8.49065 9.45561 8.49027 9.45561 8.48989C9.45561 8.49027 9.45561 8.49065 9.45561 8.49103ZM9.45969 8.33665C9.45969 8.33589 9.45969 8.33513 9.45969 8.33437C9.45969 8.33513 9.45969 8.33589 9.45969 8.33665ZM9.45997 8.33219C9.45997 8.33067 9.45997 8.32924 9.45997 8.32772C9.45997 8.32924 9.45997 8.33067 9.45997 8.33219ZM9.45997 8.32658C9.51487 7.35065 10.0445 6.78692 10.7937 6.78359C10.4689 6.78549 10.186 6.89237 9.96448 7.09234V7.09196L9.96183 7.09462C9.9385 7.11571 9.91632 7.13804 9.89441 7.16103C9.64553 7.42484 9.48851 7.82004 9.45997 8.32658Z" fill="#333333"/>
<path d="M9.45561 8.63507V8.49628C9.45561 8.49438 9.45561 8.49286 9.45561 8.49105C9.45561 8.49067 9.45561 8.49029 9.45561 8.48991C9.45561 8.43757 9.45704 8.38636 9.4597 8.33668C9.4597 8.33592 9.4597 8.33516 9.4597 8.3344C9.4597 8.33373 9.4597 8.33297 9.45998 8.33221C9.45998 8.33069 9.45998 8.32927 9.45998 8.32775C9.45998 8.32737 9.45998 8.32699 9.45998 8.32661C9.48858 7.82007 9.6459 7.42487 9.89527 7.16105L9.96472 7.23078C9.6459 7.51844 9.45561 7.99819 9.45561 8.63507ZM9.96282 7.09464L9.96548 7.09199C9.96472 7.09313 9.96358 7.09388 9.96282 7.09464Z" fill="url(#paint10_linear_896_8750)"/>
<path d="M25.627 15.0767L11.8648 7.24179C11.4833 7.02509 11.1222 6.9223 10.8007 6.9223C10.4729 6.9223 10.187 7.02918 9.96367 7.23067L9.89436 7.16094C9.91627 7.13795 9.93845 7.11563 9.96178 7.09454C9.96254 7.09378 9.96367 7.09302 9.96443 7.09226C10.1859 6.89228 10.4688 6.78541 10.7937 6.78351C10.7944 6.78351 10.7955 6.78351 10.7966 6.78351C10.7981 6.78351 10.7992 6.78351 10.8007 6.78351C11.1222 6.78351 11.4833 6.8863 11.8648 7.10309L25.7155 14.9881L25.7152 14.9884L25.627 15.0767Z" fill="url(#paint11_linear_896_8750)"/>
<path d="M39.8705 11.6497H40.8797C41.536 11.6497 42.0564 11.4612 42.4408 11.0842C42.8253 10.7075 43.0167 10.179 43.0167 9.49997C43.0167 8.82604 42.8253 8.29946 42.4408 7.91946C42.0564 7.5406 41.536 7.35022 40.8797 7.35022H39.8705V11.6497ZM39.1401 12.35V6.64997H40.8797C41.7538 6.64997 42.4527 6.91379 42.9778 7.44227C43.502 7.97 43.7638 8.65571 43.7638 9.49997C43.7638 10.3439 43.502 11.03 42.9778 11.5577C42.4527 12.0862 41.7538 12.35 40.8797 12.35H39.1401Z" fill="white"/>
<path d="M39.8704 11.6498V11.7448H40.8796C41.5533 11.7455 42.1034 11.5492 42.507 11.1522C42.913 10.7547 43.1122 10.1962 43.1114 9.50001C43.1122 8.80907 42.913 8.25199 42.5074 7.85195C42.1034 7.45266 41.5537 7.25449 40.8796 7.25525H39.8704H39.7756V11.7448H39.8704V11.6498H39.9652V7.44525H40.8796C41.5185 7.44639 42.0096 7.6286 42.3744 7.98742L42.3741 7.98704C42.737 8.34699 42.9211 8.84318 42.9218 9.50001C42.9211 10.1621 42.737 10.6601 42.3744 11.0163C42.0096 11.3733 41.5189 11.5536 40.8796 11.5548H39.8704V11.6498H39.9652H39.8704ZM39.14 12.35H39.2348V6.74501H40.8796C41.7352 6.74577 42.404 7.00065 42.9107 7.50947C43.4159 8.01934 43.6682 8.67503 43.6688 9.50001C43.6682 10.3246 43.4159 10.9807 42.9103 11.4905C42.404 11.9994 41.7352 12.2542 40.8796 12.255H39.14V12.35H39.2348H39.14V12.445H40.8796C41.7722 12.4458 42.5015 12.173 43.0448 11.6249C43.5878 11.079 43.8596 10.3628 43.8585 9.50001C43.8596 8.63646 43.5878 7.92101 43.0448 7.37552C42.5015 6.82699 41.7722 6.55425 40.8796 6.55501H39.0452V12.445H39.14V12.35Z" fill="white"/>
<path d="M44.79 12.35V6.64997H45.5203V12.35H44.79Z" fill="white"/>
<path d="M44.7901 12.35H44.8849V6.74501H45.4256V12.255H44.7901V12.35H44.8849H44.7901V12.445H45.5205H45.6153V6.55501H44.7901H44.6953V12.445H44.7901V12.35Z" fill="white"/>
<path d="M48.4277 12.4773C48.0147 12.4773 47.611 12.3422 47.2166 12.0716C46.821 11.8008 46.5629 11.4216 46.4415 10.9328L47.1092 10.6622C47.1888 10.9754 47.3507 11.2396 47.5974 11.4541C47.8444 11.669 48.1204 11.7767 48.4277 11.7767C48.7451 11.7767 49.0173 11.6932 49.2425 11.5262C49.4677 11.3591 49.5796 11.1321 49.5796 10.8452C49.5796 10.5271 49.4677 10.2816 49.2425 10.1089C49.0173 9.93643 48.6611 9.77606 48.174 9.62729C47.6703 9.46845 47.2888 9.26249 47.0296 9.01017C46.7703 8.75814 46.6395 8.43609 46.6395 8.04307C46.6395 7.6341 46.8018 7.27899 47.1248 6.97651C47.4481 6.67413 47.8692 6.52232 48.3881 6.52232C48.8703 6.52232 49.2622 6.64372 49.5636 6.88493C49.8659 7.12651 50.0618 7.39033 50.1518 7.67714L49.4851 7.95511C49.437 7.77556 49.3196 7.60778 49.1315 7.45379C48.9433 7.30055 48.7011 7.22332 48.4037 7.22332C48.1233 7.22332 47.8833 7.30122 47.6852 7.45825C47.4859 7.61481 47.387 7.80966 47.387 8.04307C47.387 8.2553 47.4788 8.43457 47.6611 8.5804C47.8444 8.72622 48.1129 8.85798 48.4678 8.97455C48.7481 9.06508 48.9821 9.1523 49.1714 9.23723C49.3592 9.32187 49.55 9.43501 49.7425 9.57571C49.9363 9.71593 50.0814 9.89149 50.1795 10.1012C50.2777 10.3108 50.327 10.5535 50.327 10.8292C50.327 11.1053 50.2703 11.3521 50.1562 11.5696C50.0425 11.7878 49.8906 11.96 49.7029 12.0872C49.5148 12.2145 49.3129 12.3114 49.0955 12.3778C48.8777 12.4442 48.6555 12.4773 48.4277 12.4773Z" fill="white"/>
<path d="M48.4277 12.4774V12.3824C48.0359 12.382 47.6521 12.2551 47.2703 11.9935C46.8932 11.7345 46.6507 11.3789 46.5336 10.9103L46.4415 10.9329L46.477 11.0212L47.1447 10.7507L47.1091 10.6623L47.0174 10.6861C47.1011 11.0168 47.2748 11.2999 47.5348 11.5259L47.5351 11.5262C47.7963 11.7538 48.0977 11.8725 48.4277 11.8718C48.7614 11.8721 49.0566 11.7827 49.2988 11.6027C49.5463 11.4213 49.6763 11.1566 49.6744 10.8453C49.6763 10.5054 49.5492 10.2229 49.3003 10.0337C49.0592 9.84969 48.6947 9.68752 48.2018 9.53647H48.2026C47.7077 9.38096 47.3395 9.18022 47.0955 8.94196C46.8551 8.70703 46.7355 8.415 46.7343 8.04317C46.7355 7.66022 46.8825 7.33513 47.1895 7.04605C47.4944 6.76181 47.8874 6.61817 48.3881 6.61741C48.8552 6.61779 49.2226 6.73397 49.5047 6.95922C49.7962 7.19263 49.9784 7.44125 50.0614 7.70544L50.1518 7.67723L50.1155 7.58935L49.4484 7.86761L49.4851 7.9552L49.5766 7.93069C49.5222 7.72701 49.3903 7.5429 49.1914 7.38035C48.984 7.21078 48.7166 7.12803 48.4037 7.12841C48.1058 7.12803 47.8418 7.21268 47.6263 7.38377L47.6266 7.38339C47.4089 7.55297 47.2907 7.78192 47.2921 8.04317C47.2907 8.28361 47.4015 8.49632 47.6018 8.65478L47.6022 8.65506C47.7992 8.81134 48.0766 8.94605 48.4381 9.0648L48.4384 9.06518C48.7166 9.15457 48.9481 9.24102 49.1321 9.32415H49.1325C49.3133 9.40547 49.4985 9.51529 49.6866 9.65256H49.687C49.8681 9.78433 50.0021 9.94611 50.0936 10.1417C50.1851 10.3366 50.2322 10.5648 50.2322 10.8293C50.2318 11.0929 50.1785 11.3229 50.0725 11.5259C49.9648 11.7311 49.824 11.8903 49.6495 12.0087C49.4692 12.1307 49.2762 12.2235 49.0677 12.287C48.8589 12.3508 48.6462 12.3824 48.4277 12.3824V12.4774V12.5724C48.6648 12.5724 48.8966 12.5379 49.1229 12.4688C49.3495 12.3998 49.5603 12.2985 49.7559 12.1664V12.166C49.957 12.0298 50.1199 11.8447 50.2403 11.6138C50.3622 11.3816 50.4218 11.1184 50.4218 10.8293C50.4218 10.5425 50.3703 10.2854 50.2655 10.0608C50.1607 9.83705 50.004 9.64781 49.7981 9.49857L49.7985 9.49895C49.6014 9.35502 49.4051 9.23846 49.21 9.15087L49.2092 9.15049L49.2103 9.15087C49.0166 9.06328 48.7796 8.9754 48.4966 8.88411H48.497C48.1488 8.77011 47.8896 8.64138 47.7199 8.50629H47.7203C47.5558 8.37272 47.4833 8.22728 47.4818 8.04317C47.4833 7.83759 47.5633 7.67694 47.7436 7.53292L47.744 7.53254C47.9247 7.39004 48.1403 7.31879 48.4037 7.31841C48.6852 7.31879 48.9029 7.39004 49.0714 7.5277L49.0726 7.52846L49.0714 7.52732C49.2485 7.67286 49.3518 7.82381 49.3936 7.98009L49.4214 8.08478L50.1881 7.76482L50.2681 7.73147L50.2421 7.64873C50.1455 7.3396 49.9351 7.06049 49.6229 6.81035C49.3015 6.55319 48.8855 6.42703 48.3881 6.42741C47.8514 6.42665 47.4021 6.58663 47.0603 6.90725C46.7211 7.22303 46.544 7.60864 46.5447 8.04317C46.544 8.45699 46.6859 8.80982 46.9636 9.07848C47.2381 9.34495 47.6329 9.55614 48.1455 9.71792H48.1462C48.6273 9.86489 48.9759 10.0237 49.1851 10.1844C49.3858 10.3406 49.4829 10.5488 49.4847 10.8453C49.4829 11.1073 49.3888 11.2973 49.1863 11.4498C48.9784 11.6039 48.7289 11.6814 48.4277 11.6818C48.1429 11.681 47.8925 11.5845 47.6592 11.3826C47.4266 11.1793 47.2766 10.9348 47.201 10.6389L47.1744 10.5336L46.4062 10.8449L46.3296 10.8757L46.3496 10.9559C46.4751 11.4639 46.7488 11.8673 47.1633 12.1501C47.5699 12.4295 47.9937 12.5724 48.4277 12.5724V12.4774Z" fill="white"/>
<path d="M52.1068 9.34038H53.3309C53.6383 9.34038 53.8846 9.2372 54.0698 9.03058C54.255 8.8231 54.3471 8.59557 54.3471 8.34591C54.3471 8.09654 54.255 7.86787 54.0698 7.66125C53.8846 7.45377 53.6383 7.35022 53.3309 7.35022H52.1068V9.34038ZM52.1068 12.35H51.376V6.64997H53.315C53.7964 6.64997 54.2138 6.81024 54.5657 7.13125C54.9187 7.45225 55.0945 7.85752 55.0945 8.34591C55.0945 8.83383 54.9187 9.23834 54.5657 9.55935C54.2138 9.88073 53.7964 10.0414 53.315 10.0414H52.1068V12.35Z" fill="white"/>
<path d="M52.1067 9.34041V9.43541H53.3308C53.6586 9.43655 53.9378 9.3215 54.14 9.09407C54.3382 8.8732 54.4426 8.61936 54.4418 8.34595C54.4426 8.07244 54.3382 7.81822 54.14 7.59782C53.9378 7.36954 53.6589 7.25411 53.3308 7.25525H52.1067H52.0115V9.43541H52.1067V9.34041H52.2015V7.44525H53.3308C53.617 7.44677 53.8308 7.53807 53.999 7.72465C54.1711 7.91807 54.2519 8.12032 54.2522 8.34595C54.2519 8.57157 54.1711 8.77307 53.999 8.96715C53.8308 9.15345 53.6174 9.24436 53.3308 9.24541H52.1067V9.34041H52.2015H52.1067ZM52.1067 12.35V12.255H51.4707V6.74501H53.3149C53.7752 6.74577 54.1655 6.89606 54.5019 7.20186C54.836 7.50719 54.9986 7.88016 54.9996 8.34595C54.9986 8.81088 54.836 9.18347 54.5019 9.48927C54.1655 9.79536 53.7752 9.94565 53.3149 9.94641H52.1067H52.0115V12.35H52.1067V12.255V12.35H52.2015V10.1364H53.3149C53.8174 10.1372 54.2623 9.96608 54.6297 9.62949C55.0012 9.29329 55.1904 8.85686 55.1893 8.34595C55.1904 7.83456 55.0012 7.39775 54.6297 7.06117C54.2623 6.72496 53.8174 6.55425 53.3149 6.55501H51.2811V12.445H52.1067H52.2015V12.35H52.1067Z" fill="white"/>
<path d="M57.0363 11.1362C57.4574 11.5633 57.9722 11.7767 58.5815 11.7767C59.1907 11.7767 59.7067 11.5633 60.1266 11.1362C60.5481 10.7091 60.7592 10.1631 60.7592 9.49999C60.7592 8.83689 60.5481 8.29093 60.1266 7.86381C59.7067 7.43669 59.1907 7.22332 58.5815 7.22332C57.9722 7.22332 57.4574 7.43669 57.0363 7.86381C56.6155 8.29093 56.4048 8.83689 56.4048 9.49999C56.4048 10.1631 56.6155 10.7091 57.0363 11.1362ZM60.6677 11.6134C60.1081 12.1896 59.4129 12.4773 58.5815 12.4773C57.75 12.4773 57.0544 12.1896 56.4962 11.6134C55.937 11.0378 55.6582 10.3331 55.6582 9.49999C55.6582 8.66684 55.937 7.96213 56.4962 7.38662C57.0544 6.81026 57.75 6.52232 58.5815 6.52232C59.4081 6.52232 60.1018 6.81178 60.6637 7.39033C61.2247 7.96888 61.5055 8.67207 61.5055 9.49999C61.5055 10.3331 61.2259 11.0378 60.6677 11.6134Z" fill="white"/>
<path d="M57.0364 11.1363L56.9686 11.2031C57.4056 11.6473 57.9501 11.8729 58.5816 11.8718C59.2131 11.8729 59.7587 11.6473 60.1945 11.2031C60.6338 10.7585 60.8549 10.1832 60.8542 9.50009C60.8549 8.81694 60.6338 8.24172 60.1945 7.79712L60.1931 7.79598L60.1945 7.79712C59.7587 7.3529 59.2131 7.12727 58.5816 7.12841C57.9501 7.12727 57.4056 7.3529 56.9686 7.79712L56.9657 7.80044L56.9686 7.79712C56.5301 8.24172 56.309 8.81694 56.3101 9.50009C56.309 10.1832 56.5301 10.7585 56.9686 11.2031L57.0364 11.1363L57.1038 11.0695C56.7015 10.6594 56.5004 10.1435 56.4998 9.50009C56.5004 8.85665 56.7015 8.3408 57.1038 7.93069C57.5094 7.52067 57.9945 7.31955 58.5816 7.31841C59.1686 7.31955 59.6546 7.52067 60.0594 7.93069C60.4627 8.3408 60.6639 8.85665 60.6645 9.50009C60.6639 10.1435 60.4627 10.6594 60.0594 11.0695C59.6546 11.4795 59.1686 11.6806 58.5816 11.6818C57.9945 11.6806 57.5094 11.4795 57.1038 11.0695L57.0364 11.1363ZM60.6679 11.6135L60.5998 11.5474C60.0564 12.1056 59.3913 12.3812 58.5816 12.3824C57.772 12.3812 57.1068 12.1056 56.5645 11.5474H56.5642C56.0219 10.9874 55.7542 10.3121 55.7531 9.50009C55.7542 8.68812 56.0219 8.01277 56.5642 7.45274H56.5645C57.1068 6.89462 57.772 6.61855 58.5816 6.61741C59.3864 6.61855 60.0498 6.89576 60.5961 7.45683C61.1405 8.01942 61.4102 8.69373 61.4108 9.50009C61.4102 10.3121 61.1413 10.9874 60.5998 11.5474L60.6679 11.6135L60.7356 11.6795C61.3109 11.088 61.6012 10.3543 61.6005 9.50009C61.6012 8.65069 61.3098 7.91853 60.732 7.3244C60.1542 6.72799 59.4305 6.42636 58.5816 6.42741C57.7283 6.42636 57.0027 6.72656 56.4283 7.32069L56.4287 7.32031C55.8523 7.91216 55.5627 8.64585 55.5635 9.50009C55.5627 10.3543 55.8523 11.088 56.4287 11.6799L56.4308 11.6825L56.4283 11.6795C57.0027 12.2736 57.7283 12.5731 58.5816 12.5724C59.435 12.5731 60.1605 12.2736 60.7356 11.6795L60.6679 11.6135Z" fill="white"/>
<path d="M62.5315 12.35V6.64997H63.4211L66.1863 11.0842H66.2178L66.1863 9.98571V6.64997H66.9174V12.35H66.1548L63.2622 7.70087H63.2307L63.2622 8.79973V12.35H62.5315Z" fill="white"/>
<path d="M62.5316 12.35H62.6264V6.74501H63.369L66.1338 11.1792H66.2179H66.3153L66.2809 9.98432L66.2813 6.74501H66.8227V12.255H66.2071L63.3149 7.6059H63.2309H63.133L63.1675 8.8009V12.255H62.5316V12.35H62.6264H62.5316V12.445H63.2623H63.3572V8.79824L63.3253 7.69833L63.2309 7.7009V7.7959H63.2623V7.7009L63.1816 7.75144L66.1023 12.445H66.9176H67.0124V6.55501H66.1864H66.0916V9.98688L66.1231 11.0868L66.2179 11.0842V10.9892H66.1864V11.0842L66.2667 11.0338L63.4738 6.55501H62.5316H62.4368V12.445H62.5316V12.35Z" fill="white"/>
<path d="M68.2204 12.35V6.64997H68.9512V12.35H68.2204Z" fill="white"/>
<path d="M68.2203 12.35H68.3151V6.74501H68.8562V12.255H68.2203V12.35H68.3151H68.2203V12.445H68.9511H69.0459V6.55501H68.2203H68.1255V12.445H68.2203V12.35Z" fill="white"/>
<path d="M70.9841 11.6497H72.4548C72.7352 11.6497 72.9629 11.5514 73.1382 11.3544C73.313 11.1588 73.4 10.9435 73.4 10.7097C73.4 10.4763 73.31 10.2629 73.1296 10.0692C72.95 9.87551 72.7137 9.77832 72.4222 9.77832H70.9841V11.6497ZM70.9841 9.09366H72.3111C72.587 9.09366 72.8081 9.00274 72.9748 8.81901C73.1419 8.63604 73.2252 8.43607 73.2252 8.21823C73.2252 8.00078 73.1444 7.80109 72.9822 7.62154C72.8211 7.44075 72.6085 7.35022 72.3433 7.35022H70.9841V9.09366ZM70.2537 12.35V6.64997H72.3111C72.7566 6.64997 73.1419 6.7977 73.4677 7.09154C73.7937 7.38661 73.9567 7.75653 73.9567 8.20227C73.9567 8.47274 73.8863 8.71176 73.7452 8.91886C73.6056 9.12586 73.4185 9.28252 73.1852 9.38863V9.42018C73.4659 9.51556 73.6963 9.68029 73.8771 9.9137C74.0563 10.1475 74.1471 10.4184 74.1471 10.726C74.1471 11.1929 73.9759 11.5803 73.634 11.888C73.2926 12.196 72.8889 12.35 72.4222 12.35H70.2537Z" fill="white"/>
<path d="M70.9839 11.6498V11.7448H72.4547C72.7569 11.7459 73.0173 11.6346 73.2088 11.4178H73.2084C73.3962 11.2089 73.4954 10.9677 73.4947 10.7097C73.4954 10.4515 73.3925 10.2114 73.1988 10.0044C73.0021 9.79089 72.7343 9.68221 72.4221 9.68335H70.8891V11.7448H70.9839V11.6498H71.0788V9.87335H72.4221C72.6933 9.8744 72.8977 9.96056 73.0603 10.1338C73.2276 10.3149 73.3043 10.5016 73.3051 10.7097C73.3043 10.9194 73.2295 11.1087 73.0673 11.2912H73.0669C72.9084 11.4679 72.7132 11.5532 72.4547 11.5548H70.9839V11.6498H71.0788H70.9839ZM70.9839 9.09369V9.18869H72.311C72.6073 9.18973 72.861 9.08732 73.045 8.88288L73.0447 8.88326C73.2243 8.68728 73.3203 8.46089 73.3199 8.21826C73.3203 7.97706 73.228 7.75143 73.0528 7.55773V7.55811C72.875 7.3569 72.6296 7.25411 72.3432 7.25525H70.8891V9.18869H70.9839V9.09369H71.0788V7.44525H72.3432C72.5869 7.44677 72.7673 7.52467 72.9117 7.68465V7.68503C73.0607 7.85128 73.1295 8.02494 73.1303 8.21826C73.1295 8.41083 73.0588 8.58525 72.9051 8.75483L72.9047 8.75521C72.7555 8.91813 72.5666 8.99755 72.311 8.99869H70.9839V9.09369H71.0788H70.9839ZM70.2536 12.35H70.3484V6.745H72.311C72.7355 6.74576 73.0936 6.88304 73.404 7.16215C73.7114 7.44192 73.8602 7.78003 73.8618 8.2023C73.8614 8.45652 73.7965 8.67436 73.6669 8.86541H73.6665C73.5362 9.05845 73.3647 9.20237 73.1458 9.30221L73.0903 9.32748V9.4202V9.48813L73.1547 9.50998C73.4188 9.60061 73.6317 9.7527 73.8017 9.97206V9.97168C73.9688 10.1899 74.0518 10.437 74.0522 10.7261C74.051 11.1699 73.894 11.525 73.5706 11.8175C73.2447 12.1103 72.868 12.2542 72.4221 12.255H70.2536V12.35H70.3484H70.2536V12.445H72.4221C72.9095 12.4458 73.3403 12.2817 73.6976 11.9585C74.0577 11.636 74.2432 11.2163 74.2418 10.7261C74.2424 10.3999 74.1439 10.1052 73.9517 9.85587V9.85549C73.7606 9.6084 73.5125 9.43094 73.2154 9.33043L73.1851 9.4202H73.2799V9.38867H73.1851L73.2243 9.47512C73.4721 9.36273 73.6747 9.19382 73.8239 8.9719L73.8236 8.97228C73.9754 8.74932 74.0514 8.48911 74.0514 8.2023C74.0524 7.73357 73.8754 7.33135 73.531 7.02108L73.5288 7.01927L73.531 7.02108C73.1895 6.71195 72.7773 6.55424 72.311 6.55501H70.1588V12.445H70.2536V12.35Z" fill="white"/>
<path d="M75.1321 12.35V6.64997H75.8629V11.6497H78.3259V12.35H75.1321Z" fill="white"/>
<path d="M75.1323 12.35H75.2271V6.74501H75.7682V11.7448H78.2312V12.255H75.1323V12.35H75.2271H75.1323V12.445H78.4208V11.6498V11.5548H75.9578V6.55501H75.1323H75.0375V12.445H75.1323V12.35Z" fill="white"/>
<path d="M82.5696 7.35022H79.9784V9.1575H82.3147V9.84245H79.9784V11.6497H82.5696V12.35H79.248V6.64997H82.5696V7.35022Z" fill="white"/>
<path d="M82.5697 7.35025V7.25525H79.8837V9.25253H82.22V9.7472L79.8837 9.74748V11.7448H82.4749V12.255H79.3429V6.74501H82.4749V7.35025H82.5697V7.25525V7.35025H82.6645V6.65001V6.55501H79.1533V12.445H82.6645V11.6498V11.5548H80.0733V9.93748H82.4097V9.15753V9.06253H80.0733V7.44525H82.6645V7.35025H82.5697Z" fill="white"/>
<path d="M88.942 7.35022H86.3507V9.1575H88.6869V9.84245H86.3507V11.6497H88.942V12.35H85.6207V6.64997H88.942V7.35022Z" fill="white"/>
<path d="M88.9419 7.35025V7.25525H86.2558V9.25253H88.5921V9.7472L86.2558 9.74748V11.7448H88.8471V12.255H85.7154V6.74501H88.8471V7.35025H88.9419V7.25525V7.35025H89.0367V6.65001V6.55501H85.5257V12.445H89.0367V11.6498V11.5548H86.4454V9.93748H88.7817V9.15753V9.06253H86.4454V7.44525H89.0367V7.35025H88.9419Z" fill="white"/>
<path d="M90.0855 12.35V6.64997H90.9748L93.7396 11.0842H93.7709L93.7396 9.98571V6.64997H94.4716V12.35H93.7083L90.8155 7.70087H90.7843L90.8155 8.79973V12.35H90.0855Z" fill="white"/>
<path d="M90.0854 12.35H90.1802V6.74501H90.9226L93.6874 11.1792H93.7708H93.8685L93.8344 9.98432V6.74501H94.3767V12.255H93.7604L90.8685 7.6059H90.7841H90.6865L90.7206 8.8009V12.255H90.0854V12.35H90.1802H90.0854V12.445H90.8154H90.9102V8.79824L90.879 7.69833L90.7841 7.7009V7.7959H90.8154V7.7009L90.7348 7.75144L93.6561 12.445H94.4715H94.5663V6.55501H93.7395H93.6447V9.98688L93.676 11.0868L93.7708 11.0842V10.9892H93.7395V11.0842L93.8201 11.0338L91.0278 6.55501H90.0854H89.9905V12.445H90.0854V12.35Z" fill="white"/>
<defs>
<linearGradient id="paint0_linear_896_8750" x1="20.6695" y1="8.27428" x2="4.72612" y2="24.1865" gradientUnits="userSpaceOnUse">
<stop stop-color="#00A0FF"/>
<stop offset="0.00657445" stop-color="#00A1FF"/>
<stop offset="0.2601" stop-color="#00BEFF"/>
<stop offset="0.5122" stop-color="#00D2FF"/>
<stop offset="0.7604" stop-color="#00DFFF"/>
<stop offset="1" stop-color="#00E3FF"/>
</linearGradient>
<linearGradient id="paint1_linear_896_8750" x1="32.08" y1="19.0014" x2="9.13762" y2="19.0014" gradientUnits="userSpaceOnUse">
<stop stop-color="#FFE000"/>
<stop offset="0.4087" stop-color="#FFBD00"/>
<stop offset="0.7754" stop-color="#FFA500"/>
<stop offset="1" stop-color="#FF9C00"/>
</linearGradient>
<linearGradient id="paint2_linear_896_8750" x1="23.5397" y1="21.1814" x2="1.91937" y2="42.7596" gradientUnits="userSpaceOnUse">
<stop stop-color="#FF3A44"/>
<stop offset="1" stop-color="#C31162"/>
</linearGradient>
<linearGradient id="paint3_linear_896_8750" x1="6.91891" y1="0.167377" x2="16.5733" y2="9.80291" gradientUnits="userSpaceOnUse">
<stop stop-color="#32A071"/>
<stop offset="0.0685" stop-color="#2DA771"/>
<stop offset="0.4762" stop-color="#15CF74"/>
<stop offset="0.8009" stop-color="#06E775"/>
<stop offset="1" stop-color="#00F076"/>
</linearGradient>
<linearGradient id="paint4_linear_896_8750" x1="32.0928" y1="19.0015" x2="9.10529" y2="19.0015" gradientUnits="userSpaceOnUse">
<stop stop-color="#CCB300"/>
<stop offset="0.4087" stop-color="#CC9700"/>
<stop offset="0.7754" stop-color="#CC8400"/>
<stop offset="1" stop-color="#CC7D00"/>
</linearGradient>
<linearGradient id="paint5_linear_896_8750" x1="23.5396" y1="21.1814" x2="1.91929" y2="42.7596" gradientUnits="userSpaceOnUse">
<stop stop-color="#CC2E36"/>
<stop offset="1" stop-color="#9C0E4E"/>
</linearGradient>
<linearGradient id="paint6_linear_896_8750" x1="20.6914" y1="8.27428" x2="4.74803" y2="24.2177" gradientUnits="userSpaceOnUse">
<stop stop-color="#FF8B4E"/>
<stop offset="0.00657445" stop-color="#008DE0"/>
<stop offset="0.2601" stop-color="#00A7E0"/>
<stop offset="0.5122" stop-color="#00B8E0"/>
<stop offset="0.7604" stop-color="#00C4E0"/>
<stop offset="1" stop-color="#00C7E0"/>
</linearGradient>
<linearGradient id="paint7_linear_896_8750" x1="23.5667" y1="21.1817" x2="1.94705" y2="42.8027" gradientUnits="userSpaceOnUse">
<stop stop-color="#E0333C"/>
<stop offset="1" stop-color="#AB0F56"/>
</linearGradient>
<linearGradient id="paint8_linear_896_8750" x1="32.0801" y1="19.0014" x2="9.13778" y2="19.0014" gradientUnits="userSpaceOnUse">
<stop stop-color="#E0C500"/>
<stop offset="0.4087" stop-color="#E0A600"/>
<stop offset="0.7754" stop-color="#E09100"/>
<stop offset="1" stop-color="#E08900"/>
</linearGradient>
<linearGradient id="paint9_linear_896_8750" x1="32.08" y1="19.0013" x2="9.13771" y2="19.0013" gradientUnits="userSpaceOnUse">
<stop stop-color="#FFE840"/>
<stop offset="0.4087" stop-color="#FFCE40"/>
<stop offset="0.7754" stop-color="#FFBC40"/>
<stop offset="1" stop-color="#FFB540"/>
</linearGradient>
<linearGradient id="paint10_linear_896_8750" x1="20.6914" y1="8.27426" x2="4.74799" y2="24.2176" gradientUnits="userSpaceOnUse">
<stop stop-color="#40B8FF"/>
<stop offset="0.00657445" stop-color="#40B9FF"/>
<stop offset="0.2601" stop-color="#40CEFF"/>
<stop offset="0.5122" stop-color="#40DDFF"/>
<stop offset="0.7604" stop-color="#40E7FF"/>
<stop offset="1" stop-color="#40EAFF"/>
</linearGradient>
<linearGradient id="paint11_linear_896_8750" x1="6.91888" y1="0.167326" x2="16.5732" y2="9.80286" gradientUnits="userSpaceOnUse">
<stop stop-color="#65B895"/>
<stop offset="0.0685" stop-color="#62BD95"/>
<stop offset="0.4762" stop-color="#50DB97"/>
<stop offset="0.8009" stop-color="#44ED98"/>
<stop offset="1" stop-color="#40F498"/>
</linearGradient>
</defs>
</svg>
