<?xml version="1.0" encoding="UTF-8"?>
<svg width="61px" height="60px" viewBox="0 0 61 60" version="1.1" xmlns="http://www.w3.org/2000/svg" xmlns:xlink="http://www.w3.org/1999/xlink">
    <title>icon 3</title>
    <g id="2---Distributiva" stroke="none" stroke-width="1" fill="none" fill-rule="evenodd">
        <g id="components/características/default/6-bullets/desktop_S-Copy" transform="translate(-408.000000, -244.000000)">
            <g id="fila-2" transform="translate(25.933333, 244.000000)">
                <g id="icon" transform="translate(382.516667, 0.000000)">
                    <g id="circle-2" fill="#00A9CE">
                        <circle id="circle" cx="30" cy="30" r="30"></circle>
                    </g>
                    <g transform="translate(13.500000, 13.500000)" fill="#FFFFFF" id="Shape">
                        <path d="M13.8867188,0 C15.1631611,0 16.4133922,0.478041742 17.3666595,1.32006354 L17.5986328,1.5380859 L31.7197266,15.6591797 C32.5458984,16.4838867 33,17.5817871 33,18.75 C33,19.8120117 32.6247094,20.815914 31.9357597,21.6092793 L31.7197266,21.8408203 L21.8408204,31.7197266 C21.0146484,32.5451659 19.9160155,33 18.75,33 C17.6899859,33 16.6856599,32.6241041 15.8911004,31.9355946 L15.6591797,31.7197266 L1.5380859,17.5986328 C0.622671254,16.6825421 0.0866944775,15.4887377 0.00965316664,14.2078989 L0,13.8859863 L0,3 C0,1.42066546 1.22659171,0.122953058 2.77648489,0.00824229152 L3,0 L13.8867188,0 Z M13.8867188,1.5 L3,1.5 C2.23148021,1.5 1.59684411,2.08037338 1.51010283,2.82534969 L1.5,3 L1.5,13.8859863 C1.5,14.787085 1.8156152,15.6401294 2.3955878,16.3185769 L2.5986327,16.5380859 L16.7197265,30.6591796 C17.7462564,31.6829427 19.4861924,31.7398185 20.5919897,30.8298068 L20.7802734,30.6591796 L30.6591797,20.7802734 C31.201172,20.2382812 31.5,19.517578 31.5,18.75 C31.5,18.0677084 31.2638889,17.4224537 30.8307613,16.9068287 L30.6591797,16.7197266 L16.5380859,2.59863285 C15.8408203,1.9006347 14.8740234,1.5 13.8867188,1.5 Z M23.3966029,18.1109483 L23.5004883,18.1977539 L25.6215821,20.3188473 C25.9145508,20.6118161 25.9145508,21.0864255 25.6215821,21.3793943 C25.3611654,21.6398109 24.9572301,21.6687461 24.6649205,21.4661998 L24.5610351,21.3793943 L22.9702148,19.7885739 L21.9096678,20.8491209 L22.9702148,21.9096678 C23.2631835,22.2026366 23.2631835,22.677246 22.9702148,22.9702148 C22.8237305,23.1166992 22.6318359,23.1899414 22.4399414,23.1899414 C22.2960204,23.1899414 22.1520996,23.1487426 22.0273361,23.0663452 L21.909668,22.9702148 L20.849121,21.9096678 L19.7885741,22.9702148 L21.3793944,24.5617676 C21.6723632,24.8547363 21.6723632,25.3293458 21.3793944,25.6223145 C21.2329101,25.768799 21.0410156,25.8420411 20.849121,25.8420411 C20.7052001,25.8420411 20.5612793,25.8008424 20.4365158,25.7184449 L20.3188476,25.6223145 L18.1977539,23.5004883 C17.9373372,23.2400716 17.908402,22.8361364 18.1109483,22.5438267 L18.1977539,22.4399414 L22.4399414,18.1977539 C22.700358,17.9373372 23.1042933,17.908402 23.3966029,18.1109483 Z M18.7280274,13.7351073 C18.8874024,13.7351073 19.0411524,13.7857323 19.1682774,13.8779823 L19.2583008,13.9548339 L21.3793946,16.0766601 C21.6723633,16.3696289 21.6723633,16.8442383 21.3793946,17.1372071 C21.1189779,17.3976237 20.7150426,17.4265589 20.422733,17.2240126 L20.3188476,17.1372071 L18.7280273,15.5456543 L17.6672056,16.6066589 L18.7280273,17.6674805 C19.020996,17.9604492 19.020996,18.4350587 18.7280273,18.7280274 C18.5815429,18.8745119 18.3896484,18.947754 18.1977539,18.947754 C18.0538329,18.947754 17.9099121,18.9065553 17.7851486,18.8241578 L17.6674804,18.7280274 L16.606842,17.6673888 L15.5463867,18.7280273 L17.1372071,20.3188476 C17.4301758,20.6118164 17.4301758,21.0864258 17.1372071,21.3793946 C16.9907228,21.525879 16.7988282,21.5991212 16.6069337,21.5991212 C16.4630127,21.5991212 16.3190919,21.5579224 16.1943284,21.475525 L16.0766603,21.3793946 L13.9555665,19.2583008 C13.6951498,18.9978841 13.6662146,18.5939489 13.8687609,18.3016392 L13.9555665,18.1977539 L18.197754,13.9548339 C18.338379,13.8142089 18.5288087,13.7351073 18.7280274,13.7351073 Z M11.8535157,11.8139649 L13.9555662,9.7126464 C14.2159829,9.45222973 14.6199181,9.42329455 14.9122278,9.62584084 L15.0161132,9.7126464 L16.0766601,10.7731934 C16.9541015,11.6506349 16.9541015,13.0773927 16.0766601,13.9548341 C15.6811524,14.3503419 15.1640625,14.5810547 14.6088867,14.6103516 C14.5837752,15.0680106 14.4198323,15.5192124 14.1179804,15.8947718 L13.9555664,16.0759277 L12.8935547,17.1372069 C12.7470704,17.2836914 12.5551758,17.3569335 12.3632813,17.3569335 C12.1713867,17.3569335 11.9794923,17.2836914 11.8330079,17.1372069 C11.5725912,16.8767902 11.543656,16.4722763 11.7462023,16.1803524 L11.8330079,16.0766599 L12.8950196,15.0153807 C13.1541341,14.7556151 13.1829246,14.3505949 12.9813911,14.058036 L12.8950196,13.9541015 L12.3632813,13.4245605 L10.7724611,15.0153809 C10.4794923,15.3083496 10.0048829,15.3083496 9.7119141,15.0153809 C9.45149743,14.7549642 9.42256225,14.3510289 9.62510854,14.0587193 L9.7119141,13.9548339 L13.9555662,9.7126464 L11.8535157,11.8139649 Z M14.4858399,11.3034668 L13.425293,12.3640137 L13.9555664,12.8935547 C14.0692383,13.0078125 14.2119727,13.0803516 14.3665195,13.1047969 L14.484375,13.1140137 C14.6865234,13.1140137 14.8740234,13.0356446 15.0161133,12.8942871 C15.27653,12.6345214 15.3054652,12.2295011 15.1029189,11.9374567 L15.0161133,11.8337402 L14.4858399,11.3034668 Z M10.6576767,5.37744144 L10.7724609,5.4697266 L12.8935548,7.59082035 C13.1865235,7.8837891 13.1865235,8.35839855 12.8935548,8.6513673 C12.6331381,8.91178397 12.2292029,8.94071915 11.9368932,8.73817286 L11.8330078,8.6513673 L10.2421875,7.06054695 L9.1816407,8.1212769 L10.2421875,9.182373 C10.5351562,9.47534175 10.5351562,9.9499512 10.2421875,10.2429199 C10.0957032,10.3894044 9.90380865,10.4626465 9.7119141,10.4626465 C9.56799319,10.4626465 9.42407227,10.4214478 9.29930875,10.3390503 L9.18164055,10.2429199 L8.12118525,9.18200685 L6.5302734,10.7731933 C6.3837891,10.9196778 6.19189455,10.9929199 6.00000004,10.9929199 C5.80810545,10.9929199 5.6162109,10.9196778 5.4697266,10.7731935 C5.20930993,10.5127768 5.18037475,10.1088416 5.38292104,9.8165319 L5.4697266,9.71264655 L9.71191395,5.4697266 C9.92285145,5.2587891 10.2557372,5.20605472 10.5276489,5.31152347 L10.6576767,5.37744144 L10.6576767,5.37744144 Z"></path>
                    </g>
                </g>
            </g>
        </g>
    </g>
</svg>