<?xml version="1.0" encoding="UTF-8"?>
<svg width="61px" height="60px" viewBox="0 0 61 60" version="1.1" xmlns="http://www.w3.org/2000/svg" xmlns:xlink="http://www.w3.org/1999/xlink">
    <title>icon</title>
    <g id="2---Distributiva" stroke="none" stroke-width="1" fill="none" fill-rule="evenodd">
        <g id="components/características/default/6-bullets/desktop_S-Copy" transform="translate(-408.000000, -84.000000)">
            <g id="fila-1" transform="translate(25.933333, 84.000000)">
                <g id="icon" transform="translate(382.516667, 0.000000)">
                    <g id="circle-2" fill="#00A9CE">
                        <circle id="circle" cx="30" cy="30" r="30"></circle>
                    </g>
                    <g transform="translate(12.003320, 12.003330)" fill="#FFFFFF" id="Shape">
                        <path d="M2.37679829,9.05110972 C7.30938564,0.438550976 18.3289542,-2.55593624 26.9422582,2.37682518 C32.7554428,5.70615125 35.9703114,11.8081507 35.9935604,18.0713907 C35.9966801,19.0040819 34.4935218,19.0040819 34.4935218,18.0512027 C34.4935218,12.314675 31.5209606,6.72777472 26.1967433,3.67856677 C18.3016878,-0.842974169 8.20008394,1.90157086 3.678543,9.79662639 C-0.842997935,17.6916819 1.90154709,27.7932858 9.79660262,32.3148267 C12.9218295,34.104661 16.4564194,34.7913261 19.8937682,34.3900684 L20.4356255,34.3176732 L20.3340754,30.9019554 L20.3379884,30.8016699 C20.3591655,30.6031543 20.459258,30.4193602 20.616828,30.293288 C20.7652016,30.1756946 20.9500291,30.1189521 21.1352085,30.1317701 L21.273595,30.1545623 L27.4993275,31.7813314 L27.6029813,31.8165472 C27.8366761,31.915767 28.0098171,32.1308747 28.0509034,32.389257 C28.0969519,32.6831874 27.9654875,32.9775829 27.7149621,33.1379573 C22.0406856,36.7764143 14.8894914,36.9601293 9.05108595,33.6165714 C0.437891616,28.6836201 -2.555596,17.6637799 2.37679829,9.05110972 Z M21.8111089,31.8769928 L21.8746201,34.0386387 L22.3731232,33.9068895 C23.1683018,33.6834841 23.9513219,33.3995384 24.7148025,33.0546351 L25.283634,32.7845215 L21.8111089,31.8769928 Z M16.6416801,11.1913701 L16.6416801,13.4113701 L10.7416801,13.4113701 L10.7416801,16.3313701 C11.4816801,15.8063701 12.2606801,15.4753701 13.2926801,15.4753701 C16.2916801,15.4753701 17.3236801,17.3443701 17.3236801,20.2263701 C17.3236801,23.4783701 15.9796801,25.4453701 12.6116801,25.4453701 C9.10668013,25.4453701 7.99668013,23.3423701 7.99668013,21.2193701 L10.5666801,21.2193701 C10.5086801,22.5243701 11.3066801,23.2243701 12.5726801,23.2243701 C14.2466801,23.2243701 14.7536801,22.1343701 14.7536801,20.1683701 C14.7536801,18.4343701 14.1686801,17.4613701 12.7086801,17.4613701 C11.8326801,17.4613701 11.1316801,17.8893701 10.6446801,18.5523701 L8.52268013,18.5523701 L8.52268013,11.1913701 L16.6416801,11.1913701 Z M22.7690801,10.9966701 C25.5150801,10.9966701 26.9950801,12.5736701 27.0920801,15.7676701 L24.4050801,15.7676701 C24.4050801,13.9566701 23.7430801,13.3726701 22.7690801,13.3726701 C21.6980801,13.3726701 21.0170801,13.8006701 21.0170801,15.3576701 L21.0170801,21.0826701 C21.0170801,22.6406701 21.6980801,23.0686701 22.7690801,23.0686701 C23.7820801,23.0686701 24.4050801,22.3296701 24.4050801,21.1226701 L24.4050801,20.2656701 L22.5160801,20.2656701 L22.5160801,18.0456701 L27.0920801,18.0456701 L27.0920801,25.2496701 L25.6900801,25.2496701 L25.2810801,24.0816701 C24.5610801,24.8996701 23.7820801,25.4446701 22.7690801,25.4446701 C20.1600801,25.4446701 18.3300801,24.1986701 18.3300801,20.7326701 L18.3300801,15.7086701 C18.3300801,12.2426701 20.1600801,10.9966701 22.7690801,10.9966701 Z"></path>
                    </g>
                </g>
            </g>
        </g>
    </g>
</svg>