<?xml version="1.0" encoding="UTF-8"?>
<svg width="61px" height="60px" viewBox="0 0 61 60" version="1.1" xmlns="http://www.w3.org/2000/svg" xmlns:xlink="http://www.w3.org/1999/xlink">
    <title>icon 2</title>
    <g id="2---Distributiva" stroke="none" stroke-width="1" fill="none" fill-rule="evenodd">
        <g id="components/características/default/6-bullets/desktop_S-Copy" transform="translate(-25.000000, -268.000000)">
            <g id="icon" transform="translate(25.933333, 268.000000)">
                <g id="circle-2" fill="#00A9CE">
                    <circle id="circle" cx="30" cy="30" r="30"></circle>
                </g>
                <g transform="translate(18.000000, 12.000000)" fill="#FFFFFF" id="Shape">
                    <path d="M16.5,36 L9.3295899,36 C7.00341795,36 4.7504883,35.1665038 2.9838867,33.6533204 C1.0869141,32.0273438 0,29.6623535 0,27.164795 L0,24.2351075 C0,22.4589844 0.7207032,20.7194825 1.9775391,19.4626465 L4.5,16.9394532 L4.5,3 C4.5,1.34545905 5.84619135,0 7.5,0 C9.15380865,0 10.5,1.34545905 10.5,3 L10.5,12.848877 L10.6479492,12.75 C12.1186524,11.7685546 14.1313476,11.7685546 15.6020508,12.75 L18,14.3481445 L18,7.5 C18,5.84545905 19.3461913,4.5 21,4.5 C22.6538087,4.5 24,5.84545905 24,7.5 L24,28.5 C24,32.6352538 20.6352538,36 16.5,36 Z M4.5,19.0612792 L3.0380859,20.5231933 C2.0610351,21.5009766 1.5,22.8537597 1.5,24.2351075 L1.5,27.164795 C1.5,29.2236329 2.39648445,31.1733399 3.9594726,32.5144044 C5.4550782,33.7946778 7.3608399,34.5 9.3295899,34.5 L16.5,34.5 C19.809082,34.5 22.5,31.8083496 22.5,28.5 L22.5,7.5 C22.5,6.67309575 21.8276367,6 21,6 C20.1723633,6 19.5,6.67309575 19.5,7.5 L19.5,15.6496582 C19.5234375,15.8203125 19.4897462,15.9990235 19.3916016,16.1557617 C19.171875,16.5014649 18.7192383,16.6062012 18.3720703,16.3974609 C18.3603516,16.3908692 18.3486328,16.383545 18.3369141,16.3762206 L14.7700195,13.9980468 C13.7915038,13.3461914 12.4584961,13.3461914 11.4799804,13.9980468 L10.1660155,14.8740234 C9.93310545,15.0278321 9.6401367,15.041748 9.3955077,14.9113769 C9.15234375,14.7810058 9,14.5268555 9,14.25 L9,3 C9,2.17309575 8.3276367,1.5 7.5,1.5 C6.6723633,1.5 6,2.17309575 6,3 L6,23.25 C6,23.6645508 5.6645508,24 5.25,24 C4.8354492,24 4.5,23.6645508 4.5,23.25 L4.5,19.0612792 Z"></path>
                </g>
            </g>
        </g>
    </g>
</svg>