<?xml version="1.0" encoding="UTF-8"?>
<svg width="61px" height="60px" viewBox="0 0 61 60" version="1.1" xmlns="http://www.w3.org/2000/svg" xmlns:xlink="http://www.w3.org/1999/xlink">
    <title>icon</title>
    <g id="2---Distributiva" stroke="none" stroke-width="1" fill="none" fill-rule="evenodd">
        <g id="components/características/default/6-bullets/desktop_S-Copy" transform="translate(-25.000000, -84.000000)">
            <g id="icon" transform="translate(25.933333, 84.000000)">
                <g id="circle-2" fill="#00A9CE">
                    <circle id="circle" cx="30" cy="30" r="30"></circle>
                </g>
                <g transform="translate(12.000000, 12.000000)" fill="#FFFFFF" id="Shape">
                    <path d="M18,0 C27.9250488,0 36,8.0749512 36,18 C36,27.9250488 27.9250488,36 18,36 C8.0749512,36 0,27.9250488 0,18 C0,8.0749512 8.0749512,0 18,0 Z M18,1.5 C8.90185545,1.5 1.5,8.90185545 1.5,18 C1.5,27.0981445 8.90185545,34.5 18,34.5 C27.0981445,34.5 34.5,27.0981445 34.5,18 C34.5,8.90185545 27.0981445,1.5 18,1.5 Z M8.338623,21.0197754 C8.7385254,20.9282226 9.14501955,21.1735839 9.24096675,21.5778808 C10.2033691,25.6530762 13.8054199,28.5 18,28.5 C22.1894532,28.5 25.7900391,25.6574707 26.7568359,21.5874024 C26.8513183,21.1845703 27.251953,20.934082 27.6599121,21.0314941 C28.0627441,21.126709 28.3117675,21.5310058 28.2158203,21.9345703 C27.088623,26.6835937 22.8874512,30 18,30 C13.1066895,30 8.9040528,26.6784667 7.78051755,21.9221191 C7.68530265,21.5192871 7.9350585,21.1149903 8.338623,21.0197754 Z M12,10.5 C14.4814454,10.5 16.5,12.5185546 16.5,15 C16.5,15.4145508 16.1645508,15.75 15.75,15.75 C15.3354492,15.75 15,15.4145508 15,15 C15,13.345459 13.654541,12 12,12 C10.3454591,12 9,13.345459 9,15 C9,15.4145508 8.6645508,15.75 8.25,15.75 C7.8354492,15.75 7.5,15.4145508 7.5,15 C7.5,12.5185546 9.51855465,10.5 12,10.5 Z M24,10.5 C26.4814453,10.5 28.5,12.5185546 28.5,15 C28.5,15.4145508 28.1645508,15.75 27.75,15.75 C27.3354492,15.75 27,15.4145508 27,15 C27,13.345459 25.654541,12 24,12 C22.345459,12 21,13.345459 21,15 C21,15.4145508 20.6645508,15.75 20.25,15.75 C19.8354492,15.75 19.5,15.4145508 19.5,15 C19.5,12.5185546 21.5185546,10.5 24,10.5 Z"></path>
                </g>
            </g>
        </g>
    </g>
</svg>