<?xml version="1.0" encoding="UTF-8"?>
<svg width="61px" height="60px" viewBox="0 0 61 60" version="1.1" xmlns="http://www.w3.org/2000/svg" xmlns:xlink="http://www.w3.org/1999/xlink">
    <title>icon 2</title>
    <g id="2---Distributiva" stroke="none" stroke-width="1" fill="none" fill-rule="evenodd">
        <g id="components/características/default/6-bullets/desktop_S-Copy" transform="translate(-792.000000, -268.000000)">
            <g id="fila-2" transform="translate(25.933333, 268.000000)">
                <g id="icon" transform="translate(766.113889, 0.000000)">
                    <g id="circle-2" fill="#00A9CE">
                        <circle id="circle" cx="30" cy="30" r="30"></circle>
                    </g>
                    <g transform="translate(12.000000, 16.500000)" fill="#FFFFFF" id="Shape">
                        <path d="M3,0 L33,0 C34.5793345,0 35.8770469,1.22592446 35.9917577,2.77639391 L36,3 L36,9 C36,9.4145508 35.6645508,9.75 35.25,9.75 C33.182373,9.75 31.5,11.432373 31.5,13.5 C31.5,15.567627 33.182373,17.25 35.25,17.25 C35.6184896,17.25 35.9244792,17.5150463 35.9879276,17.8650977 L36,18 L36,24 C36,25.5793345 34.7740755,26.8770469 33.2236061,26.9917577 L33,27 L3,27 C1.42066546,27 0.122953058,25.7740755 0.00824229152,24.2236061 L0,24 L0,18 C0,17.5854492 0.3354492,17.25 0.75,17.25 C2.817627,17.25 4.5,15.567627 4.5,13.5 C4.5,11.432373 2.817627,9.75 0.75,9.75 C0.3815104,9.75 0.0755208296,9.48495372 0.0120724016,9.13490227 L0,9 L0,3 C0,1.42066546 1.22592446,0.122953058 2.77639391,0.00824229152 L3,0 L33,0 L3,0 Z M33,1.5 L3,1.5 C2.23216034,1.5 1.59694127,2.08037338 1.51011324,2.82534969 L1.5,3 L1.5,8.30346675 C4.04077155,8.6682129 6,10.8596192 6,13.5 C6,16.0460815 4.17821742,18.1746854 1.76993747,18.6505263 L1.5,18.6965333 L1.5,24 C1.5,24.7678397 2.08037338,25.4030587 2.82534969,25.4898868 L3,25.5 L33,25.5 C33.7678397,25.5 34.4030587,24.9196266 34.4898868,24.1746503 L34.5,24 L34.5,18.6965333 C31.9592285,18.3317871 30,16.1403808 30,13.5 C30,10.9539185 31.8217826,8.82531459 34.2300625,8.34947371 L34.5,8.30346675 L34.5,3 C34.5,2.23216034 33.9196266,1.59694127 33.1746503,1.51011324 L33,1.5 Z M9.75,21 C10.1184896,21 10.4244792,21.2650463 10.4879276,21.6150977 L10.5,21.75 L10.5,23.25 C10.5,23.6645508 10.1645508,24 9.75,24 C9.3815104,24 9.07552083,23.7349537 9.0120724,23.3849023 L9,23.25 L9,21.75 C9,21.3354492 9.3354492,21 9.75,21 Z M24,13.5 C25.654541,13.5 27,15.182373 27,17.25 C27,19.317627 25.654541,21 24,21 C22.345459,21 21,19.317627 21,17.25 C21,15.182373 22.345459,13.5 24,13.5 Z M15.1259766,19.8339844 L24.1259766,6.33398445 C24.3552247,5.9890137 24.8188477,5.89599615 25.1660157,6.1259766 C25.4726562,6.33040367 25.5802228,6.72059464 25.4388181,7.04706384 L25.3740234,7.16601555 L16.3740234,20.6660155 C16.2297363,20.8828125 15.9916992,21 15.7492675,21 C15.6064453,21 15.4621582,20.9589844 15.3339844,20.8740235 C15.0273438,20.6695965 14.9197772,20.2794055 15.0611819,19.9529362 L15.1259766,19.8339844 L24.1259766,6.33398445 L15.1259766,19.8339844 Z M24,15 C23.1870117,15 22.5,16.0305175 22.5,17.25 C22.5,18.4694825 23.1870117,19.5 24,19.5 C24.8129883,19.5 25.5,18.4694825 25.5,17.25 C25.5,16.0305175 24.8129883,15 24,15 Z M9.75,15 C10.1184896,15 10.4244792,15.2650463 10.4879276,15.6150977 L10.5,15.75 L10.5,17.25 C10.5,17.6645508 10.1645508,18 9.75,18 C9.3815104,18 9.07552083,17.7349537 9.0120724,17.3849023 L9,17.25 L9,15.75 C9,15.3354492 9.3354492,15 9.75,15 Z M16.5,6 C18.154541,6 19.5,7.682373 19.5,9.75 C19.5,11.817627 18.154541,13.5 16.5,13.5 C14.845459,13.5 13.5,11.817627 13.5,9.75 C13.5,7.682373 14.845459,6 16.5,6 Z M9.75,9 C10.1184896,9 10.4244792,9.26504628 10.4879276,9.61509773 L10.5,9.75 L10.5,11.25 C10.5,11.6645508 10.1645508,12 9.75,12 C9.3815104,12 9.07552083,11.7349537 9.0120724,11.3849023 L9,11.25 L9,9.75 C9,9.3354492 9.3354492,9 9.75,9 Z M16.5,7.5 C15.6870117,7.5 15,8.53051755 15,9.75 C15,10.9694825 15.6870117,12 16.5,12 C17.3129883,12 18,10.9694825 18,9.75 C18,8.53051755 17.3129883,7.5 16.5,7.5 Z M9.75,2.8125 C10.1184896,2.8125 10.4244792,3.07754628 10.4879276,3.42759773 L10.5,3.5625 L10.5,5.25 C10.5,5.6645508 10.1645508,6 9.75,6 C9.3815104,6 9.07552083,5.73495372 9.0120724,5.38490227 L9,5.25 L9,3.5625 C9,3.1479492 9.3354492,2.8125 9.75,2.8125 Z"></path>
                    </g>
                </g>
            </g>
        </g>
    </g>
</svg>