<svg width="61" height="60" viewBox="0 0 61 60" xmlns="http://www.w3.org/2000/svg">
    <g fill="none" fill-rule="evenodd">
        <circle cx="30" cy="30" r="30" fill="#00A9CE" transform="translate(.047)"/>
        <path d="M16.547 13.5h10.886c1.295 0 2.518.466 3.478 1.317l.235.221 14.12 14.121a4.401 4.401 0 0 1 1.281 3.091 4.405 4.405 0 0 1-1.067 2.861l-.213.23-9.879 9.879a4.401 4.401 0 0 1-3.09 1.28 4.405 4.405 0 0 1-2.862-1.067l-.23-.213-14.12-14.121a5.212 5.212 0 0 1-1.53-3.39l-.009-.323V16.5a3.004 3.004 0 0 1 2.777-2.992l.223-.008h10.886-10.886zM27.433 15H16.547c-.768 0-1.403.58-1.49 1.325l-.01.175v10.886c0 .902.316 1.755.896 2.433l.203.22 14.12 14.12c1.01 1.01 2.781 1.066 3.876.169l.185-.169 9.88-9.879a2.89 2.89 0 0 0 .84-2.03c0-.672-.242-1.331-.67-1.845l-.17-.185-14.122-14.121a3.723 3.723 0 0 0-2.353-1.087L27.433 15zm9.364 12a5.256 5.256 0 0 1 5.25 5.25 5.212 5.212 0 0 1-1.317 3.478l-.22.235-7.696 7.33a.745.745 0 0 1-.918.09l-.116-.09-7.682-7.318a5.224 5.224 0 0 1-1.55-3.725 5.256 5.256 0 0 1 5.25-5.25 5.252 5.252 0 0 1 4.5 2.548 5.252 5.252 0 0 1 4.5-2.548zm0 1.5a3.754 3.754 0 0 0-3.75 3.75.75.75 0 1 1-1.5 0 3.754 3.754 0 0 0-3.75-3.75 3.754 3.754 0 0 0-3.75 3.75c0 .902.316 1.755.896 2.433l.203.22 7.151 6.811 7.165-6.824a3.718 3.718 0 0 0 1.085-2.64 3.754 3.754 0 0 0-3.75-3.75zm-17.25-12c1.655 0 3 1.345 3 3s-1.345 3-3 3c-1.654 0-3-1.345-3-3s1.346-3 3-3zm0 1.5c-.827 0-1.5.673-1.5 1.5s.673 1.5 1.5 1.5 1.5-.673 1.5-1.5-.673-1.5-1.5-1.5z" fill="#FFF"/>
    </g>
</svg>
