<svg width="40" height="24" viewBox="0 0 51 32" fill="none" xmlns="http://www.w3.org/2000/svg"><path fill-rule="evenodd" clip-rule="evenodd" d="M7.00417 11.9556C7.34376 11.4581 7.51355 10.6725 7.51355 9.59897C7.51355 8.51303 7.34688 7.72129 7.01355 7.22477C6.68021 6.72723 6.15001 6.47845 5.42084 6.47845C4.75521 6.47845 4.12813 6.65394 3.53959 7.008V12.1714C4.10209 12.5244 4.73022 12.7009 5.42084 12.7009C6.13751 12.7009 6.66563 12.4532 7.00417 11.9556ZM0.852091 18.5796C0.775007 18.5074 0.737507 18.3804 0.737507 18.1977V5.10348C0.737507 4.92077 0.775007 4.79381 0.852091 4.72155C0.929174 4.64929 1.05001 4.61316 1.21667 4.61316H2.59897C2.89376 4.61316 3.07292 4.75768 3.13647 5.04465L3.27084 5.55561C3.66981 5.1662 4.14285 4.85919 4.66251 4.65239C5.18839 4.43386 5.75268 4.32055 6.32292 4.31897C7.56459 4.31897 8.54688 4.78348 9.2698 5.71252C9.99271 6.64155 10.3542 7.89781 10.3542 9.48129C10.3542 10.5683 10.175 11.5169 9.81667 12.3283C9.45834 13.1396 8.97292 13.7641 8.35834 14.2028C7.74386 14.6415 7.00304 14.872 6.24584 14.8604C5.73568 14.8627 5.22905 14.7764 4.74897 14.6054C4.30269 14.4511 3.89166 14.2108 3.53959 13.8983V18.1977C3.53959 18.3804 3.50417 18.5074 3.43438 18.5796C3.36355 18.6519 3.23855 18.688 3.05938 18.688H1.21667C1.05001 18.688 0.929174 18.6519 0.852091 18.5796ZM12.349 14.527C12.2719 14.4475 12.2344 14.3236 12.2344 14.1533V5.10348C12.2344 4.92077 12.2719 4.79381 12.349 4.72155C12.426 4.64929 12.5469 4.61316 12.7135 4.61316H14.0958C14.3906 4.61316 14.5688 4.75768 14.6333 5.04465L14.8833 6.10477C15.3938 5.52877 15.8771 5.12 16.3313 4.87845C16.7865 4.63587 17.2688 4.5151 17.7813 4.5151H18.05C18.2292 4.5151 18.3573 4.55123 18.4344 4.62245C18.5115 4.69471 18.549 4.82271 18.549 5.00542V6.65497C18.549 6.82529 18.5135 6.94916 18.4438 7.02658C18.3729 7.10606 18.249 7.14529 18.0688 7.14529C17.9802 7.14529 17.8646 7.1391 17.724 7.12465C17.5452 7.11061 17.3658 7.10441 17.1865 7.10606C16.8917 7.10606 16.5344 7.14942 16.1115 7.23406C15.6896 7.31871 15.3302 7.4271 15.0365 7.55716V14.1533C15.0365 14.3236 15.001 14.4475 14.9313 14.527C14.8604 14.6054 14.7354 14.6446 14.5563 14.6446H12.7135C12.5469 14.6446 12.426 14.6054 12.349 14.527ZM20.0198 14.527C19.9427 14.4475 19.9052 14.3236 19.9052 14.1533V5.10348C19.9052 4.92077 19.9427 4.79381 20.0198 4.72155C20.0969 4.64929 20.2177 4.61316 20.3844 4.61316H22.2281C22.4052 4.61316 22.5302 4.64929 22.601 4.72155C22.6719 4.79381 22.7073 4.92077 22.7073 5.10348V14.1533C22.7073 14.3236 22.6719 14.4475 22.601 14.527C22.5313 14.6054 22.4063 14.6446 22.2271 14.6446H20.3833C20.2177 14.6446 20.0969 14.6054 20.0198 14.527ZM21.3063 3.06271C20.8188 3.06271 20.4292 2.92542 20.1354 2.64981C19.8406 2.37523 19.6938 2.00258 19.6938 1.53084C19.6938 1.06013 19.8396 0.686452 20.1354 0.411871C20.4292 0.13729 20.8188 0 21.3063 0C21.7917 0 22.1823 0.13729 22.4771 0.412903C22.7708 0.686452 22.9188 1.06013 22.9188 1.53084C22.9188 2.00258 22.7708 2.37523 22.4771 2.64981C22.1823 2.92542 21.7917 3.06271 21.3063 3.06271ZM25.199 14.527C25.1219 14.4475 25.0844 14.3236 25.0844 14.1533V5.10348C25.0844 4.92077 25.1219 4.79381 25.199 4.72155C25.276 4.64929 25.3969 4.61316 25.5635 4.61316H26.9458C27.2406 4.61316 27.4198 4.75768 27.4833 5.04465L27.6375 5.57523C28.3146 5.1169 28.926 4.79381 29.4708 4.60387C30.0101 4.41477 30.578 4.31841 31.15 4.31894C32.3021 4.31894 33.1146 4.73806 33.5875 5.57523C34.2406 5.13032 34.8552 4.80929 35.4313 4.61316C36.0057 4.41705 36.6091 4.31762 37.2167 4.31894C38.1125 4.31894 38.8063 4.57394 39.299 5.08387C39.7917 5.59484 40.0385 6.30813 40.0385 7.22374V14.1533C40.0385 14.3236 40.0021 14.4475 39.9323 14.527C39.8625 14.6054 39.7375 14.6446 39.5573 14.6446H37.7156C37.549 14.6446 37.4271 14.6054 37.351 14.527C37.274 14.4475 37.2354 14.3236 37.2354 14.1533V7.85239C37.2354 6.96258 36.8448 6.51768 36.0646 6.51768C35.3729 6.51768 34.675 6.68697 33.9708 7.02761V14.1533C33.9708 14.3236 33.9365 14.4475 33.8667 14.527C33.7958 14.6054 33.6708 14.6446 33.4917 14.6446H31.6479C31.4823 14.6446 31.3615 14.6054 31.2833 14.527C31.2073 14.4475 31.1688 14.3236 31.1688 14.1533V7.85239C31.1688 6.96258 30.7781 6.51768 29.9979 6.51768C29.2613 6.52269 28.5368 6.70438 27.8865 7.04723V14.1533C27.8865 14.3236 27.851 14.4475 27.7813 14.527C27.7104 14.6054 27.5854 14.6446 27.4063 14.6446H25.5635C25.3969 14.6446 25.276 14.6054 25.199 14.527ZM46.0656 8.77419C46.7177 8.77419 47.1917 8.672 47.4865 8.46968C47.7802 8.26632 47.9271 7.95561 47.9271 7.53755C47.9271 6.71174 47.4479 6.29987 46.4875 6.29987C45.2583 6.29987 44.549 7.07303 44.3573 8.61729C44.9199 8.72686 45.4923 8.77943 46.0656 8.77419ZM43.0427 13.6031C42.1906 12.7133 41.7656 11.4374 41.7656 9.77548C41.7656 8.07432 42.2 6.73858 43.0708 5.77032C43.9406 4.80206 45.15 4.31794 46.699 4.31794C47.8896 4.31794 48.8198 4.61213 49.4917 5.20052C50.1635 5.78994 50.5 6.57548 50.5 7.55613C50.5 8.53781 50.1385 9.28103 49.4156 9.78581C48.6917 10.2885 47.6271 10.5404 46.2188 10.5404C45.4896 10.5404 44.8563 10.4681 44.3188 10.3246C44.3948 11.2021 44.6542 11.8297 45.0958 12.2085C45.5375 12.5894 46.2063 12.7783 47.1021 12.7783C47.4604 12.7783 47.8094 12.7556 48.149 12.7092C48.4875 12.6637 48.9573 12.5626 49.5594 12.4057C49.6277 12.3832 49.6989 12.37 49.7708 12.3665C49.9875 12.3665 50.0969 12.5172 50.0969 12.8175V13.7208C50.0969 13.9303 50.0677 14.0769 50.0104 14.1626C49.9531 14.2472 49.8406 14.3226 49.674 14.3886C48.7265 14.7573 47.7168 14.9436 46.699 14.9378C45.1115 14.9368 43.8927 14.4929 43.0427 13.6031ZM26.026 28.3128C32.0927 28.3128 38.7615 27.0245 44.899 24.3634C45.824 23.9618 46.6 24.9868 45.6948 25.6712C40.2188 29.8034 32.2844 32 25.45 32C15.8729 32 7.24792 28.3799 0.720841 22.3535C0.209382 21.8797 0.665632 21.2335 1.2823 21.6C8.32396 25.7899 17.0323 28.3128 26.026 28.3128ZM47.2146 29.7249C46.7625 30.111 46.3323 29.9045 46.5333 29.3946C47.1937 27.7068 48.6729 23.9288 47.9719 23.0111C47.2719 22.0955 43.3448 22.5775 41.5792 22.7943C41.0448 22.8594 40.9615 22.3814 41.4438 22.0356C44.5771 19.7853 49.7115 20.4356 50.3083 21.1881C50.9094 21.9479 50.15 27.2124 47.2146 29.7249Z" fill="#1A98FF"></path></svg>