<svg width="24" height="24" viewBox="0 0 24 24" xmlns="http://www.w3.org/2000/svg"><g fill="none" fill-rule="evenodd"><path d="M12 0A11.963 11.963 0 001.361 6.46a.5.5 0 00.575.713l4.14-1.12a.502.502 0 00.296-.744l-.196-.32-.994-1.623A10.963 10.963 0 0112 1c6.065 0 11 4.935 11 11s-4.935 11-11 11S1 18.065 1 12a.5.5 0 10-1 0c0 6.617 5.383 12 12 12s12-5.383 12-12S18.617 0 12 0zM2.86 5.887c.454-.68 1.742-1.968 2.322-2.52l.929 1.515-3.25 1.005z" fill="#000" fill-rule="nonzero"/><path d="M1.79 6.62c.038-1.62.395-3.259 1.07-4.919" stroke="primary" stroke-linecap="round"/></g></svg>