<svg width="24" height="24" viewBox="0 0 24 24" xmlns="http://www.w3.org/2000/svg"><path d="M17.5 1a.5.5 0 01.492.41L18 1.5V3h3c1.052 0 1.918.817 1.995 1.85L23 5v12.5h-.02c0 .104-.02.207-.077.292l-.05.062-5 5a.5.5 0 01-.276.14L17.5 23H3a2.003 2.003 0 01-1.995-1.85L1 21V5c0-1.053.818-1.918 1.851-1.995L3 3h4V1.5a.5.5 0 01.992-.09L8 1.5V3h9V1.5a.5.5 0 01.5-.5zM22 9H2v12a1 1 0 00.883.993L3 22h14v-3c0-1.053.818-1.918 1.851-1.995L19 17h3V9zm-.707 9H19c-.512 0-.935.387-.993.884L18 19v2.293L21.293 18zm-6.859-5.106l-2.332 5.292a.86.86 0 01-.786.513.359.359 0 01-.326-.509l2.32-5.032h-2.882a.428.428 0 110-.857h3.413c.327 0 .593.265.593.593zM7 4H3c-.512 0-.935.387-.993.884L2 5v3h20V5a1 1 0 00-.883-.993L21 4h-3v2a1.001 1.001 0 01-2 0 1 1 0 01.883-.993L17 5V4H8v2a1.001 1.001 0 01-2 0 1 1 0 01.883-.993L7 5V4z" fill="primary"/></svg>