<svg width="24" height="24" viewBox="0 0 24 24" xmlns="http://www.w3.org/2000/svg"><path d="M22 2c1.103 0 2 .897 2 2v13c0 1.103-.897 2-2 2h-9.5v1.008c3.238.087 6.03.976 6.154 1.016a.5.5 0 11-.308.951C18.316 21.965 15.283 21 12 21c-3.29 0-6.316.966-6.346.975a.498.498 0 01-.63-.321.5.5 0 01.322-.63c.123-.04 2.916-.929 6.154-1.016V19H2c-1.103 0-2-.897-2-2V4c0-1.103.897-2 2-2zm0 1H2c-.551 0-1 .449-1 1v13c0 .551.449 1 1 1h20c.551 0 1-.449 1-1V4c0-.551-.449-1-1-1zM7.5 11a.5.5 0 01.5.5v3a.5.5 0 01-.5.5h-4a.5.5 0 01-.5-.5v-3a.5.5 0 01.5-.5zm6.5 0a.5.5 0 01.5.5v3a.5.5 0 01-.5.5h-4a.5.5 0 01-.5-.5v-3a.5.5 0 01.5-.5zm6.5 0a.5.5 0 01.5.5v3a.5.5 0 01-.5.5h-4a.5.5 0 01-.5-.5v-3a.5.5 0 01.5-.5zM7 12H4v2h3v-2zm6.5 0h-3v2h3v-2zm6.5 0h-3v2h3v-2zM7.5 6a.5.5 0 01.5.5v3a.5.5 0 01-.5.5h-4a.5.5 0 01-.5-.5v-3a.5.5 0 01.5-.5zM14 6a.5.5 0 01.5.5v3a.5.5 0 01-.5.5h-4a.5.5 0 01-.5-.5v-3A.5.5 0 0110 6zm6.5 0a.5.5 0 01.5.5v3a.5.5 0 01-.5.5h-4a.5.5 0 01-.5-.5v-3a.5.5 0 01.5-.5zM7 7H4v2h3V7zm6.5 0h-3v2h3V7zM20 7h-3v2h3V7z" fill="primary"/></svg>