<svg width="33" height="28" viewBox="0 0 33 28" fill="none" xmlns="http://www.w3.org/2000/svg">
<path fill-rule="evenodd" clip-rule="evenodd" d="M2.90007 0.35498H29.5667C31.0374 0.35498 32.2334 1.55094 32.2334 3.02165V20.355C32.2334 21.8257 31.0374 23.0217 29.5667 23.0217H16.9001V24.3665C21.2168 24.4822 24.941 25.6676 25.1051 25.7209C25.4554 25.8342 25.6475 26.2098 25.5342 26.5601C25.4216 26.9097 25.0466 27.1037 24.695 26.9891C24.6546 26.9761 20.6104 25.6883 16.2334 25.6883C11.8473 25.6883 7.81218 26.9761 7.77181 26.9891C7.70345 27.0112 7.63444 27.0217 7.56673 27.0217C7.28548 27.0217 7.02376 26.842 6.93262 26.5601C6.81934 26.2098 7.01139 25.8342 7.36165 25.7209C7.5258 25.6676 11.25 24.4822 15.5667 24.3665V23.0217H2.90007C1.42936 23.0217 0.233398 21.8257 0.233398 20.355V3.02165C0.233398 1.55094 1.42936 0.35498 2.90007 0.35498ZM29.5667 21.6884C30.3018 21.6884 30.9001 21.0901 30.9001 20.355V3.02171C30.9001 2.28669 30.3018 1.68838 29.5667 1.68838H2.90007C2.16504 1.68838 1.56674 2.28669 1.56674 3.02171V20.355C1.56674 21.0901 2.16504 21.6884 2.90007 21.6884H29.5667ZM18.4105 12.4347L17.8215 13.1761V15.2886H16.3285V7.89489H17.8215V11.1195L18.2938 10.3222L19.6699 7.89489H21.498L19.3805 11.1449L21.5336 15.2886H19.7613L18.4105 12.4347ZM15.3738 12.4957H14.7441V7.89489H13.302L10.7934 12.7597L10.8594 13.689H13.307V15.2886H14.7441V13.689H15.3738V12.4957ZM13.307 12.4957H12.1898L13.2766 10.0785L13.307 10.0226V12.4957Z" fill="#2E2E2E"/>
</svg>
