<svg width="40" height="40" viewBox="0 0 40 40" fill="none" xmlns="http://www.w3.org/2000/svg">
<path fill-rule="evenodd" clip-rule="evenodd" d="M20 0C31.0278 0 40 8.97217 40 20C40 31.0278 31.0278 40 20 40C8.97217 40 0 31.0278 0 20C0 8.97217 8.97217 0 20 0ZM19.9999 1.66689C9.89087 1.66689 1.66659 9.89117 1.66659 20.0002C1.66659 30.1093 9.89087 38.3335 19.9999 38.3335C30.109 38.3335 38.3333 30.1093 38.3333 20.0002C38.3333 9.89117 30.109 1.66689 19.9999 1.66689ZM19.9999 21.6668C23.6018 21.6668 26.8595 22.964 28.9575 24.0521C30.5307 24.8678 31.5423 26.4282 31.6559 28.1782L31.6666 28.5085V29.271C31.6666 30.5141 30.7201 31.5395 29.5144 31.6558L29.2854 31.6668H10.7145C9.47902 31.6668 8.45983 30.7146 8.3442 29.5014L8.33328 29.271V28.5085C8.33328 26.6261 9.37088 24.9188 11.0424 24.0521C13.1404 22.964 16.3981 21.6668 19.9999 21.6668ZM19.9999 23.3333C16.7341 23.3333 13.7434 24.5288 11.809 25.5314C10.773 26.0687 10.1011 27.0909 10.0104 28.2408L9.99992 28.5083V29.2708C9.99992 29.6282 10.2533 29.9264 10.5862 29.9882L10.7144 30H29.2854C29.6355 30 29.9278 29.7415 29.9884 29.4017L29.9999 29.2708V28.5083C29.9999 27.251 29.3066 26.11 28.1908 25.5314C26.2564 24.5288 23.2657 23.3333 19.9999 23.3333ZM20 8.33345C23.2162 8.33345 25.8334 10.9506 25.8334 14.1668C25.8334 17.3829 23.2162 20.0001 20 20.0001C16.7839 20.0001 14.1667 17.3829 14.1667 14.1668C14.1667 10.9506 16.7839 8.33345 20 8.33345ZM19.9999 10.0002C17.7025 10.0002 15.8332 11.8695 15.8332 14.1669C15.8332 16.4642 17.7025 18.3336 19.9999 18.3336C22.2973 18.3336 24.1666 16.4642 24.1666 14.1669C24.1666 11.8695 22.2973 10.0002 19.9999 10.0002Z" fill="white"/>
</svg>
