<svg width="49" height="49" viewBox="0 0 49 49" fill="none" xmlns="http://www.w3.org/2000/svg">
<path fill-rule="evenodd" clip-rule="evenodd" d="M30.02 17.4831L31.58 12.3231L33.2 17.4831H30.02ZM37.76 22.0431L33.68 9.8031C33.62 9.5031 33.5 9.3231 33.38 9.2031L32.78 9.1431H30.56C30.32 9.1431 30.14 9.1431 30.02 9.2631C29.9 9.3831 29.78 9.5031 29.72 9.8031L25.64 22.0431L25.58 22.4031C25.58 22.7031 25.76 22.8831 26.12 22.8831H28.1L28.34 22.7631L28.46 22.5231L28.64 22.1031L29.24 20.0031H33.86L34.52 22.1031C34.52 22.2831 34.64 22.4031 34.7 22.5231L34.82 22.7631L35.06 22.8231H37.22C37.58 22.8231 37.76 22.7031 37.76 22.4031V22.2231L37.7 22.0431H37.76ZM35.78 26.9631H34.46C34.1 26.9631 33.86 27.0231 33.8 27.1431C33.68 27.2031 33.62 27.4431 33.62 27.7431V34.9431L29.84 27.7431C29.66 27.3831 29.48 27.1431 29.36 27.1431C29.24 27.0231 28.94 26.9631 28.58 26.9631H27.38C27.08 26.9631 26.78 27.0231 26.72 27.1431C26.6 27.2031 26.54 27.4431 26.54 27.7431V39.9231C26.54 40.2231 26.6 40.4031 26.72 40.5231L27.32 40.6431H28.7C29 40.6431 29.24 40.6431 29.3 40.5231C29.48 40.4031 29.48 40.2231 29.48 39.9231V32.6631L33.32 39.9831C33.5 40.2831 33.62 40.5231 33.8 40.5831C33.92 40.7031 34.16 40.7031 34.58 40.7031H35.78C36.08 40.7031 36.32 40.7031 36.38 40.5831C36.5 40.4631 36.56 40.2831 36.56 39.9831V27.6831C36.56 27.4431 36.56 27.2031 36.44 27.0831L35.78 26.9631ZM42.14 25.7631L45.5 29.1231V45.9231H3.5V29.1231L6.86 25.8231C7.34 25.3431 7.34 24.5031 6.86 24.0231L3.5 20.7231V3.9231H45.5V20.7231L42.14 24.0231C41.66 24.5031 41.66 25.3431 42.14 25.8231V25.7631ZM48.5 0.923096H0.5V22.1631L3.26 24.9231L0.5 27.6831V48.9231H48.5V27.6831L45.74 24.9231L48.5 22.1631V0.923096ZM21.86 37.8831H16.46L22.1 29.8431L22.28 29.5431L22.34 29.2431V27.6831C22.34 27.4431 22.34 27.2031 22.16 27.0831L21.56 26.9631H13.22C12.92 26.9631 12.74 27.0231 12.62 27.1431L12.5 27.8031V29.0031C12.5 29.3031 12.5 29.6031 12.62 29.6631C12.74 29.7831 12.92 29.8431 13.22 29.8431H18.32L12.68 37.8831C12.5 38.0631 12.44 38.2431 12.44 38.4231V39.9231C12.44 40.2231 12.5 40.4031 12.62 40.5231C12.74 40.5831 12.92 40.6431 13.28 40.6431H21.8C22.1 40.6431 22.28 40.6431 22.4 40.5231L22.52 39.8031V38.6031C22.52 38.3031 22.46 38.0631 22.34 38.0031C22.28 37.8831 22.1 37.8231 21.74 37.8231L21.86 37.8831ZM19.34 17.3631L19.22 18.6831C19.16 19.0431 19.04 19.3431 18.86 19.5831L18.26 20.0631C17.9294 20.1614 17.5844 20.202 17.24 20.1831H15.68V11.7231H17.24C17.96 11.7231 18.5 11.9631 18.86 12.4431C19.16 12.8631 19.34 13.5831 19.34 14.5431V17.3031V17.3631ZM22.1 11.7831C21.6956 10.9495 21.0468 10.2588 20.24 9.8031C19.46 9.3231 18.44 9.1431 17.24 9.1431H13.34C12.98 9.1431 12.74 9.1431 12.68 9.2631C12.56 9.3831 12.5 9.5631 12.5 9.8631V22.1631C12.5 22.4631 12.56 22.6431 12.68 22.7631C12.8 22.8231 12.98 22.8831 13.34 22.8831H17.78C19.88 22.8831 21.32 21.9831 22.1 20.1831L22.46 18.9831L22.58 17.3631V14.7231L22.46 12.9831C22.4 12.5631 22.28 12.2031 22.1 11.7831Z" fill="#444444"/>
</svg>
