<svg width="380" height="53" viewBox="0 0 380 53" fill="none" xmlns="http://www.w3.org/2000/svg">
<path d="M181.974 28.5566L233.235 24.1128H177.546L181.974 28.5566Z" fill="#BF2025"/>
<path d="M182.699 20.6152V21.2928H186.135V6.18079H182.699V6.85839C181.659 6.19655 180.73 5.81836 179.469 5.81836C175.561 5.81836 172.598 9.37968 172.598 13.7447C172.598 18.1096 175.561 21.671 179.469 21.671C180.73 21.6552 181.659 21.277 182.699 20.6152ZM176.128 13.7289C176.128 11.3337 177.531 9.44271 179.469 9.44271C181.391 9.44271 182.747 11.3337 182.747 13.7289C182.747 16.1241 181.391 18.0151 179.469 18.0151C177.546 18.0151 176.128 16.1241 176.128 13.7289Z" fill="#BF2025"/>
<path d="M207.266 21.6551C208.953 21.6551 210.182 20.7253 210.182 20.7253V21.2926H213.617V6.18066H210.182V15.0524C210.182 16.7228 209.031 18.1253 207.377 18.1253C205.706 18.1253 204.572 16.7228 204.572 15.0524V6.18066H201.137V15.0524C201.121 18.6926 203.626 21.6551 207.266 21.6551Z" fill="#BF2025"/>
<path d="M245.054 5.80273C243.367 5.80273 242.138 6.73246 242.138 6.73246V6.16517H238.703V21.2771H242.138V12.4054C242.138 10.735 243.289 9.33253 244.943 9.33253C246.614 9.33253 247.748 10.735 247.748 12.4054V21.2771H251.183V12.4054C251.199 8.76525 248.709 5.80273 245.054 5.80273Z" fill="#BF2025"/>
<path d="M171.574 8.90602C171.574 5.31319 168.659 2.39795 165.066 2.39795H159.141V21.2761H162.734V15.4141H165.271L169.667 21.2761H174.159L168.848 14.2165C170.487 13.0346 171.574 11.0964 171.574 8.90602ZM165.05 11.837H162.702V5.99079H165.05C166.658 5.99079 167.981 7.2987 167.981 8.92178C167.981 10.5291 166.658 11.837 165.05 11.837Z" fill="#BF2025"/>
<path d="M216.658 16.2811C216.658 19.6534 219.195 21.6704 221.763 21.6704C222.709 21.6704 224.033 21.3552 225.12 20.7249L222.867 17.7151C222.551 17.92 222.173 18.0933 221.716 18.0933C221.149 18.0933 220.093 17.6679 220.093 16.2339V9.77307H223.024V6.18023H220.093V2.41406H216.658V6.18023H214.846V9.77307H216.658V16.2811Z" fill="#BF2025"/>
<path d="M191.618 15.0839L196.677 21.2926H201.483L194.659 13.256L200.537 6.16486H195.731L191.618 11.4281V1.15381H188.088V21.2926H191.618V15.0839Z" fill="#BF2025"/>
<path d="M230.777 5.78662C226.806 5.78662 223.954 9.26915 223.954 13.7287C223.954 18.4088 227.531 21.6707 231.108 21.6707C232.92 21.6707 235.237 21.0562 237.191 18.2828L234.165 16.5336C231.817 19.9846 227.909 18.2355 227.468 14.7845H237.348C238.199 9.3637 234.685 5.78662 230.777 5.78662ZM227.594 11.7747C228.319 8.22912 233.109 8.02427 233.771 11.7747H227.594Z" fill="#BF2025"/>
<path d="M267.114 7.72482C267.083 7.12602 267.067 6.88965 267.508 6.62176C267.824 6.43266 269.525 5.43991 272.614 4.49442C272.992 4.36836 273.339 4.44715 273.56 4.69928C273.796 4.9514 273.843 5.36111 273.686 5.70779C273.402 6.33811 273.323 6.93692 273.638 7.18904C273.906 7.3939 274.158 7.47269 274.962 7.04722C276.018 6.49569 277.247 5.12474 277.168 2.87134C277.137 2.06768 276.837 1.45312 276.27 1.07493C275.734 0.712491 275.009 0.586426 274.284 0.586426C272.283 0.586426 271.322 1.09068 268.69 2.02041C265.034 3.32833 260.433 4.8411 257.896 5.47142C256.856 5.72355 255.926 6.49569 255.926 7.55148C255.926 9.22183 257.943 9.6473 259.314 9.19032C259.598 9.09577 262.466 8.05574 263.474 7.92967C263.616 7.91392 263.695 7.96119 263.695 8.0715C263.711 8.21332 263.774 9.6473 263.805 10.2934C263.916 13.0353 264.152 18.3457 264.168 18.7082C264.215 19.4173 264.215 21.6234 265.428 21.6234C266.547 21.6234 267.099 20.4258 267.382 18.7082C267.776 16.2657 267.445 12.7832 267.288 9.99398C267.225 9.23759 267.114 7.72482 267.114 7.72482Z" fill="#BF2025"/>
<path d="M282.149 3.34375C280.636 3.34375 279.202 6.13292 278.162 8.6227C276.854 11.7585 276.129 14.5792 275.688 15.509C275.341 14.6107 274.443 11.9319 273.986 10.9706C273.198 9.33181 272.363 8.0554 271.307 8.0554C270.708 8.0554 270.015 8.41784 270.015 9.47363C270.015 10.23 270.33 11.1597 270.645 12.0264C270.756 12.3101 272.788 17.2266 273.072 18.1406C273.072 18.1406 274.049 21.1188 274.128 21.3867C274.727 23.1674 275.278 23.4037 275.656 23.4037C276.271 23.4037 277.106 23.1516 277.531 21.3394C277.799 20.1733 278.193 18.8497 278.524 17.7781C279.123 15.8241 280.62 12.121 281.581 9.86758C282.369 8.03965 283.346 5.92807 283.346 4.62015C283.33 3.98983 283.063 3.34375 282.149 3.34375Z" fill="#BF2025"/>
<path d="M17.8068 1.89648L11.2988 21.3104H6.46104L0.000244141 1.89648H4.27067L8.99809 17.1975L13.7255 1.89648H17.8068Z" fill="black"/>
<path d="M22.1401 5.22102C21.4625 5.22102 20.8952 4.98465 20.454 4.52766C19.997 4.07068 19.7764 3.51915 19.7764 2.88883C19.7764 2.25851 19.997 1.70698 20.454 1.24999C20.9109 0.79301 21.4625 0.556641 22.1401 0.556641C22.8334 0.556641 23.4007 0.79301 23.8577 1.24999C24.3147 1.70698 24.5353 2.25851 24.5353 2.88883C24.5353 3.51915 24.3147 4.07068 23.8577 4.52766C23.4165 4.98465 22.8334 5.22102 22.1401 5.22102ZM20.1703 21.31V6.81258H24.1098V21.31H20.1703Z" fill="black"/>
<path d="M33.3753 21.657C32.1777 21.657 31.0904 21.3418 30.1291 20.6957C29.1679 20.0654 28.3958 19.1672 27.8285 18.0169C27.2612 16.8665 26.9775 15.5429 26.9775 14.0458C26.9775 12.5646 27.2454 11.2567 27.797 10.1063C28.3485 8.95599 29.0891 8.07354 30.0188 7.42746C30.9643 6.79714 32.0201 6.46622 33.202 6.46622C34.1947 6.46622 35.0614 6.68683 35.8178 7.1123C36.5742 7.53777 37.1572 8.13658 37.5669 8.89296V1.3291H41.5065V21.3103H38.1342L37.8191 19.0569C37.4409 19.8448 36.8578 20.4751 36.0699 20.9479C35.2663 21.4206 34.3681 21.657 33.3753 21.657ZM34.305 18.0799C35.2663 18.0799 36.0542 17.7175 36.6687 16.9611C37.2833 16.2204 37.5985 15.2434 37.5985 14.0458C37.5985 12.864 37.2833 11.9027 36.6687 11.1621C36.0542 10.4215 35.2663 10.0433 34.305 10.0433C33.328 10.0433 32.5401 10.4215 31.9256 11.1621C31.311 11.9027 31.0116 12.864 31.0116 14.0458C31.0116 15.2434 31.311 16.2204 31.9256 16.9611C32.5401 17.7017 33.328 18.0799 34.305 18.0799Z" fill="black"/>
<path d="M51.7495 21.7033C50.2052 21.7033 48.8815 21.3881 47.7627 20.7578C46.6438 20.1275 45.7929 19.245 45.1941 18.0947C44.5953 16.9443 44.2959 15.6049 44.2959 14.0449C44.2959 12.5636 44.5953 11.2557 45.1941 10.1053C45.7929 8.95501 46.6123 8.05681 47.6681 7.41073C48.7239 6.74889 49.9058 6.41797 51.2452 6.41797C52.5846 6.41797 53.7507 6.73313 54.7592 7.36345C55.7678 7.99377 56.5557 8.87622 57.1229 10.0266C57.6902 11.1769 57.9739 12.4848 57.9739 13.9661V15.1479H48.2669C48.5821 17.3383 49.8585 18.4414 52.0961 18.4414C53.6562 18.4414 55.0586 17.7795 56.2878 16.4401L57.8321 19.3711C57.0284 20.1275 56.0987 20.6948 55.0429 21.1045C53.9871 21.4984 52.8998 21.7033 51.7495 21.7033ZM51.2137 9.49079C50.4415 9.49079 49.8112 9.75867 49.307 10.2944C48.8027 10.8302 48.456 11.5866 48.2984 12.5951H54.0974C53.9871 11.6024 53.6877 10.8302 53.1834 10.2944C52.6792 9.75867 52.0173 9.49079 51.2137 9.49079Z" fill="black"/>
<path d="M67.2556 21.7033C65.8532 21.7033 64.5925 21.3723 63.4737 20.7105C62.3549 20.0487 61.4724 19.1505 60.8264 18.0159C60.1803 16.8656 59.8494 15.5419 59.8494 14.0449C59.8494 12.5636 60.1803 11.2399 60.8264 10.0896C61.4724 8.93926 62.3549 8.04105 63.4737 7.39497C64.5925 6.74889 65.8532 6.41797 67.2556 6.41797C68.6581 6.41797 69.9188 6.74889 71.0376 7.39497C72.1564 8.04105 73.0388 8.93926 73.6849 10.0896C74.331 11.2399 74.6619 12.5636 74.6619 14.0449C74.6619 15.5419 74.331 16.8656 73.6849 18.0159C73.0388 19.1662 72.1564 20.0644 71.0376 20.7105C69.9188 21.3723 68.6581 21.7033 67.2556 21.7033ZM67.2556 18.0789C68.2484 18.0789 69.0521 17.7165 69.6824 16.9759C70.297 16.251 70.6121 15.274 70.6121 14.0449C70.6121 12.8472 70.297 11.8703 69.6824 11.1296C69.0678 10.389 68.2484 10.0108 67.2556 10.0108C66.2786 10.0108 65.475 10.389 64.8447 11.1296C64.2143 11.8703 63.8992 12.8472 63.8992 14.0449C63.8992 15.2582 64.2143 16.2352 64.8447 16.9759C65.475 17.7007 66.2786 18.0789 67.2556 18.0789Z" fill="black"/>
<path d="M83.8329 21.7033C82.4146 21.7033 81.154 21.3881 80.0825 20.7578C79.0109 20.1275 78.1757 19.245 77.5769 18.1262C76.9781 17.0074 76.6787 15.6995 76.6787 14.2182C76.6787 12.6739 76.9781 11.3187 77.5927 10.1526C78.2072 8.98653 79.0582 8.07257 80.1455 7.41073C81.2328 6.74889 82.4934 6.41797 83.9117 6.41797C85.0778 6.41797 86.1493 6.65434 87.1263 7.11132C88.1033 7.5683 88.9385 8.2459 89.6318 9.12835L87.5518 12.1697C86.559 10.7514 85.4244 10.0266 84.148 10.0266C83.1553 10.0266 82.3359 10.4048 81.7055 11.1611C81.0752 11.9175 80.7443 12.8945 80.7443 14.1079C80.7443 15.2898 81.0752 16.251 81.7213 16.9916C82.3674 17.7322 83.2025 18.1104 84.2426 18.1104C84.9202 18.1104 85.519 17.9529 86.0547 17.6377C86.5905 17.3225 87.1421 16.7868 87.7251 16.0304L89.7579 19.0717C89.0488 19.9226 88.1663 20.5687 87.1421 21.0257C86.0863 21.4827 84.999 21.7033 83.8329 21.7033Z" fill="black"/>
<path d="M92.0271 21.3103V1.3291H95.9666V21.3103H92.0271Z" fill="black"/>
<path d="M104.428 21.6556C102.837 21.6556 101.592 21.0725 100.678 19.9222C99.7797 18.7719 99.3228 17.1173 99.3228 14.9899V6.82728H103.262V14.6748C103.262 15.7621 103.483 16.5973 103.908 17.1646C104.334 17.7318 104.933 18.0155 105.689 18.0155C106.508 18.0155 107.202 17.6688 107.722 16.9597C108.258 16.2506 108.525 15.3839 108.525 14.3281V6.81152H112.465V21.3089H109.093L108.778 19.0555C108.352 19.8434 107.738 20.4737 106.965 20.9465C106.193 21.4192 105.342 21.6556 104.428 21.6556Z" fill="black"/>
<path d="M124.19 21.657C123.213 21.657 122.33 21.4206 121.542 20.9479C120.754 20.4751 120.156 19.8448 119.762 19.0569L119.478 21.3103H116.074V1.3291H120.014V8.89296C120.423 8.13658 121.006 7.55353 121.763 7.1123C122.519 6.68683 123.386 6.46622 124.379 6.46622C125.561 6.46622 126.616 6.78138 127.562 7.42746C128.507 8.07354 129.248 8.95599 129.799 10.1063C130.351 11.2567 130.635 12.5646 130.635 14.0458C130.635 15.5429 130.351 16.8665 129.784 18.0169C129.216 19.1672 128.444 20.0497 127.467 20.6957C126.475 21.3261 125.387 21.657 124.19 21.657ZM123.291 18.0799C124.253 18.0799 125.041 17.7175 125.655 16.9611C126.27 16.2204 126.585 15.2434 126.585 14.0458C126.585 12.864 126.27 11.9027 125.655 11.1621C125.041 10.4215 124.253 10.0433 123.291 10.0433C122.314 10.0433 121.527 10.4215 120.912 11.1621C120.297 11.9027 119.998 12.864 119.998 14.0458C119.998 15.2434 120.297 16.2204 120.912 16.9611C121.511 17.7017 122.314 18.0799 123.291 18.0799Z" fill="black"/>
<path d="M142.201 21.5622C141.728 21.5622 141.287 21.4519 140.909 21.2313C140.53 21.0107 140.247 20.6955 140.058 20.3016L139.932 21.4204H138.513V11.9971H140.168V15.6529C140.357 15.2905 140.641 14.9911 141.003 14.7705C141.366 14.5499 141.791 14.4396 142.28 14.4396C142.831 14.4396 143.335 14.5972 143.777 14.8966C144.218 15.196 144.565 15.6214 144.832 16.1572C145.1 16.693 145.226 17.3075 145.226 18.0166C145.226 18.71 145.085 19.3403 144.817 19.8603C144.549 20.3961 144.186 20.8216 143.729 21.121C143.288 21.4204 142.768 21.5622 142.201 21.5622ZM141.838 20.0337C142.327 20.0337 142.737 19.8446 143.052 19.4664C143.367 19.0882 143.524 18.5997 143.524 18.0009C143.524 17.4021 143.367 16.9136 143.052 16.5354C142.737 16.1572 142.327 15.9681 141.838 15.9681C141.35 15.9681 140.956 16.1572 140.625 16.5354C140.31 16.9136 140.152 17.4021 140.152 18.0009C140.152 18.5997 140.31 19.0882 140.625 19.4664C140.94 19.8446 141.35 20.0337 141.838 20.0337Z" fill="black"/>
<path d="M146.392 23.9417L148.22 20.3331L145.446 14.5972H147.369L149.134 18.6785L150.899 14.5972H152.663L148.125 23.9417H146.392Z" fill="black"/>
</svg>
