<svg width="24" height="24" viewBox="0 0 24 24" xmlns="http://www.w3.org/2000/svg"><path d="M22.763 10.075a.498.498 0 00-.487-.022L17 12.69V12c0-1.103-.897-2-2-2H3.5C2.36 10 1 11.128 1 16.5S2.36 23 3.5 23H15c1.103 0 2-.897 2-2v-.69l5.276 2.637A.501.501 0 0023 22.5v-12a.5.5 0 00-.237-.425zM22 21.69l-5.276-2.638A.499.499 0 0016 19.5V21c0 .551-.449 1-1 1H3.5C2.753 22 2 20.3 2 16.5S2.753 11 3.5 11H15c.551 0 1 .449 1 1v1.5a.5.5 0 00.724.447L22 11.31v10.382zM6 9c1.516 0 2.822-.858 3.5-2.104C10.178 8.142 11.484 9 13 9c2.206 0 4-1.794 4-4s-1.794-4-4-4c-1.516 0-2.822.858-3.5 2.104C8.822 1.858 7.516 1 6 1 3.794 1 2 2.794 2 5s1.794 4 4 4zm7-7c1.654 0 3 1.346 3 3s-1.346 3-3 3-3-1.346-3-3 1.346-3 3-3zM6 2c1.654 0 3 1.346 3 3S7.654 8 6 8 3 6.654 3 5s1.346-3 3-3z" fill="primary" fill-rule="evenodd"/></svg>