<svg width="440" height="85" viewBox="0 0 440 85" fill="none" xmlns="http://www.w3.org/2000/svg">
<rect width="440" height="84" transform="translate(0 0.799805)" fill="white"/>
<path d="M24 40.8333V32.0449H26.4487V41.0426H30.7755V43.2918H25.4204L24.4569 42.1193C24.1307 41.7015 24 41.3149 24 40.8333Z" fill="#00D4D6"/>
<path d="M32.0975 41.4603L34.7427 32.0449H37.5509C38.0736 32.0449 38.3999 32.2861 38.5468 32.7997L40.9792 41.4603C41.0937 41.8461 41.1099 42.1033 41.1099 42.6009V43.2918H38.938L38.0728 39.8693L34.5625 41.6368L34.138 43.2918H31.9661V42.6009C31.9661 42.1025 31.9831 41.8461 32.0975 41.4603ZM37.9583 39.4355L36.6686 34.2941H36.4073L35.1176 39.4355H37.9583Z" fill="#00D4D6"/>
<path d="M42.2212 40.8333V32.0449H44.6707V41.0426H48.9975V43.2918H43.6424L42.6789 42.1193C42.3527 41.7015 42.222 41.3157 42.222 40.8341" fill="#00D4D6"/>
<path d="M52.834 32.0449H50.3845V43.2926H52.834V32.0449Z" fill="#00D4D6"/>
<path d="M54.4993 39.7214V35.6151C54.4993 33.2214 55.8214 31.9194 58.2547 31.9194H59.3268C61.7268 31.9194 63.0823 33.1247 63.0823 35.2613H60.6328V34.8116C60.6328 34.3939 60.4039 34.1686 59.9794 34.1686H57.6013C57.1768 34.1686 56.948 34.3939 56.948 34.8116V40.5249C56.948 40.9427 57.1768 41.1679 57.6013 41.1679H59.9794C60.4039 41.1679 60.6328 40.9427 60.6328 40.5249V39.1112H58.9348V36.862H61.6619L62.6253 38.0353C62.9516 38.437 63.0823 38.8069 63.0823 39.3204V39.7222C63.0823 42.116 61.7601 43.4179 59.3268 43.4179H58.2547C55.8222 43.4179 54.4993 42.116 54.4993 39.7214Z" fill="#00D4D6"/>
<path d="M63.9511 41.4603L66.5962 32.0449H69.4044C69.9271 32.0449 70.2534 32.2861 70.4003 32.7997L72.8327 41.4603C72.9472 41.8461 72.9634 42.1033 72.9634 42.6009V43.2918H70.7915L69.9263 39.8693L66.416 41.6368L65.9915 43.2918H63.8196V42.6009C63.8196 42.1025 63.8366 41.8461 63.9511 41.4603ZM69.8118 39.4355L68.5222 34.2941H68.2608L66.9711 39.4355H69.8118Z" fill="#00D4D6"/>
<path d="M28.9534 50.3208H28.6855V50.6467H28.9534C28.9769 50.6467 28.9964 50.6387 29.0118 50.6219C29.0264 50.6044 29.0337 50.582 29.0337 50.5548V50.4143C29.0337 50.3871 29.0264 50.3647 29.0118 50.3472C28.9972 50.3296 28.9777 50.3208 28.9534 50.3208Z" fill="#00D4D6"/>
<path d="M27.9436 50.3188H27.7472C27.7212 50.3188 27.7017 50.3268 27.6863 50.3444C27.6717 50.362 27.6644 50.3843 27.6644 50.4115V50.9962C27.6636 51.0225 27.6709 51.0449 27.6855 51.0625C27.7009 51.0808 27.7204 51.0904 27.7463 51.0904H27.9428C27.9663 51.0904 27.9866 51.0808 28.0012 51.0633C28.0174 51.0457 28.0247 51.0233 28.0247 50.997V50.4123C28.0255 50.3851 28.0182 50.3628 28.002 50.3452C27.9866 50.3276 27.9671 50.3188 27.9436 50.3188Z" fill="#00D4D6"/>
<path d="M26.9618 50.3169H26.6826V50.6699H26.9618C26.9854 50.6699 27.0056 50.6611 27.0211 50.6444C27.0365 50.6268 27.0446 50.6044 27.0446 50.5773V50.4111C27.0446 50.3832 27.0373 50.3616 27.0219 50.3441C27.0065 50.3265 26.987 50.3177 26.9626 50.3177" fill="#00D4D6"/>
<path d="M28.296 45.272C25.9268 45.2688 24.0033 47.1554 24 49.4869C23.9968 51.8183 25.9138 53.7113 28.283 53.7145C30.6521 53.7177 32.5757 51.8311 32.5789 49.4996C32.5822 47.1682 30.6651 45.2752 28.296 45.272ZM26.6898 47.2233L28.8949 47.2265L28.5565 47.752L26.3521 47.7496L26.6898 47.2233ZM26.2369 51.0292C26.2369 51.0971 26.2133 51.1538 26.1654 51.2009C26.1176 51.2481 26.0591 51.272 25.9917 51.272H25.7012C25.6322 51.272 25.5746 51.2489 25.5283 51.2033C25.482 51.1578 25.4593 51.1019 25.4593 51.0324V50.919H25.6379L25.6638 51.0236C25.676 51.0667 25.7061 51.0891 25.7556 51.0891H25.952C25.9763 51.0891 25.9966 51.0803 26.012 51.0628C26.0266 51.0452 26.034 51.0228 26.034 50.9957V50.8711C26.034 50.8096 26.0072 50.7784 25.952 50.7784H25.7052C25.6379 50.7784 25.5786 50.7544 25.5299 50.7073C25.4829 50.6594 25.4585 50.6027 25.4593 50.5356V50.3711C25.4593 50.3048 25.4837 50.2481 25.5307 50.2009C25.5794 50.1538 25.6387 50.1298 25.7061 50.1298H25.9934C26.0607 50.1298 26.1184 50.153 26.1654 50.1985C26.2125 50.2441 26.2344 50.3008 26.2344 50.3687V50.4709H26.0567L26.0299 50.3782C26.0161 50.3343 25.9853 50.3127 25.939 50.3119H25.745C25.7199 50.3119 25.6996 50.3207 25.685 50.3383C25.6687 50.3559 25.6622 50.3782 25.6622 50.4062V50.502C25.6622 50.562 25.689 50.5915 25.745 50.5915H25.9926C26.0591 50.5915 26.1167 50.6163 26.1654 50.6642C26.2141 50.7121 26.2377 50.7688 26.2377 50.8351V51.0276L26.2369 51.0292ZM27.2482 50.6131C27.2482 50.6802 27.2238 50.7369 27.1759 50.784C27.1264 50.8311 27.068 50.8551 27.0006 50.8551H26.6816V51.2728H26.4771L26.4787 50.1322H27.0022C27.0696 50.133 27.1288 50.157 27.1775 50.2041C27.2246 50.2504 27.249 50.308 27.249 50.3735L27.2482 50.6131ZM28.2286 51.03C28.2286 51.0995 28.2051 51.157 28.1556 51.2033C28.1069 51.2505 28.05 51.2744 27.9811 51.2744H27.7043C27.6353 51.2744 27.5769 51.2497 27.529 51.2025C27.4811 51.1562 27.4567 51.0979 27.4567 51.0292V50.3735C27.4576 50.308 27.4827 50.2512 27.5306 50.2041C27.5785 50.157 27.6369 50.133 27.7059 50.133H27.9827C28.0517 50.133 28.1085 50.157 28.1572 50.2041C28.2067 50.2504 28.2294 50.308 28.2294 50.3742V51.0292L28.2286 51.03ZM28.2805 49.8631L25.4877 49.8599L26.1687 48.8048H25.6703L26.0104 48.2768L28.0874 48.28L27.7473 48.8071L26.8164 48.8055L26.4714 49.3335L27.9705 49.3359L29.3446 47.2081L31.0466 49.8671H30.403L30.0645 49.3383L29.0557 49.3367L29.3957 48.8087H29.7261L29.3422 48.2089L28.2805 49.8631ZM29.0654 51.276L28.8771 50.8295H28.6831V51.2752H28.4786L28.4802 50.1346H28.9923C29.0613 50.1346 29.119 50.1586 29.1668 50.2065C29.2147 50.2528 29.2391 50.3104 29.2391 50.3758V50.5747C29.2391 50.6266 29.2245 50.6738 29.1953 50.7153C29.1652 50.756 29.1271 50.7856 29.0824 50.8048L29.2845 51.276H29.067H29.0654ZM30.1635 50.3215H29.8665L29.8648 51.2768H29.6595L29.6611 50.3207H29.3665V50.1362L30.1635 50.1378V50.3215ZM31.0904 51.0356C31.0904 51.1035 31.0661 51.1602 31.019 51.2073C30.9703 51.2544 30.9118 51.2784 30.8437 51.2784H30.5539C30.4849 51.2784 30.4273 51.2552 30.381 51.2097C30.3348 51.1642 30.3112 51.1083 30.3121 51.0388V50.9254H30.4906L30.5174 51.03C30.5296 51.0731 30.5596 51.0955 30.6091 51.0955H30.8055C30.8307 51.0955 30.851 51.0875 30.8664 51.0691C30.881 51.0516 30.8883 51.0284 30.8883 51.002V50.8774C30.8883 50.8159 30.8615 50.7848 30.8063 50.7848H30.5596C30.4914 50.7848 30.433 50.7608 30.3859 50.7129C30.338 50.665 30.3137 50.6083 30.3137 50.5412V50.3766C30.3137 50.3104 30.3388 50.2536 30.3867 50.2065C30.4338 50.1594 30.493 50.1354 30.5612 50.1354H30.8469C30.9159 50.1354 30.9727 50.1586 31.0198 50.2041C31.0661 50.2496 31.0896 50.3056 31.0896 50.3742V50.4765H30.911L30.8843 50.3838C30.8705 50.3399 30.8396 50.3183 30.7942 50.3175H30.6002C30.575 50.3175 30.5547 50.3263 30.5401 50.3439C30.5255 50.3615 30.5174 50.3838 30.5174 50.4118V50.5076C30.5174 50.5675 30.545 50.5971 30.6002 50.5979H30.8469C30.9143 50.5979 30.9719 50.6227 31.0198 50.6706C31.0693 50.7185 31.0937 50.7752 31.0937 50.8415V51.0348L31.0904 51.0356ZM31.2162 50.1953H31.1724V50.2864H31.1505V50.1945H31.1075V50.1754H31.217V50.1945L31.2162 50.1953ZM31.3461 50.2872V50.2193C31.3461 50.2193 31.3461 50.2129 31.3461 50.2073C31.3436 50.2121 31.3436 50.2153 31.3404 50.2193L31.3047 50.2736H31.3014L31.2649 50.2185C31.2649 50.2185 31.26 50.2113 31.2584 50.2073C31.2584 50.2121 31.2609 50.2153 31.2609 50.2193V50.2872H31.2422V50.177H31.2617L31.3055 50.2441L31.3501 50.1778H31.3672V50.288H31.3469L31.3461 50.2872Z" fill="#00D4D6"/>
<path d="M37.5803 48.6693H35.1219V47.1445H34.0732V51.2612H35.1219V49.5751H37.5803V51.2612H38.6354V47.1445H37.5803V48.6693Z" fill="#00D4D6"/>
<path d="M41.6061 48.6524L40.2247 47.1444H38.9075L40.8538 49.2833C40.9934 49.4367 41.0705 49.6348 41.0705 49.8409V51.2602H42.1191V49.8457C42.1191 49.6372 42.1978 49.4367 42.3407 49.2825L44.3186 47.1436H42.9705L41.607 48.6516L41.6061 48.6524Z" fill="#00D4D6"/>
<path d="M47.5517 47.1444H44.5974V51.261H45.6525V49.9351C45.6525 49.7833 45.7775 49.6603 45.9317 49.6603H47.5517C48.494 49.6603 49.1271 49.1516 49.1271 48.3944C49.1271 47.6372 48.5087 47.1444 47.5517 47.1444ZM48.0785 48.3952C48.0785 48.503 48.0785 48.7554 47.5517 48.7554H45.6525V48.0461H47.5517C48.0379 48.0461 48.0785 48.2178 48.0785 48.3952Z" fill="#00D4D6"/>
<path d="M50.6078 49.5798H53.4631V48.6845H50.6078V48.0503H53.8462V47.1445H49.5535V51.2612H53.9679V50.3602H50.6078V49.5798Z" fill="#00D4D6"/>
<path d="M59.2648 48.4305C59.2648 47.6493 58.6033 47.1445 57.5798 47.1445H54.5679V51.2612H55.623V49.9505C55.623 49.8131 55.7366 49.7013 55.8762 49.7013H56.8429C57.0182 49.7013 57.1838 49.7931 57.2747 49.9401L58.0887 51.2612H59.2972L58.264 49.6182C58.9036 49.4265 59.2648 49.0032 59.2648 48.4305ZM58.2161 48.4001C58.2161 48.7308 57.8704 48.8003 57.5798 48.8003H55.623V48.0399H57.5798C58.0019 48.0399 58.2161 48.1613 58.2161 48.4001Z" fill="#00D4D6"/>
<path d="M62.3172 49.3626L60.7605 47.1445H59.8027V51.2612H60.8384V49.0072L61.6395 50.1342C61.7961 50.3546 62.0428 50.4824 62.3164 50.484H62.322C62.5931 50.484 62.839 50.3602 62.9973 50.143L63.8349 48.9952V51.2612H64.89V47.1445H63.9282L62.3172 49.3626Z" fill="#00D4D6"/>
<path d="M70.234 48.0587H71.6559C71.8126 48.0587 71.9392 48.1833 71.9392 48.3374V51.2744H72.9748V48.3374C72.9748 48.1833 73.1015 48.0587 73.2581 48.0587H74.6606V47.1577H70.2332L70.234 48.0587Z" fill="#00D4D6"/>
<path d="M76.0133 47.1577H74.9712V51.2744H76.0133V47.1577Z" fill="#00D4D6"/>
<path d="M85.1944 47.1577V49.7823L82.5688 47.1577H81.6362V51.2736H82.6784V48.6577L85.3113 51.2736H86.256V47.1577H85.1944Z" fill="#00D4D6"/>
<path d="M68.29 47.9747C68.807 47.9747 69.2282 48.3892 69.2282 48.898V49.533C69.2282 50.0418 68.807 50.4563 68.29 50.4563H67.2227C66.7057 50.4563 66.2844 50.0418 66.2844 49.533V48.898C66.2844 48.3892 66.7057 47.9747 67.2227 47.9747H68.29ZM68.29 47.0562H67.2227C66.1895 47.0562 65.3511 47.8804 65.3511 48.898V49.533C65.3511 50.5498 66.1887 51.3749 67.2227 51.3749H68.29C69.3232 51.3749 70.1616 50.5506 70.1616 49.533V48.898C70.1616 47.8812 69.324 47.0562 68.29 47.0562Z" fill="#00D4D6"/>
<path d="M79.3972 47.9747C79.9142 47.9747 80.3354 48.3892 80.3354 48.898V49.533C80.3354 50.0418 79.9142 50.4563 79.3972 50.4563H78.3299C77.8129 50.4563 77.3916 50.0418 77.3916 49.533V48.898C77.3916 48.3892 77.8129 47.9747 78.3299 47.9747H79.3972ZM79.3972 47.0562H78.3299C77.2967 47.0562 76.4583 47.8804 76.4583 48.898V49.533C76.4583 50.5498 77.2959 51.3749 78.3299 51.3749H79.3972C80.4304 51.3749 81.2688 50.5506 81.2688 49.533V48.898C81.2688 47.8812 80.4312 47.0562 79.3972 47.0562Z" fill="#00D4D6"/>
<path d="M91.6689 47.293L89.5221 50.952L87.3753 47.293H88.0953L89.3557 49.4416L89.5213 49.7235L89.6869 49.4416L90.9473 47.293H91.6672M91.9984 47.1045H90.8369L89.5213 49.3473L88.2056 47.1045H87.0442L89.5221 51.3274L92 47.1045H91.9984Z" fill="#00D4D6"/>
<path d="M75.0854 40.6528C75.0854 41.164 75.2242 41.5729 75.57 42.0154L76.591 43.259H91.9998V32.0449H75.0854V40.6528ZM83.3852 34.8277H85.5465L86.7039 39.0298H86.846L88.0034 34.8277H90.1647V36.0881L88.5918 40.7103H84.9581L83.3852 36.0881V34.8277ZM76.9205 34.8277H82.8779V36.5921H81.1224V40.7103H78.6867V36.5921H76.9205V34.8277Z" fill="#00D4D6"/>
<mask id="mask0_4443_12224" style="mask-type:luminance" maskUnits="userSpaceOnUse" x="142" y="10" width="48" height="53">
<path d="M142.2 10.1602H189.241V62.8272H142.2V10.1602Z" fill="white"/>
</mask>
<g mask="url(#mask0_4443_12224)">
<path fill-rule="evenodd" clip-rule="evenodd" d="M189.241 20.9033V45.3911C189.241 49.8483 186.464 53.6712 182.509 55.2979C182.628 50.786 181.706 42.6398 173.641 34.6694C168 29.0947 163.793 33.0593 162.899 33.4964C162.254 33.8117 161.505 32.2689 161.523 31.4231C161.585 28.7502 165.101 28.1055 166.693 24.8893C167.433 23.3932 167.091 21.3159 166.092 19.842C167.022 20.3782 168.733 24.5915 168.979 27.0838C169.085 15.8386 163.043 15.9186 162.104 15.7935C161.022 15.6493 158.242 15.7998 156.712 17.0923C155.572 18.0561 152.119 18.8647 150.966 19.1467C149.812 19.4286 148.838 19.8436 146.991 20.3228C147.862 20.318 151.465 20.417 152.439 20.6641C153.413 20.9104 157.819 21.4474 158.754 21.3737C160.978 21.1979 163.498 22.9521 162.608 24.8362C161.521 27.1361 159.872 27.4854 158.33 30.0078C152.469 39.5931 164.837 47.9246 165.172 49.6773C165.61 51.9716 170.609 56.1342 170.609 56.1342H160.116L157.692 62.8272L154.563 56.1342H153.193C147.121 56.1342 142.2 51.3246 142.2 45.3911V20.9033C142.2 14.9698 147.121 10.1602 153.193 10.1602H178.249C184.32 10.1602 189.241 14.9698 189.241 20.9033ZM177.79 17.4622L180.552 23.3243H180.69L183.435 17.4622H182.608L180.618 21.7293L178.612 17.4622H177.79ZM172.91 16.1689H174.724V23.3243H175.551V16.1689H177.359V15.3983H172.91V16.1689Z" fill="#003D48"/>
</g>
<mask id="mask1_4443_12224" style="mask-type:luminance" maskUnits="userSpaceOnUse" x="142" y="10" width="48" height="66">
<path d="M142.2 75.4402H189.429V10.1602H142.2V75.4402Z" fill="white"/>
</mask>
<g mask="url(#mask1_4443_12224)">
<path fill-rule="evenodd" clip-rule="evenodd" d="M142.4 75.2587H143.373V65.7471H142.4V75.2587Z" fill="#003D48"/>
</g>
<mask id="mask2_4443_12224" style="mask-type:luminance" maskUnits="userSpaceOnUse" x="142" y="10" width="48" height="66">
<path d="M142.2 75.4402H189.429V10.1602H142.2V75.4402Z" fill="white"/>
</mask>
<g mask="url(#mask2_4443_12224)">
<path fill-rule="evenodd" clip-rule="evenodd" d="M149.215 74.5672C149.732 74.5672 150.208 74.4444 150.644 74.1989C151.081 73.9487 151.427 73.5994 151.683 73.1511C151.943 72.7029 152.073 72.2285 152.073 71.7288C152.073 71.2282 151.943 70.7523 151.683 70.2993C151.423 69.847 151.073 69.4954 150.631 69.2451C150.194 68.9909 149.727 68.8642 149.228 68.8642C148.721 68.8642 148.238 68.9909 147.779 69.2451C147.325 69.4954 146.974 69.8336 146.728 70.2612C146.485 70.6873 146.363 71.168 146.363 71.7026C146.363 72.5176 146.637 73.1979 147.184 73.7459C147.735 74.2932 148.412 74.5672 149.215 74.5672ZM145.51 75.2594V65.5078H146.429V69.4328C146.818 68.9672 147.253 68.6203 147.733 68.3922C148.214 68.1593 148.741 68.0429 149.314 68.0429C150.333 68.0429 151.202 68.4049 151.921 69.1287C152.645 69.8486 153.006 70.7238 153.006 71.7541C153.006 72.7718 152.642 73.6406 151.915 74.3605C151.187 75.0804 150.312 75.44 149.288 75.44C148.701 75.44 148.169 75.3172 147.694 75.0717C147.217 74.8262 146.796 74.4571 146.429 73.9661V75.2594H145.51Z" fill="#003D48"/>
</g>
<mask id="mask3_4443_12224" style="mask-type:luminance" maskUnits="userSpaceOnUse" x="142" y="10" width="48" height="66">
<path d="M142.2 75.4402H189.429V10.1602H142.2V75.4402Z" fill="white"/>
</mask>
<g mask="url(#mask3_4443_12224)">
<path fill-rule="evenodd" clip-rule="evenodd" d="M160.754 71.0298C160.631 70.5475 160.45 70.1618 160.212 69.8727C159.977 69.5837 159.666 69.3508 159.278 69.1742C158.89 68.9976 158.482 68.9089 158.055 68.9089C157.348 68.9089 156.742 69.1314 156.235 69.5749C155.864 69.8981 155.584 70.3836 155.394 71.0298H160.754ZM160.754 72.9242L161.534 73.3249C161.278 73.8168 160.983 74.2135 160.648 74.5153C160.313 74.817 159.935 75.0475 159.516 75.2075C159.097 75.3627 158.623 75.4395 158.094 75.4395C156.921 75.4395 156.004 75.0649 155.342 74.3149C154.68 73.5602 154.349 72.7096 154.349 71.7608C154.349 70.8682 154.629 70.0731 155.189 69.3746C155.9 68.4868 156.85 68.0425 158.041 68.0425C159.268 68.0425 160.246 68.4971 160.978 69.4071C161.499 70.0493 161.764 70.8508 161.772 71.8123H155.302C155.32 72.6312 155.586 73.3043 156.102 73.8302C156.619 74.3513 157.256 74.6119 158.015 74.6119C158.38 74.6119 158.735 74.5501 159.08 74.425C159.428 74.2999 159.724 74.1335 159.966 73.9268C160.209 73.7193 160.471 73.3859 160.754 72.9242Z" fill="#003D48"/>
</g>
<mask id="mask4_4443_12224" style="mask-type:luminance" maskUnits="userSpaceOnUse" x="142" y="10" width="48" height="66">
<path d="M142.2 75.4402H189.429V10.1602H142.2V75.4402Z" fill="white"/>
</mask>
<g mask="url(#mask4_4443_12224)">
<path fill-rule="evenodd" clip-rule="evenodd" d="M163.149 68.2238H164.095V69.2518C164.377 68.8471 164.675 68.5454 164.988 68.3466C165.301 68.1439 165.628 68.0425 165.967 68.0425C166.223 68.0425 166.496 68.1225 166.788 68.2824L166.305 69.0451C166.111 68.9635 165.948 68.9224 165.816 68.9224C165.506 68.9224 165.209 69.0475 164.922 69.297C164.635 69.5433 164.417 69.9266 164.267 70.4485C164.152 70.8492 164.095 71.6594 164.095 72.8791V75.2589H163.149V68.2238Z" fill="#003D48"/>
</g>
<mask id="mask5_4443_12224" style="mask-type:luminance" maskUnits="userSpaceOnUse" x="142" y="10" width="48" height="66">
<path d="M142.2 75.4402H189.429V10.1602H142.2V75.4402Z" fill="white"/>
</mask>
<g mask="url(#mask5_4443_12224)">
<path fill-rule="evenodd" clip-rule="evenodd" d="M171.042 68.9152C170.526 68.9152 170.05 69.0404 169.613 69.2906C169.176 69.5361 168.828 69.8838 168.568 70.3313C168.311 70.7795 168.184 71.2539 168.184 71.7537C168.184 72.2502 168.314 72.7238 168.575 73.1768C168.834 73.6299 169.183 73.9831 169.62 74.2373C170.061 74.4876 170.533 74.6119 171.036 74.6119C171.543 74.6119 172.024 74.4876 172.477 74.2373C172.932 73.987 173.28 73.6489 173.524 73.222C173.77 72.7951 173.894 72.3144 173.894 71.7798C173.894 70.9649 173.618 70.2846 173.066 69.7365C172.52 69.1893 171.845 68.9152 171.042 68.9152ZM174.747 68.223V75.2589H173.834V74.0496C173.446 74.5105 173.009 74.8582 172.524 75.0903C172.043 75.3231 171.516 75.4395 170.943 75.4395C169.924 75.4395 169.053 75.08 168.329 74.36C167.611 73.6354 167.251 72.7563 167.251 71.7212C167.251 70.7091 167.615 69.8418 168.342 69.1227C169.071 68.4028 169.946 68.0425 170.969 68.0425C171.56 68.0425 172.094 68.1652 172.571 68.4107C173.051 68.6563 173.472 69.0253 173.834 69.5171V68.223H174.747Z" fill="#003D48"/>
</g>
<mask id="mask6_4443_12224" style="mask-type:luminance" maskUnits="userSpaceOnUse" x="142" y="10" width="48" height="66">
<path d="M142.2 75.4402H189.429V10.1602H142.2V75.4402Z" fill="white"/>
</mask>
<g mask="url(#mask6_4443_12224)">
<path fill-rule="evenodd" clip-rule="evenodd" d="M176.692 75.2594H177.618V65.5078H176.692V75.2594Z" fill="#003D48"/>
</g>
<mask id="mask7_4443_12224" style="mask-type:luminance" maskUnits="userSpaceOnUse" x="142" y="10" width="48" height="66">
<path d="M142.2 75.4402H189.429V10.1602H142.2V75.4402Z" fill="white"/>
</mask>
<g mask="url(#mask7_4443_12224)">
<path fill-rule="evenodd" clip-rule="evenodd" d="M179.405 75.2588H180.338V68.2237H179.405V75.2588ZM179.868 65.3267C180.08 65.3267 180.261 65.4003 180.411 65.5468C180.56 65.6933 180.635 65.8707 180.636 66.0774C180.636 66.2794 180.56 66.4544 180.411 66.6009C180.261 66.7475 180.08 66.8211 179.868 66.8211C179.66 66.8211 179.482 66.7475 179.332 66.6009C179.182 66.4544 179.107 66.2794 179.107 66.0774C179.107 65.8707 179.182 65.6933 179.332 65.5468C179.482 65.4003 179.66 65.3275 179.868 65.3267Z" fill="#003D48"/>
</g>
<mask id="mask8_4443_12224" style="mask-type:luminance" maskUnits="userSpaceOnUse" x="142" y="10" width="48" height="66">
<path d="M142.2 75.4402H189.429V10.1602H142.2V75.4402Z" fill="white"/>
</mask>
<g mask="url(#mask8_4443_12224)">
<path fill-rule="evenodd" clip-rule="evenodd" d="M185.724 68.9152C185.207 68.9152 184.731 69.0404 184.294 69.2906C183.857 69.5361 183.509 69.8838 183.249 70.3313C182.993 70.7795 182.866 71.2539 182.866 71.7537C182.866 72.2502 182.995 72.7238 183.256 73.1768C183.515 73.6299 183.864 73.9831 184.301 74.2373C184.742 74.4876 185.214 74.6119 185.717 74.6119C186.224 74.6119 186.705 74.4876 187.159 74.2373C187.614 73.987 187.962 73.6489 188.205 73.222C188.452 72.7951 188.575 72.3144 188.575 71.7798C188.575 70.9649 188.3 70.2846 187.749 69.7365C187.201 69.1893 186.527 68.9152 185.724 68.9152ZM189.428 68.223V75.2589H188.516V74.0496C188.127 74.5105 187.69 74.8582 187.206 75.0903C186.724 75.3231 186.198 75.4395 185.624 75.4395C184.605 75.4395 183.734 75.08 183.011 74.36C182.292 73.6354 181.933 72.7563 181.933 71.7212C181.933 70.7091 182.297 69.8418 183.024 69.1227C183.752 68.4028 184.627 68.0425 185.651 68.0425C186.241 68.0425 186.775 68.1652 187.252 68.4107C187.732 68.6563 188.154 69.0253 188.516 69.5171V68.223H189.428Z" fill="#003D48"/>
</g>
<g clip-path="url(#clip0_4443_12224)">
<path fill-rule="evenodd" clip-rule="evenodd" d="M302.174 46.8841C302.018 46.8841 301.94 46.7801 301.966 46.6377L303.031 40.7155C303.057 40.6118 303.109 40.5339 303.226 40.482C304.044 40.1709 305.018 39.9635 305.862 39.9635C307.823 39.9635 308.706 41.2082 308.382 43.0492L307.732 46.6766C307.706 46.806 307.629 46.8841 307.486 46.8841H305.992C305.849 46.8841 305.771 46.7801 305.784 46.6377L306.434 42.8547C306.589 42.0378 306.304 41.662 305.615 41.662C305.304 41.662 304.979 41.7267 304.784 41.8174L303.927 46.6766C303.901 46.819 303.823 46.8841 303.68 46.8841H302.174ZM299.824 39.5607C299.917 39.5607 299.979 39.5401 300.041 39.4677L301.248 38.106C301.362 37.9926 301.31 37.879 301.155 37.879H299.848C299.754 37.879 299.682 37.91 299.62 37.9823L298.847 39.344C298.754 39.4574 298.796 39.5607 298.951 39.5607H299.824ZM299.804 42.7251L299.505 44.3834C299.401 44.9919 298.985 45.3541 298.31 45.3541C297.7 45.3541 297.427 44.94 297.544 44.3057L297.843 42.6344C297.946 42.0508 298.388 41.662 299.012 41.662C299.635 41.662 299.908 42.1417 299.804 42.7251ZM299.232 39.9635C297.427 39.9635 296.154 40.9359 295.869 42.5046L295.596 44.1116C295.297 45.7559 296.349 47.0524 298.09 47.0524C299.999 47.0524 301.18 46.119 301.479 44.487L301.778 42.8547C302.05 41.273 301.012 39.9635 299.232 39.9635ZM294.491 39.7669C293.829 39.7669 293.413 39.2354 293.543 38.5613C293.647 37.9908 294.089 37.6148 294.686 37.6148C295.349 37.6148 295.764 38.1334 295.634 38.8335C295.53 39.365 295.076 39.7669 294.491 39.7669ZM292.463 46.8841C292.32 46.8841 292.242 46.7801 292.268 46.6377L293.384 40.3394C293.398 40.2098 293.489 40.145 293.618 40.145H295.125C295.281 40.145 295.359 40.2358 295.333 40.3785L294.216 46.6766C294.19 46.806 294.112 46.8841 293.969 46.8841H292.463ZM288.858 47.0524C287.78 47.0524 286.936 46.7672 286.222 46.1837C286.105 46.0931 286.105 45.9762 286.183 45.8727L286.923 44.8622C287.014 44.7458 287.118 44.733 287.235 44.8104C287.741 45.1859 288.313 45.3671 288.923 45.3671C289.546 45.3671 289.858 45.1729 289.923 44.8752C290.014 44.474 289.56 44.3703 289.04 44.254C287.767 43.9952 286.754 43.2307 287.04 41.8304C287.313 40.521 288.404 39.9635 289.975 39.9635C290.871 39.9635 291.56 40.158 292.261 40.5598C292.391 40.6377 292.404 40.7543 292.313 40.8709L291.547 41.8952C291.469 42.0119 291.365 42.0249 291.235 41.9602C290.832 41.7267 290.339 41.61 289.793 41.61C289.313 41.61 289.014 41.7138 288.962 42.0378C288.884 42.4269 289.3 42.5435 289.923 42.6863C290.923 42.9067 292.17 43.5289 291.897 45.0436C291.637 46.4171 290.482 47.0524 288.858 47.0524ZM285.522 39.7669C284.86 39.7669 284.444 39.2354 284.574 38.5613C284.678 37.9908 285.12 37.6148 285.717 37.6148C286.379 37.6148 286.795 38.1334 286.665 38.8335C286.561 39.365 286.107 39.7669 285.522 39.7669ZM283.493 46.8841C283.351 46.8841 283.273 46.7801 283.299 46.6377L284.416 40.3394C284.428 40.2098 284.519 40.145 284.649 40.145H286.156C286.312 40.145 286.389 40.2358 286.363 40.3785L285.247 46.6766C285.221 46.806 285.143 46.8841 285 46.8841H283.493ZM278.551 46.8841C278.408 46.8841 278.317 46.819 278.304 46.6766L277.304 40.3785C277.291 40.2358 277.369 40.145 277.525 40.145H279.032C279.162 40.145 279.253 40.2098 279.266 40.3525L279.577 43.1399C279.629 43.5808 279.694 44.267 279.733 44.8495H279.759C279.993 44.2799 280.226 43.6845 280.46 43.1269L281.694 40.3134C281.746 40.2098 281.837 40.145 281.967 40.145H283.577C283.746 40.145 283.811 40.2487 283.733 40.4044L280.525 46.7152C280.473 46.8319 280.383 46.8841 280.266 46.8841H278.551ZM273.474 45.4318C273.773 45.4318 274.137 45.38 274.371 45.3283L274.552 44.2022C274.306 44.1505 274.007 44.1116 273.721 44.1116C273.085 44.1116 272.747 44.3186 272.682 44.7072C272.591 45.1988 272.903 45.4318 273.474 45.4318ZM273.228 47.0524C271.409 47.0524 270.487 46.0152 270.747 44.6034C270.968 43.3473 272.033 42.7898 273.695 42.7898C274.085 42.7898 274.475 42.8288 274.799 42.8935L274.825 42.6863C274.942 42.0508 274.76 41.7008 273.942 41.7008C273.37 41.7008 272.786 41.8174 272.396 41.999C272.254 42.0637 272.15 42.0378 272.098 41.8952L271.695 40.8321C271.656 40.7155 271.656 40.6248 271.734 40.5728C272.357 40.1968 273.331 39.9635 274.383 39.9635C276.15 39.9635 277.059 41.1304 276.708 43.0751L276.124 46.3524C276.098 46.4689 276.046 46.5597 275.929 46.5988C275.189 46.8578 274.228 47.0524 273.228 47.0524ZM255.326 47.0524C253.573 47.0524 252.508 45.8856 252.833 44.0469L253.118 42.4399C253.404 40.8062 254.703 39.9635 256.352 39.9635C257.17 39.9635 257.807 40.2098 258.326 40.5857C258.43 40.6636 258.443 40.7803 258.365 40.8968L257.599 41.8824C257.508 41.986 257.417 41.999 257.287 41.9212C257.002 41.7527 256.651 41.6488 256.287 41.6488C255.599 41.6488 255.183 42.0119 255.067 42.6472L254.794 44.1763C254.638 44.9659 254.989 45.3671 255.625 45.3671C255.989 45.3671 256.43 45.2377 256.846 44.9919C256.976 44.914 257.092 44.9399 257.157 45.0694L257.664 46.1837C257.729 46.3136 257.703 46.4171 257.56 46.495C256.859 46.8841 256.106 47.0524 255.326 47.0524ZM261.017 45.4318C261.316 45.4318 261.68 45.38 261.913 45.3283L262.095 44.2022C261.849 44.1505 261.55 44.1116 261.264 44.1116C260.628 44.1116 260.29 44.3186 260.225 44.7072C260.134 45.1988 260.446 45.4318 261.017 45.4318ZM260.771 47.0524C258.952 47.0524 258.03 46.0152 258.29 44.6034C258.511 43.3473 259.576 42.7898 261.238 42.7898C261.628 42.7898 262.018 42.8288 262.342 42.8935L262.368 42.6863C262.485 42.0508 262.303 41.7008 261.485 41.7008C260.914 41.7008 260.329 41.8174 259.94 41.999C259.797 42.0637 259.693 42.0378 259.641 41.8952L259.238 40.8321C259.199 40.7155 259.199 40.6248 259.277 40.5728C259.901 40.1968 260.875 39.9635 261.927 39.9635C263.693 39.9635 264.602 41.1304 264.251 43.0751L263.667 46.3524C263.641 46.4689 263.589 46.5597 263.472 46.5988C262.732 46.8578 261.771 47.0524 260.771 47.0524ZM264.592 46.8841C264.436 46.8841 264.359 46.7931 264.385 46.6377L264.541 45.7948C264.566 45.691 264.605 45.6131 264.67 45.5355L267.956 41.8045H265.657C265.515 41.8045 265.437 41.7138 265.463 41.5712L265.696 40.3394C265.709 40.2098 265.8 40.145 265.93 40.145H270.67C270.813 40.145 270.891 40.2358 270.865 40.3785L270.735 41.1692C270.709 41.273 270.67 41.3507 270.605 41.4285L267.32 45.1988H269.865C270.008 45.1988 270.086 45.2894 270.06 45.4447L269.826 46.6766C269.813 46.806 269.722 46.8841 269.592 46.8841H264.592Z" fill="#E40013"/>
<path fill-rule="evenodd" clip-rule="evenodd" d="M242.233 39.5404C241.801 40.0384 241.458 40.5002 241.223 40.9577C240.369 42.5985 240.232 43.7302 240.754 44.8678C240.87 45.1091 241.037 45.31 241.23 45.4753C242.194 46.2785 243.896 46.0906 244.555 44.8782C245.926 42.3329 243.637 41.2472 245.316 39.2884C246.099 38.374 246.662 37.9072 246.279 37.6067C245.462 36.9757 243.212 38.4147 242.233 39.5404ZM248.777 38.3857C248.282 38.3691 248.426 39.0867 248.449 40.2943C248.5 42.8632 246.039 42.2672 245.485 45.0854C245.221 46.4476 246.409 47.6715 247.669 47.6595C247.922 47.6571 248.179 47.6061 248.423 47.4961C249.551 46.9429 250.164 45.9803 250.553 44.1734C250.657 43.6718 250.688 43.1006 250.669 42.4402C250.629 40.9511 249.808 38.4075 248.777 38.3857Z" fill="#E40013"/>
</g>
<path fill-rule="evenodd" clip-rule="evenodd" d="M375.531 38.5944V41.435C376.15 41.4188 376.771 41.4675 377.39 41.4188C377.835 41.3701 378.249 41.2078 378.487 40.7857C379.012 39.9092 378.519 38.8217 377.533 38.6431C376.882 38.5295 376.214 38.6269 375.531 38.5944ZM379.552 43.0907C380.236 44.0971 380.903 45.1035 381.587 46.1098C381.539 46.1585 381.491 46.1423 381.46 46.1423H378.853C378.741 46.1423 378.694 46.0936 378.646 46.0125C378.122 45.2333 377.597 44.4542 377.088 43.675C377.025 43.5939 376.977 43.5614 376.866 43.5614H375.706H375.547V46.1261H372.86V36.4356C372.924 36.4031 372.971 36.4193 373.019 36.4193C374.45 36.4193 375.864 36.4031 377.295 36.4193C378.233 36.4193 379.139 36.5979 379.934 37.1335C380.998 37.8477 381.444 38.8704 381.412 40.1365C381.38 41.4513 380.776 42.4252 379.632 43.0258C379.6 43.0582 379.584 43.0745 379.552 43.0907Z" fill="#295135"/>
<path fill-rule="evenodd" clip-rule="evenodd" d="M357.029 46.1266H354.342V42.3607H350.67V46.1266H348V36.436H350.67V40.0558H354.342V36.436H357.029V46.1266Z" fill="#295135"/>
<path fill-rule="evenodd" clip-rule="evenodd" d="M400.9 43.9997V46.1262H394.081V36.4355H400.9V38.5457H396.751V40.1689H400.9V42.2305H396.735V43.9997H400.9Z" fill="#295135"/>
<path fill-rule="evenodd" clip-rule="evenodd" d="M384.289 43.2372C384.782 43.5619 385.306 43.8053 385.862 43.9677C386.626 44.1949 387.389 44.2761 388.167 44.13C388.31 44.0977 388.438 44.0652 388.565 44.0001C388.803 43.8865 388.946 43.7079 388.962 43.4159C388.962 43.1238 388.819 42.945 388.581 42.8152C388.295 42.6691 387.993 42.5879 387.675 42.5068C386.943 42.3122 386.212 42.1821 385.497 41.9387C384.988 41.7601 384.527 41.5006 384.146 41.0948C383.733 40.6565 383.574 40.1369 383.558 39.5525C383.494 38.1405 384.289 37.0854 385.64 36.5821C386.308 36.3224 387.007 36.2412 387.722 36.2412C388.756 36.2412 389.757 36.4035 390.711 36.8256C390.886 36.9067 391.044 36.9879 391.219 37.1017C390.949 37.7833 390.679 38.4488 390.393 39.1467C390.123 39.0169 389.868 38.8872 389.598 38.7734C388.787 38.4652 387.961 38.3028 387.102 38.4488C386.896 38.4814 386.689 38.5463 386.514 38.6922C386.069 39.0333 386.133 39.6014 386.641 39.8285C387.102 40.0395 387.579 40.1369 388.072 40.2507C388.803 40.413 389.55 40.5589 390.218 40.916C390.838 41.2407 391.346 41.7116 391.537 42.442C391.871 43.7406 391.331 45.0065 390.17 45.6884C389.455 46.1103 388.676 46.289 387.865 46.3213C386.594 46.3862 385.37 46.2078 384.193 45.7045C383.923 45.5909 383.653 45.4449 383.399 45.2662C383.701 44.5846 383.987 43.919 384.289 43.2372Z" fill="#295135"/>
<path fill-rule="evenodd" clip-rule="evenodd" d="M405.032 37.2312H416V36.4033H405.032V37.2312Z" fill="#295135"/>
<path fill-rule="evenodd" clip-rule="evenodd" d="M405.032 46.1105H416V45.2827H405.032V46.1105Z" fill="#295135"/>
<path fill-rule="evenodd" clip-rule="evenodd" d="M410.277 38.6593H411.74C411.819 38.6593 411.835 38.7243 411.851 38.773C412.201 39.6333 412.55 40.5098 412.916 41.3701C412.995 41.5811 413.091 41.7759 413.17 42.0031C413.25 41.922 413.266 41.8246 413.297 41.7272C413.711 40.7533 414.108 39.7631 414.521 38.7892C414.553 38.6918 414.601 38.6593 414.712 38.6593H415.872C415.904 38.6593 415.952 38.6431 416 38.6918C415.952 38.8054 415.904 38.919 415.857 39.0327C415.205 40.5909 414.553 42.1492 413.901 43.7075C413.854 43.8049 413.806 43.8536 413.695 43.8536C413.313 43.8374 412.932 43.8536 412.55 43.8536C412.455 43.8536 412.407 43.8374 412.376 43.74C411.692 42.0843 410.993 40.4449 410.309 38.7892C410.293 38.7567 410.261 38.7243 410.277 38.6593Z" fill="#295135"/>
<path fill-rule="evenodd" clip-rule="evenodd" d="M408.259 43.8376H406.812V39.8283H405.271V38.6758H409.785V39.8283H408.259V43.8376Z" fill="#295135"/>
<path fill-rule="evenodd" clip-rule="evenodd" d="M364.213 44.0002C364.166 44.2761 364.134 44.5683 364.102 44.8442C364.086 44.9578 364.038 45.0552 363.943 45.1364C363.816 45.234 363.705 45.3474 363.593 45.4448C363.307 45.6721 363.037 45.8993 362.799 46.1915C362.767 46.159 362.735 46.1428 362.703 46.1267C362.497 46.0129 362.385 46.0616 362.179 46.3538H362.147C361.94 46.159 361.94 46.1753 362.051 45.9155C362.163 45.6558 362.242 45.3636 362.433 45.1364L363.689 43.8703C363.705 43.8378 363.737 43.8054 363.768 43.7891C363.895 43.7404 363.991 43.6593 364.102 43.5619C364.182 43.6919 364.229 43.8378 364.213 44.0002ZM371.462 43.2697C371.573 42.4581 371.414 41.9387 370.905 41.5978C371.032 41.9387 371.112 42.2633 371.001 42.6042C370.889 42.9451 370.667 43.1886 370.349 43.3346C370.635 43.0587 370.762 42.718 370.746 42.2796C370.651 42.4094 370.587 42.4906 370.492 42.5717C370.238 42.7828 370.015 42.7341 369.84 42.4581C369.713 42.2633 369.681 42.0361 369.697 41.7926C369.92 41.7601 370.079 41.6629 370.206 41.468C369.808 41.4517 369.697 41.3543 369.586 40.9972C369.57 40.9648 369.554 40.9161 369.554 40.8836C369.475 40.559 369.316 40.3317 368.95 40.3317C368.886 39.7311 368.585 39.3253 368.044 39.0818C367.71 38.9358 367.361 38.8871 366.995 38.9195C366.788 38.9358 366.582 38.952 366.391 38.952C365.946 38.9682 365.596 38.7897 365.294 38.4488C365.501 38.4326 365.692 38.4001 365.866 38.2702C365.692 38.2053 365.533 38.1404 365.437 37.9943C365.278 37.7671 365.151 37.5073 364.881 37.345C365.183 37.2963 365.342 37.2152 365.421 37.0366C364.96 37.0041 364.579 36.8094 364.293 36.4198C364.515 36.3386 364.722 36.2737 364.913 36.1276C364.69 36.0627 364.483 36.014 364.325 35.8679C364.166 35.7218 364.023 35.6082 363.768 35.6894C363.927 35.3647 364.197 35.2349 364.468 35.1212C364.023 34.9914 363.609 34.8291 363.164 35.0888C363.228 34.9102 363.371 34.8291 363.498 34.6992C363.291 34.618 363.101 34.6343 362.91 34.6667C362.513 34.7317 362.258 35.0401 361.972 35.2673C361.845 35.2186 361.829 35.0401 361.686 35.0076C361.67 35.0238 361.654 35.0401 361.654 35.0563C361.607 35.2024 361.686 35.3485 361.638 35.4783C361.591 35.6082 361.448 35.6894 361.384 35.8354C361.32 36.0302 361.352 36.1276 361.559 36.2088C361.289 36.3873 361.177 36.6308 361.241 36.9392C361.257 37.0041 361.257 37.0853 361.273 37.1502C361.32 37.2639 361.273 37.345 361.209 37.4424C361.018 37.7184 360.859 38.0105 360.653 38.2702C360.494 38.4813 360.462 38.6923 360.573 38.9358C360.685 39.1792 360.875 39.3578 361.114 39.374C361.384 39.3903 361.622 39.2442 361.734 38.9845C361.75 38.9358 361.781 38.8871 361.845 38.8708C362.051 38.7897 362.258 38.7247 362.433 38.5462C362.433 38.6274 362.433 38.676 362.417 38.7247C362.385 39.0332 362.354 39.3578 362.338 39.6662C362.338 39.7798 362.29 39.861 362.195 39.9259C361.686 40.2668 361.336 40.7375 361.336 41.3706C361.336 41.8088 361.162 42.0687 360.891 42.3445C360.621 42.6368 360.335 42.9288 359.953 43.0749C359.89 43.0912 359.826 43.1399 359.779 43.1723C359.461 43.3184 359.302 43.5944 359.27 43.9354C359.222 44.3248 359.079 44.6494 358.825 44.9416C358.777 44.9905 358.73 45.0552 358.713 45.1202C358.682 45.3312 358.571 45.526 358.491 45.7209C358.443 45.8181 358.428 45.9155 358.412 46.0292C358.396 46.2564 358.539 46.4187 358.761 46.4514C359.127 46.4999 359.381 46.2564 359.317 45.8668C359.286 45.6558 359.238 45.461 359.334 45.2663C359.365 45.2013 359.349 45.1039 359.317 45.0228C359.286 44.9254 359.317 44.8442 359.365 44.7631C359.572 44.3573 359.922 44.0651 360.208 43.7242C360.271 43.6593 360.335 43.6108 360.414 43.5944C361.003 43.432 361.575 43.1886 362.115 42.9126C362.274 42.8315 362.385 42.8477 362.528 42.9288C362.751 43.0587 362.831 43.5132 362.64 43.708C362.465 43.8703 362.338 44.0813 362.21 44.2761C362.02 44.5683 361.845 44.8767 361.654 45.1689C361.622 45.2013 361.607 45.25 361.559 45.2663C361.177 45.4123 361.098 45.7857 361.4 46.0779C361.416 46.0941 361.432 46.1103 361.448 46.1103C361.622 46.2239 361.654 46.4025 361.67 46.5811C361.686 46.6622 361.654 46.7596 361.654 46.8572C361.75 46.9057 361.861 46.9544 361.972 47.0031C361.893 47.1167 361.813 47.1979 361.75 47.3115C361.702 47.4089 361.686 47.5064 361.766 47.5712C361.924 47.7011 362.099 47.7335 362.306 47.6688C362.481 47.6199 362.608 47.5225 362.624 47.3115C362.624 47.2466 362.656 47.1979 362.656 47.1329C362.687 46.9383 362.783 46.8408 362.989 46.8408C363.037 46.8408 363.085 46.8408 363.132 46.7921C363.132 46.7271 363.132 46.6622 363.117 46.5973C363.069 46.4837 363.101 46.4187 363.18 46.3376C363.546 45.9644 363.959 45.6398 364.372 45.3312C364.642 45.1364 364.865 44.8929 364.976 44.5683C365.008 44.4709 365.04 44.3897 365.024 44.2923C365.008 44.0326 365.008 43.7731 365.072 43.5132C365.517 43.5296 365.93 43.4807 366.311 43.221C366.327 43.3673 366.343 43.497 366.28 43.6108C366.057 44.0326 365.819 44.4709 365.596 44.8929C365.564 44.9416 365.548 44.9741 365.501 45.0065C365.247 45.1202 365.119 45.3312 364.992 45.5747C364.77 46.0292 364.5 46.435 364.086 46.7109C363.911 46.8245 363.737 46.9544 363.562 47.0842C363.355 47.2466 363.291 47.4738 363.244 47.7011C363.657 47.8796 364.038 47.7335 364.229 47.3441C364.293 47.1979 364.356 47.0355 364.468 46.9057C364.722 46.6297 364.992 46.3538 365.342 46.1915C365.692 46.0292 365.882 45.7694 365.978 45.4123C366.073 45.0552 366.264 44.747 366.518 44.4871C367.011 43.9515 367.567 43.4807 368.124 43.01C368.505 42.6854 368.807 42.3122 368.998 41.8413C369.014 41.8088 369.014 41.7601 369.061 41.7441C369.125 41.9712 369.109 42.1984 369.093 42.4419C369.061 42.7503 368.998 43.0426 369.061 43.3509C369.236 44.1949 370.158 44.6494 370.985 44.3248C371.652 44.0489 371.907 43.4807 371.986 42.7503C371.859 43.0426 371.748 43.2535 371.462 43.2697Z" fill="#295135"/>
<defs>
<clipPath id="clip0_4443_12224">
<rect width="68" height="68" fill="white" transform="translate(240 8.7998)"/>
</clipPath>
</defs>
</svg>
