<svg xmlns="http://www.w3.org/2000/svg" viewBox="0 0 512 512">
    <path fill="white" style="opacity: 0.6;" d="m424.699219 128.53125h-11.230469v87.300781c0 64.679688-52.621094 117.300781-117.300781 117.300781h-167.636719v11.234376c0 48.136718 39.164062 87.296874 87.300781 87.296874h179.335938l92.230469 76.859376c2.746093 2.289062 6.160156 3.476562 9.605468 3.476562 8.246094 0 14.996094-6.691406 14.996094-15v-281.167969c0-48.210937-39.003906-87.300781-87.300781-87.300781zm0 0"/>
    <path fill="white" d="m383.46875 215.832031v-128.53125c0-48.296875-39.085938-87.300781-87.300781-87.300781h-208.867188c-48.296875 0-87.300781 39.085938-87.300781 87.300781v281.167969c0 8.304688 6.75 15 14.996094 15 3.445312 0 6.859375-1.1875 9.605468-3.480469l92.230469-76.855469h179.335938c48.136719 0 87.300781-39.160156 87.300781-87.300781zm-191.734375 23.035157c-8.28125 0-15-6.71875-15-15s6.71875-15 15-15c8.277344 0 15 6.71875 15 15s-6.722656 15-15 15zm15-66.339844v3.140625c0 8.28125-6.71875 15-15 15-8.285156 0-15-6.71875-15-15v-16.066407c0-8.285156 6.714844-15 15-15 13.875 0 25.164063-11.292968 25.164063-25.167968 0-13.878906-11.289063-25.167969-25.164063-25.167969-6.734375 0-13.050781 2.617187-17.800781 7.367187s-7.367188 11.066407-7.367188 17.78125c0 8.285157-6.714844 15.011719-15 15.011719s-15-6.710937-15-14.992187v-.019532c0-14.726562 5.738282-28.578124 16.152344-38.992187 10.417969-10.417969 24.265625-16.15625 38.996094-16.15625 30.4375 0 55.183594 24.75 55.183594 55.167969 0 25.222656-17.011719 46.546875-40.164063 53.09375zm0 0"/>
</svg>
